{
.appVersion = "1342";
DisplayStrings = (
"/brevecomb/brevecomb_acutecomb",
"/circumflexcomb/circumflexcomb_acutecomb",
"/hookabovecomb/circumflexcomb_hookabovecomb",
"/tildecomb/circumflexcomb/circumflexcomb/circumflexcomb_tildecomb",
"/idotless/gravecomb í",
"AÀ",
"EÈ",
"noaàáâãäåæc¸/cedillacomb çèéêëìíîïðñòóôõö÷øùúûüýþ/ydieresis/hbar j/ij/space aijo\012abcdefghijklm@nopqrstuvwxyz\012ABCDEFGHIJKLMNOPQRSTUVWXYZ\012¡01!23456789\012HMdblpbqNOPQ\012",

glyphs = (
{
glyphname = exclam;
lastChange = "2021-04-15 17:47:42 +0000";
layers = (
{
background = {
paths = (
{
closed = 1;
nodes = (
"111 91 OFFCURVE",
"131 131 OFFCURVE",
"173 208 CURVE SMOOTH",
"197 252 LINE SMOOTH",
"243 336 OFFCURVE",
"275 386 OFFCURVE",
"301 421 CURVE SMOOTH",
"300 420 OFFCURVE",
"309 427 OFFCURVE",
"282 434 CURVE SMOOTH",
"269 438 OFFCURVE",
"258 440 OFFCURVE",
"248 440 CURVE SMOOTH",
"234 440 OFFCURVE",
"206 389 OFFCURVE",
"164 288 CURVE SMOOTH",
"122 187 OFFCURVE",
"101 126 OFFCURVE",
"101 103 CURVE SMOOTH",
"101 95 OFFCURVE",
"103 91 OFFCURVE",
"106 91 CURVE SMOOTH"
);
},
{
closed = 1;
nodes = (
"103 20 OFFCURVE",
"125 41 OFFCURVE",
"125 39 CURVE SMOOTH",
"125 47 OFFCURVE",
"116 51 OFFCURVE",
"99 51 CURVE SMOOTH",
"82 51 OFFCURVE",
"70 44 OFFCURVE",
"61 31 CURVE SMOOTH",
"52 18 OFFCURVE",
"48 3 OFFCURVE",
"48 -15 CURVE SMOOTH",
"48 -22 OFFCURVE",
"51 -25 OFFCURVE",
"58 -25 CURVE"
);
}
);
};
hints = (
{
horizontal = 1;
place = "{9, 12}";
type = Stem;
},
{
place = "{48, 10}";
type = Stem;
}
);
layerId = "8B85D65B-9817-42FC-8CCD-19CD4C331E33";
paths = (
{
closed = 1;
nodes = (
"111 91 OFFCURVE",
"131 131 OFFCURVE",
"173 208 CURVE SMOOTH",
"197 252 LINE SMOOTH",
"243 336 OFFCURVE",
"275 386 OFFCURVE",
"301 421 CURVE SMOOTH",
"300 420 OFFCURVE",
"309 427 OFFCURVE",
"282 434 CURVE SMOOTH",
"269 438 OFFCURVE",
"258 440 OFFCURVE",
"248 440 CURVE SMOOTH",
"234 440 OFFCURVE",
"206 389 OFFCURVE",
"164 288 CURVE SMOOTH",
"122 187 OFFCURVE",
"101 126 OFFCURVE",
"101 103 CURVE SMOOTH",
"101 95 OFFCURVE",
"103 91 OFFCURVE",
"106 91 CURVE SMOOTH"
);
},
{
closed = 1;
nodes = (
"103 20 OFFCURVE",
"125 41 OFFCURVE",
"125 39 CURVE SMOOTH",
"125 47 OFFCURVE",
"116 51 OFFCURVE",
"99 51 CURVE SMOOTH",
"82 51 OFFCURVE",
"70 44 OFFCURVE",
"61 31 CURVE SMOOTH",
"52 18 OFFCURVE",
"48 3 OFFCURVE",
"48 -15 CURVE SMOOTH",
"48 -22 OFFCURVE",
"51 -25 OFFCURVE",
"58 -25 CURVE"
);
}
);
width = 195;
}
);
note = exclam;
unicode = 0021;
},
{
glyphname = quotedbl;
lastChange = "2021-04-18 13:12:16 +0000";
layers = (
{
background = {
paths = (
{
closed = 1;
nodes = (
"207 348 OFFCURVE",
"232 389 OFFCURVE",
"247 419 CURVE SMOOTH",
"248 422 OFFCURVE",
"249 425 OFFCURVE",
"249 428 CURVE SMOOTH",
"249 436 OFFCURVE",
"242 444 OFFCURVE",
"231 448 CURVE SMOOTH",
"224 451 OFFCURVE",
"212 452 OFFCURVE",
"205 452 CURVE SMOOTH",
"194 452 OFFCURVE",
"191 448 OFFCURVE",
"191 445 CURVE SMOOTH",
"191 442 OFFCURVE",
"194 439 OFFCURVE",
"196 437 CURVE SMOOTH",
"202 432 OFFCURVE",
"205 425 OFFCURVE",
"205 415 CURVE SMOOTH",
"205 396 OFFCURVE",
"194 372 OFFCURVE",
"189 361 CURVE SMOOTH",
"184 351 OFFCURVE",
"175 341 OFFCURVE",
"168 330 CURVE",
"168 327 OFFCURVE",
"167 320 OFFCURVE",
"171 320 CURVE SMOOTH",
"173 320 OFFCURVE",
"175 321 OFFCURVE",
"180 325 CURVE SMOOTH"
);
},
{
closed = 1;
nodes = (
"122 348 OFFCURVE",
"147 389 OFFCURVE",
"162 419 CURVE SMOOTH",
"163 422 OFFCURVE",
"164 425 OFFCURVE",
"164 428 CURVE SMOOTH",
"164 436 OFFCURVE",
"157 444 OFFCURVE",
"146 448 CURVE SMOOTH",
"139 451 OFFCURVE",
"127 452 OFFCURVE",
"120 452 CURVE SMOOTH",
"109 452 OFFCURVE",
"106 448 OFFCURVE",
"106 445 CURVE SMOOTH",
"106 442 OFFCURVE",
"109 439 OFFCURVE",
"111 437 CURVE SMOOTH",
"117 432 OFFCURVE",
"120 425 OFFCURVE",
"120 415 CURVE SMOOTH",
"120 396 OFFCURVE",
"109 372 OFFCURVE",
"104 361 CURVE SMOOTH",
"99 351 OFFCURVE",
"90 341 OFFCURVE",
"83 330 CURVE",
"83 327 OFFCURVE",
"82 320 OFFCURVE",
"86 320 CURVE SMOOTH",
"88 320 OFFCURVE",
"90 321 OFFCURVE",
"95 325 CURVE SMOOTH"
);
}
);
};
hints = (
{
horizontal = 1;
place = "{290, 132}";
type = Stem;
},
{
place = "{83, 166}";
type = Stem;
}
);
layerId = "8B85D65B-9817-42FC-8CCD-19CD4C331E33";
paths = (
{
closed = 1;
nodes = (
"173 320 OFFCURVE",
"175 321 OFFCURVE",
"180 325 CURVE SMOOTH",
"207 348 OFFCURVE",
"232 389 OFFCURVE",
"247 419 CURVE SMOOTH",
"248 422 OFFCURVE",
"249 425 OFFCURVE",
"249 428 CURVE SMOOTH",
"249 436 OFFCURVE",
"242 444 OFFCURVE",
"231 448 CURVE SMOOTH",
"224 451 OFFCURVE",
"212 452 OFFCURVE",
"205 452 CURVE SMOOTH",
"194 452 OFFCURVE",
"191 448 OFFCURVE",
"191 445 CURVE SMOOTH",
"191 442 OFFCURVE",
"194 439 OFFCURVE",
"196 437 CURVE SMOOTH",
"202 432 OFFCURVE",
"205 425 OFFCURVE",
"205 415 CURVE SMOOTH",
"205 396 OFFCURVE",
"194 372 OFFCURVE",
"189 361 CURVE SMOOTH",
"184 351 OFFCURVE",
"175 341 OFFCURVE",
"168 330 CURVE",
"168 327 OFFCURVE",
"167 320 OFFCURVE",
"171 320 CURVE SMOOTH"
);
},
{
closed = 1;
nodes = (
"88 320 OFFCURVE",
"90 321 OFFCURVE",
"95 325 CURVE SMOOTH",
"122 348 OFFCURVE",
"147 389 OFFCURVE",
"162 419 CURVE SMOOTH",
"163 422 OFFCURVE",
"164 425 OFFCURVE",
"164 428 CURVE SMOOTH",
"164 436 OFFCURVE",
"157 444 OFFCURVE",
"146 448 CURVE SMOOTH",
"139 451 OFFCURVE",
"127 452 OFFCURVE",
"120 452 CURVE SMOOTH",
"109 452 OFFCURVE",
"106 448 OFFCURVE",
"106 445 CURVE SMOOTH",
"106 442 OFFCURVE",
"109 439 OFFCURVE",
"111 437 CURVE SMOOTH",
"117 432 OFFCURVE",
"120 425 OFFCURVE",
"120 415 CURVE SMOOTH",
"120 396 OFFCURVE",
"109 372 OFFCURVE",
"104 361 CURVE SMOOTH",
"99 351 OFFCURVE",
"90 341 OFFCURVE",
"83 330 CURVE",
"83 327 OFFCURVE",
"82 320 OFFCURVE",
"86 320 CURVE SMOOTH"
);
}
);
width = 247;
}
);
note = quotedbl;
unicode = 0022;
},
{
glyphname = numbersign;
lastChange = "2021-04-18 13:12:25 +0000";
layers = (
{
background = {
paths = (
{
closed = 1;
nodes = (
"120 32 OFFCURVE",
"134 51 OFFCURVE",
"148 89 CURVE SMOOTH",
"175 162 LINE",
"324 163 LINE",
"299 91 OFFCURVE",
"287 51 OFFCURVE",
"287 43 CURVE SMOOTH",
"287 36 OFFCURVE",
"289 32 OFFCURVE",
"294 32 CURVE SMOOTH",
"305 32 OFFCURVE",
"313 52 OFFCURVE",
"329 89 CURVE SMOOTH",
"361 163 LINE",
"429 165 LINE SMOOTH",
"436 165 OFFCURVE",
"463 168 OFFCURVE",
"484 173 CURVE SMOOTH",
"508 178 OFFCURVE",
"520 184 OFFCURVE",
"520 189 CURVE SMOOTH",
"520 195 OFFCURVE",
"508 198 OFFCURVE",
"483 198 CURVE SMOOTH",
"373 198 LINE",
"424 329 LINE",
"494 329 LINE SMOOTH",
"506 329 OFFCURVE",
"524 332 OFFCURVE",
"549 339 CURVE SMOOTH",
"574 346 OFFCURVE",
"586 351 OFFCURVE",
"586 356 CURVE SMOOTH",
"586 361 OFFCURVE",
"579 364 OFFCURVE",
"563 364 CURVE SMOOTH",
"434 360 LINE",
"453 408 OFFCURVE",
"477 434 OFFCURVE",
"477 462 CURVE SMOOTH",
"477 473 OFFCURVE",
"461 491 OFFCURVE",
"456 491 CURVE SMOOTH",
"449 491 OFFCURVE",
"428 447 OFFCURVE",
"394 359 CURVE",
"377 359 LINE SMOOTH",
"366 359 OFFCURVE",
"323 360 OFFCURVE",
"250 361 CURVE",
"263 395 OFFCURVE",
"285 438 OFFCURVE",
"289 459 CURVE SMOOTH",
"290 464 OFFCURVE",
"290 467 OFFCURVE",
"290 471 CURVE SMOOTH",
"290 494 OFFCURVE",
"274 492 OFFCURVE",
"269 492 CURVE SMOOTH",
"265 492 OFFCURVE",
"258 481 OFFCURVE",
"250 459 CURVE SMOOTH",
"215 361 LINE",
"96 363 LINE SMOOTH",
"71 363 OFFCURVE",
"59 357 OFFCURVE",
"59 346 CURVE SMOOTH",
"59 337 OFFCURVE",
"67 332 OFFCURVE",
"83 330 CURVE SMOOTH",
"99 329 OFFCURVE",
"139 328 OFFCURVE",
"203 328 CURVE",
"186 276 OFFCURVE",
"170 233 OFFCURVE",
"156 198 CURVE",
"31 197 LINE SMOOTH",
"6 197 OFFCURVE",
"-6 192 OFFCURVE",
"-6 181 CURVE SMOOTH",
"-6 172 OFFCURVE",
"2 166 OFFCURVE",
"18 164 CURVE SMOOTH",
"34 163 OFFCURVE",
"75 162 OFFCURVE",
"142 162 CURVE",
"125 101 LINE",
"110 68 OFFCURVE",
"103 49 OFFCURVE",
"103 40 CURVE SMOOTH",
"103 34 OFFCURVE",
"106 32 OFFCURVE",
"110 32 CURVE SMOOTH"
);
},
{
closed = 1;
nodes = (
"239 328 LINE",
"383 328 LINE",
"352 244 OFFCURVE",
"337 201 OFFCURVE",
"336 198 CURVE",
"188 198 LINE"
);
}
);
};
hints = (
{
horizontal = 1;
place = "{132, 35}";
type = Stem;
},
{
horizontal = 1;
place = "{298, 35}";
type = Stem;
},
{
place = "{-6, 592}";
type = Stem;
}
);
layerId = "8B85D65B-9817-42FC-8CCD-19CD4C331E33";
paths = (
{
closed = 1;
nodes = (
"120 32 OFFCURVE",
"134 51 OFFCURVE",
"148 89 CURVE SMOOTH",
"175 162 LINE",
"324 163 LINE",
"299 91 OFFCURVE",
"287 51 OFFCURVE",
"287 43 CURVE SMOOTH",
"287 36 OFFCURVE",
"289 32 OFFCURVE",
"294 32 CURVE SMOOTH",
"305 32 OFFCURVE",
"313 52 OFFCURVE",
"329 89 CURVE SMOOTH",
"361 163 LINE",
"429 165 LINE SMOOTH",
"436 165 OFFCURVE",
"463 168 OFFCURVE",
"484 173 CURVE SMOOTH",
"508 178 OFFCURVE",
"520 184 OFFCURVE",
"520 189 CURVE SMOOTH",
"520 195 OFFCURVE",
"508 198 OFFCURVE",
"483 198 CURVE SMOOTH",
"373 198 LINE",
"424 329 LINE",
"494 329 LINE SMOOTH",
"506 329 OFFCURVE",
"524 332 OFFCURVE",
"549 339 CURVE SMOOTH",
"574 346 OFFCURVE",
"586 351 OFFCURVE",
"586 356 CURVE SMOOTH",
"586 361 OFFCURVE",
"579 364 OFFCURVE",
"563 364 CURVE SMOOTH",
"434 360 LINE",
"453 408 OFFCURVE",
"477 434 OFFCURVE",
"477 462 CURVE SMOOTH",
"477 473 OFFCURVE",
"461 491 OFFCURVE",
"456 491 CURVE SMOOTH",
"449 491 OFFCURVE",
"428 447 OFFCURVE",
"394 359 CURVE",
"377 359 LINE SMOOTH",
"366 359 OFFCURVE",
"323 360 OFFCURVE",
"250 361 CURVE",
"263 395 OFFCURVE",
"285 438 OFFCURVE",
"289 459 CURVE SMOOTH",
"290 464 OFFCURVE",
"290 467 OFFCURVE",
"290 471 CURVE SMOOTH",
"290 491 OFFCURVE",
"278 492 OFFCURVE",
"272 492 CURVE SMOOTH",
"271 492 OFFCURVE",
"270 492 OFFCURVE",
"269 492 CURVE SMOOTH",
"265 492 OFFCURVE",
"258 481 OFFCURVE",
"250 459 CURVE SMOOTH",
"215 361 LINE",
"96 363 LINE SMOOTH",
"71 363 OFFCURVE",
"59 357 OFFCURVE",
"59 346 CURVE SMOOTH",
"59 337 OFFCURVE",
"67 332 OFFCURVE",
"83 330 CURVE SMOOTH",
"99 329 OFFCURVE",
"139 328 OFFCURVE",
"203 328 CURVE",
"186 276 OFFCURVE",
"170 233 OFFCURVE",
"156 198 CURVE",
"31 197 LINE SMOOTH",
"6 197 OFFCURVE",
"-6 192 OFFCURVE",
"-6 181 CURVE SMOOTH",
"-6 172 OFFCURVE",
"2 166 OFFCURVE",
"18 164 CURVE SMOOTH",
"34 163 OFFCURVE",
"75 162 OFFCURVE",
"142 162 CURVE",
"125 101 LINE",
"110 68 OFFCURVE",
"103 49 OFFCURVE",
"103 40 CURVE SMOOTH",
"103 34 OFFCURVE",
"106 32 OFFCURVE",
"110 32 CURVE SMOOTH"
);
},
{
closed = 1;
nodes = (
"239 328 LINE",
"383 328 LINE",
"352 244 OFFCURVE",
"337 201 OFFCURVE",
"336 198 CURVE",
"188 198 LINE"
);
}
);
width = 596;
}
);
note = numbersign;
unicode = 0023;
},
{
glyphname = dollar;
lastChange = "2021-04-15 17:47:42 +0000";
layers = (
{
background = {
paths = (
{
closed = 1;
nodes = (
"45 52 LINE",
"42 62 LINE",
"42 79 OFFCURVE",
"57 105 OFFCURVE",
"88 142 CURVE",
"101 142 LINE SMOOTH",
"137 142 OFFCURVE",
"172 165 OFFCURVE",
"172 192 CURVE SMOOTH",
"172 212 OFFCURVE",
"153 242 OFFCURVE",
"116 281 CURVE SMOOTH",
"79 320 OFFCURVE",
"60 348 OFFCURVE",
"60 365 CURVE SMOOTH",
"60 390 OFFCURVE",
"82 414 OFFCURVE",
"125 435 CURVE SMOOTH",
"169 456 OFFCURVE",
"212 467 OFFCURVE",
"253 467 CURVE SMOOTH",
"264 467 OFFCURVE",
"269 465 OFFCURVE",
"269 462 CURVE SMOOTH",
"269 457 OFFCURVE",
"250 440 OFFCURVE",
"213 413 CURVE",
"213 410 LINE",
"219 410 OFFCURVE",
"233 416 OFFCURVE",
"255 429 CURVE SMOOTH",
"278 442 OFFCURVE",
"289 452 OFFCURVE",
"289 460 CURVE SMOOTH",
"289 466 OFFCURVE",
"286 473 OFFCURVE",
"279 480 CURVE SMOOTH",
"262 497 LINE",
"260 498 OFFCURVE",
"253 498 OFFCURVE",
"246 498 CURVE SMOOTH",
"238 498 OFFCURVE",
"231 498 OFFCURVE",
"226 496 CURVE",
"236 521 OFFCURVE",
"240 541 OFFCURVE",
"240 555 CURVE SMOOTH",
"240 568 OFFCURVE",
"236 575 OFFCURVE",
"230 575 CURVE",
"229 573 LINE",
"230 564 LINE SMOOTH",
"232 546 OFFCURVE",
"216 522 OFFCURVE",
"189 488 CURVE",
"92 463 OFFCURVE",
"44 426 OFFCURVE",
"44 377 CURVE SMOOTH",
"44 349 OFFCURVE",
"62 318 OFFCURVE",
"98 280 CURVE SMOOTH",
"133 244 OFFCURVE",
"152 220 OFFCURVE",
"152 214 CURVE SMOOTH",
"152 190 OFFCURVE",
"101 172 OFFCURVE",
"54 172 CURVE SMOOTH",
"32 172 OFFCURVE",
"11 176 OFFCURVE",
"-3 185 CURVE",
"-4 181 LINE",
"9 162 OFFCURVE",
"28 150 OFFCURVE",
"55 144 CURVE",
"55 143 LINE",
"39 113 OFFCURVE",
"33 88 OFFCURVE",
"33 71 CURVE SMOOTH",
"33 58 OFFCURVE",
"37 50 OFFCURVE",
"43 50 CURVE"
);
}
);
};
hints = (
{
horizontal = 1;
place = "{112, 30}";
type = Stem;
},
{
horizontal = 1;
place = "{437, 29}";
type = Stem;
},
{
place = "{33, 9}";
type = Stem;
},
{
place = "{152, 20}";
type = Stem;
},
{
place = "{230, 10}";
type = Stem;
},
{
place = "{44, 16}";
type = Stem;
},
{
place = "{269, 20}";
type = Stem;
}
);
layerId = "8B85D65B-9817-42FC-8CCD-19CD4C331E33";
paths = (
{
closed = 1;
nodes = (
"45 52 LINE",
"42 62 LINE",
"42 79 OFFCURVE",
"57 105 OFFCURVE",
"88 142 CURVE",
"101 142 LINE SMOOTH",
"137 142 OFFCURVE",
"172 165 OFFCURVE",
"172 192 CURVE SMOOTH",
"172 212 OFFCURVE",
"153 242 OFFCURVE",
"116 281 CURVE SMOOTH",
"79 320 OFFCURVE",
"60 348 OFFCURVE",
"60 365 CURVE SMOOTH",
"60 390 OFFCURVE",
"82 414 OFFCURVE",
"125 435 CURVE SMOOTH",
"169 456 OFFCURVE",
"212 467 OFFCURVE",
"253 467 CURVE SMOOTH",
"264 467 OFFCURVE",
"269 465 OFFCURVE",
"269 462 CURVE SMOOTH",
"269 457 OFFCURVE",
"250 440 OFFCURVE",
"213 413 CURVE",
"213 410 LINE",
"219 410 OFFCURVE",
"233 416 OFFCURVE",
"255 429 CURVE SMOOTH",
"278 442 OFFCURVE",
"289 452 OFFCURVE",
"289 460 CURVE SMOOTH",
"289 466 OFFCURVE",
"286 473 OFFCURVE",
"279 480 CURVE SMOOTH",
"262 497 LINE",
"260 498 OFFCURVE",
"253 498 OFFCURVE",
"246 498 CURVE SMOOTH",
"238 498 OFFCURVE",
"231 498 OFFCURVE",
"226 496 CURVE",
"236 521 OFFCURVE",
"240 541 OFFCURVE",
"240 555 CURVE SMOOTH",
"240 568 OFFCURVE",
"236 575 OFFCURVE",
"230 575 CURVE",
"229 573 LINE",
"230 564 LINE SMOOTH",
"232 546 OFFCURVE",
"216 522 OFFCURVE",
"189 488 CURVE",
"92 463 OFFCURVE",
"44 426 OFFCURVE",
"44 377 CURVE SMOOTH",
"44 349 OFFCURVE",
"62 318 OFFCURVE",
"98 280 CURVE SMOOTH",
"133 244 OFFCURVE",
"152 220 OFFCURVE",
"152 214 CURVE SMOOTH",
"152 190 OFFCURVE",
"101 172 OFFCURVE",
"54 172 CURVE SMOOTH",
"32 172 OFFCURVE",
"11 176 OFFCURVE",
"-3 185 CURVE",
"-4 181 LINE",
"9 162 OFFCURVE",
"28 150 OFFCURVE",
"55 144 CURVE",
"55 143 LINE",
"39 113 OFFCURVE",
"33 88 OFFCURVE",
"33 71 CURVE SMOOTH",
"33 58 OFFCURVE",
"37 50 OFFCURVE",
"43 50 CURVE"
);
}
);
width = 318;
}
);
note = dollar;
unicode = 0024;
},
{
glyphname = percent;
lastChange = "2021-04-15 17:47:42 +0000";
layers = (
{
background = {
paths = (
{
closed = 1;
nodes = (
"112 -84 OFFCURVE",
"118 -80 OFFCURVE",
"118 -72 CURVE",
"111 -66 OFFCURVE",
"107 -59 OFFCURVE",
"107 -52 CURVE SMOOTH",
"107 -15 OFFCURVE",
"169 76 OFFCURVE",
"293 220 CURVE SMOOTH",
"523 486 LINE",
"528 490 OFFCURVE",
"531 494 OFFCURVE",
"531 498 CURVE SMOOTH",
"531 504 OFFCURVE",
"526 511 OFFCURVE",
"513 521 CURVE SMOOTH",
"498 533 OFFCURVE",
"492 535 OFFCURVE",
"489 535 CURVE SMOOTH",
"487 535 OFFCURVE",
"486 534 OFFCURVE",
"486 534 CURVE",
"405 495 OFFCURVE",
"338 476 OFFCURVE",
"287 476 CURVE SMOOTH",
"282 476 OFFCURVE",
"279 480 OFFCURVE",
"279 478 CURVE SMOOTH",
"281 488 OFFCURVE",
"282 497 OFFCURVE",
"282 505 CURVE SMOOTH",
"282 532 OFFCURVE",
"269 545 OFFCURVE",
"244 545 CURVE SMOOTH",
"217 545 OFFCURVE",
"181 517 OFFCURVE",
"137 461 CURVE SMOOTH",
"94 406 OFFCURVE",
"72 364 OFFCURVE",
"72 337 CURVE SMOOTH",
"72 310 OFFCURVE",
"90 284 OFFCURVE",
"111 284 CURVE SMOOTH",
"123 284 LINE SMOOTH",
"147 284 OFFCURVE",
"178 306 OFFCURVE",
"217 349 CURVE SMOOTH",
"256 392 OFFCURVE",
"276 426 OFFCURVE",
"276 449 CURVE SMOOTH",
"276 450 OFFCURVE",
"276 451 OFFCURVE",
"275 452 CURVE",
"325 453 OFFCURVE",
"386 470 OFFCURVE",
"457 504 CURVE",
"398 437 OFFCURVE",
"327 346 OFFCURVE",
"245 233 CURVE SMOOTH",
"136 82 OFFCURVE",
"82 -14 OFFCURVE",
"82 -56 CURVE SMOOTH",
"82 -75 OFFCURVE",
"88 -84 OFFCURVE",
"100 -84 CURVE SMOOTH"
);
},
{
closed = 1;
nodes = (
"264 -37 OFFCURVE",
"258 -28 OFFCURVE",
"258 -10 CURVE SMOOTH",
"258 8 OFFCURVE",
"273 38 OFFCURVE",
"304 79 CURVE SMOOTH",
"335 120 OFFCURVE",
"360 141 OFFCURVE",
"378 142 CURVE",
"387 126 OFFCURVE",
"397 114 OFFCURVE",
"408 107 CURVE",
"407 89 OFFCURVE",
"389 61 OFFCURVE",
"355 22 CURVE SMOOTH",
"321 -17 OFFCURVE",
"295 -37 OFFCURVE",
"276 -37 CURVE SMOOTH"
);
},
{
closed = 1;
nodes = (
"274 -59 LINE SMOOTH",
"297 -59 OFFCURVE",
"329 -37 OFFCURVE",
"368 7 CURVE SMOOTH",
"407 50 OFFCURVE",
"427 83 OFFCURVE",
"427 106 CURVE SMOOTH",
"427 107 OFFCURVE",
"427 108 OFFCURVE",
"426 109 CURVE",
"437 114 OFFCURVE",
"443 120 OFFCURVE",
"443 126 CURVE SMOOTH",
"443 130 OFFCURVE",
"429 132 OFFCURVE",
"429 135 CURVE",
"432 143 OFFCURVE",
"433 152 OFFCURVE",
"433 161 CURVE SMOOTH",
"433 188 OFFCURVE",
"420 202 OFFCURVE",
"395 202 CURVE SMOOTH",
"368 202 OFFCURVE",
"333 174 OFFCURVE",
"289 118 CURVE SMOOTH",
"245 63 OFFCURVE",
"223 21 OFFCURVE",
"223 -7 CURVE SMOOTH",
"223 -32 OFFCURVE",
"241 -59 OFFCURVE",
"262 -59 CURVE SMOOTH"
);
},
{
closed = 1;
nodes = (
"113 308 OFFCURVE",
"107 317 OFFCURVE",
"107 334 CURVE SMOOTH",
"107 351 OFFCURVE",
"122 381 OFFCURVE",
"153 422 CURVE SMOOTH",
"184 463 OFFCURVE",
"208 485 OFFCURVE",
"227 486 CURVE",
"239 469 OFFCURVE",
"249 457 OFFCURVE",
"257 450 CURVE",
"256 431 OFFCURVE",
"238 403 OFFCURVE",
"204 365 CURVE SMOOTH",
"171 327 OFFCURVE",
"144 308 OFFCURVE",
"125 308 CURVE SMOOTH"
);
}
);
};
hints = (
{
horizontal = 1;
place = "{-89, 22}";
type = Stem;
},
{
horizontal = 1;
place = "{254, 24}";
type = Stem;
},
{
horizontal = 1;
place = "{422, 24}";
type = Stem;
},
{
place = "{82, 25}";
type = Stem;
},
{
place = "{223, 35}";
type = Stem;
},
{
place = "{408, 19}";
type = Stem;
},
{
place = "{486, 45}";
type = Stem;
},
{
horizontal = 1;
place = "{456, 59}";
type = Stem;
},
{
place = "{72, 35}";
type = Stem;
},
{
place = "{257, 19}";
type = Stem;
},
{
horizontal = 1;
place = "{-114, 12}";
type = Stem;
},
{
horizontal = 1;
place = "{112, 60}";
type = Stem;
}
);
layerId = "8B85D65B-9817-42FC-8CCD-19CD4C331E33";
paths = (
{
closed = 1;
nodes = (
"112 -84 OFFCURVE",
"118 -80 OFFCURVE",
"118 -72 CURVE",
"111 -66 OFFCURVE",
"107 -59 OFFCURVE",
"107 -52 CURVE SMOOTH",
"107 -15 OFFCURVE",
"169 76 OFFCURVE",
"293 220 CURVE SMOOTH",
"523 486 LINE",
"528 490 OFFCURVE",
"531 494 OFFCURVE",
"531 498 CURVE SMOOTH",
"531 504 OFFCURVE",
"526 511 OFFCURVE",
"513 521 CURVE SMOOTH",
"498 533 OFFCURVE",
"492 535 OFFCURVE",
"489 535 CURVE SMOOTH",
"487 535 OFFCURVE",
"486 534 OFFCURVE",
"486 534 CURVE",
"405 495 OFFCURVE",
"338 476 OFFCURVE",
"287 476 CURVE SMOOTH",
"282 476 OFFCURVE",
"279 480 OFFCURVE",
"279 478 CURVE SMOOTH",
"281 488 OFFCURVE",
"282 497 OFFCURVE",
"282 505 CURVE SMOOTH",
"282 532 OFFCURVE",
"269 545 OFFCURVE",
"244 545 CURVE SMOOTH",
"217 545 OFFCURVE",
"181 517 OFFCURVE",
"137 461 CURVE SMOOTH",
"94 406 OFFCURVE",
"72 364 OFFCURVE",
"72 337 CURVE SMOOTH",
"72 310 OFFCURVE",
"90 284 OFFCURVE",
"111 284 CURVE SMOOTH",
"123 284 LINE SMOOTH",
"147 284 OFFCURVE",
"178 306 OFFCURVE",
"217 349 CURVE SMOOTH",
"256 392 OFFCURVE",
"276 426 OFFCURVE",
"276 449 CURVE SMOOTH",
"276 450 OFFCURVE",
"276 451 OFFCURVE",
"275 452 CURVE",
"325 453 OFFCURVE",
"386 470 OFFCURVE",
"457 504 CURVE",
"398 437 OFFCURVE",
"327 346 OFFCURVE",
"245 233 CURVE SMOOTH",
"136 82 OFFCURVE",
"82 -14 OFFCURVE",
"82 -56 CURVE SMOOTH",
"82 -75 OFFCURVE",
"88 -84 OFFCURVE",
"100 -84 CURVE SMOOTH"
);
},
{
closed = 1;
nodes = (
"264 -37 OFFCURVE",
"258 -28 OFFCURVE",
"258 -10 CURVE SMOOTH",
"258 8 OFFCURVE",
"273 38 OFFCURVE",
"304 79 CURVE SMOOTH",
"335 120 OFFCURVE",
"360 141 OFFCURVE",
"378 142 CURVE",
"387 126 OFFCURVE",
"397 114 OFFCURVE",
"408 107 CURVE",
"407 89 OFFCURVE",
"389 61 OFFCURVE",
"355 22 CURVE SMOOTH",
"321 -17 OFFCURVE",
"295 -37 OFFCURVE",
"276 -37 CURVE SMOOTH"
);
},
{
closed = 1;
nodes = (
"274 -59 LINE SMOOTH",
"297 -59 OFFCURVE",
"329 -37 OFFCURVE",
"368 7 CURVE SMOOTH",
"407 50 OFFCURVE",
"427 83 OFFCURVE",
"427 106 CURVE SMOOTH",
"427 107 OFFCURVE",
"427 108 OFFCURVE",
"426 109 CURVE",
"437 114 OFFCURVE",
"443 120 OFFCURVE",
"443 126 CURVE SMOOTH",
"443 130 OFFCURVE",
"429 132 OFFCURVE",
"429 135 CURVE",
"432 143 OFFCURVE",
"433 152 OFFCURVE",
"433 161 CURVE SMOOTH",
"433 188 OFFCURVE",
"420 202 OFFCURVE",
"395 202 CURVE SMOOTH",
"368 202 OFFCURVE",
"333 174 OFFCURVE",
"289 118 CURVE SMOOTH",
"245 63 OFFCURVE",
"223 21 OFFCURVE",
"223 -7 CURVE SMOOTH",
"223 -32 OFFCURVE",
"241 -59 OFFCURVE",
"262 -59 CURVE SMOOTH"
);
},
{
closed = 1;
nodes = (
"113 308 OFFCURVE",
"107 317 OFFCURVE",
"107 334 CURVE SMOOTH",
"107 351 OFFCURVE",
"122 381 OFFCURVE",
"153 422 CURVE SMOOTH",
"184 463 OFFCURVE",
"208 485 OFFCURVE",
"227 486 CURVE",
"239 469 OFFCURVE",
"249 457 OFFCURVE",
"257 450 CURVE",
"256 431 OFFCURVE",
"238 403 OFFCURVE",
"204 365 CURVE SMOOTH",
"171 327 OFFCURVE",
"144 308 OFFCURVE",
"125 308 CURVE SMOOTH"
);
}
);
width = 529;
}
);
note = percent;
unicode = 0025;
},
{
glyphname = ampersand;
lastChange = "2021-04-15 17:47:42 +0000";
layers = (
{
background = {
paths = (
{
closed = 1;
nodes = (
"237 -78 OFFCURVE",
"259 -70 OFFCURVE",
"259 -62 CURVE",
"258 -61 OFFCURVE",
"255 -65 OFFCURVE",
"228 -65 CURVE SMOOTH",
"201 -65 OFFCURVE",
"155 -36 OFFCURVE",
"131 -4 CURVE",
"135 -4 OFFCURVE",
"144 -6 OFFCURVE",
"157 -6 CURVE SMOOTH",
"212 -6 OFFCURVE",
"262 8 OFFCURVE",
"306 36 CURVE SMOOTH",
"350 64 OFFCURVE",
"372 98 OFFCURVE",
"372 137 CURVE SMOOTH",
"372 166 OFFCURVE",
"357 189 OFFCURVE",
"326 207 CURVE",
"403 244 LINE SMOOTH",
"448 266 OFFCURVE",
"470 289 OFFCURVE",
"470 312 CURVE SMOOTH",
"470 328 OFFCURVE",
"462 336 OFFCURVE",
"445 336 CURVE",
"441 335 OFFCURVE",
"439 333 OFFCURVE",
"439 330 CURVE SMOOTH",
"439 329 OFFCURVE",
"450 327 OFFCURVE",
"450 323 CURVE SMOOTH",
"450 316 OFFCURVE",
"431 298 OFFCURVE",
"393 269 CURVE SMOOTH",
"355 240 OFFCURVE",
"324 223 OFFCURVE",
"301 217 CURVE",
"288 218 OFFCURVE",
"278 219 OFFCURVE",
"272 219 CURVE SMOOTH",
"200 219 OFFCURVE",
"150 184 OFFCURVE",
"150 155 CURVE SMOOTH",
"150 150 OFFCURVE",
"151 147 OFFCURVE",
"152 146 CURVE",
"155 158 OFFCURVE",
"169 171 OFFCURVE",
"193 184 CURVE SMOOTH",
"217 198 OFFCURVE",
"239 205 OFFCURVE",
"259 205 CURVE SMOOTH",
"266 205 OFFCURVE",
"270 204 OFFCURVE",
"271 201 CURVE",
"237 182 LINE",
"201 161 LINE SMOOTH",
"172 144 OFFCURVE",
"187 153 OFFCURVE",
"171 143 CURVE SMOOTH",
"154 132 OFFCURVE",
"146 126 OFFCURVE",
"141 121 CURVE SMOOTH",
"130 110 OFFCURVE",
"111 89 OFFCURVE",
"105 73 CURVE SMOOTH",
"103 66 OFFCURVE",
"101 54 OFFCURVE",
"101 46 CURVE SMOOTH",
"101 36 OFFCURVE",
"103 25 OFFCURVE",
"106 15 CURVE",
"67 30 OFFCURVE",
"47 56 OFFCURVE",
"47 95 CURVE SMOOTH",
"47 134 OFFCURVE",
"72 172 OFFCURVE",
"122 209 CURVE SMOOTH",
"173 246 OFFCURVE",
"224 264 OFFCURVE",
"276 264 CURVE SMOOTH",
"289 264 LINE",
"302 264 LINE",
"315 262 LINE SMOOTH",
"318 262 OFFCURVE",
"320 265 OFFCURVE",
"320 273 CURVE SMOOTH",
"320 285 OFFCURVE",
"309 291 OFFCURVE",
"288 291 CURVE",
"213 283 LINE",
"197 283 OFFCURVE",
"189 287 OFFCURVE",
"189 296 CURVE SMOOTH",
"189 308 OFFCURVE",
"218 345 OFFCURVE",
"282 378 CURVE SMOOTH",
"315 395 OFFCURVE",
"349 404 OFFCURVE",
"386 406 CURVE",
"364 377 OFFCURVE",
"355 352 OFFCURVE",
"355 334 CURVE SMOOTH",
"355 319 OFFCURVE",
"361 309 OFFCURVE",
"371 307 CURVE",
"371 312 OFFCURVE",
"373 319 OFFCURVE",
"376 328 CURVE",
"376 338 OFFCURVE",
"391 355 OFFCURVE",
"415 382 CURVE SMOOTH",
"434 403 OFFCURVE",
"462 429 OFFCURVE",
"475 449 CURVE",
"475 460 OFFCURVE",
"469 465 OFFCURVE",
"456 465 CURVE SMOOTH",
"444 465 OFFCURVE",
"423 448 OFFCURVE",
"392 414 CURVE",
"333 414 OFFCURVE",
"279 401 OFFCURVE",
"230 375 CURVE SMOOTH",
"182 350 OFFCURVE",
"158 325 OFFCURVE",
"158 302 CURVE SMOOTH",
"158 291 OFFCURVE",
"165 283 OFFCURVE",
"180 279 CURVE",
"208 275 LINE",
"153 264 OFFCURVE",
"107 242 OFFCURVE",
"71 210 CURVE SMOOTH",
"35 178 OFFCURVE",
"17 143 OFFCURVE",
"17 104 CURVE SMOOTH",
"17 52 OFFCURVE",
"48 7 OFFCURVE",
"113 0 CURVE",
"142 -52 OFFCURVE",
"178 -78 OFFCURVE",
"221 -78 CURVE SMOOTH"
);
},
{
closed = 1;
nodes = (
"137 9 OFFCURVE",
"128 10 OFFCURVE",
"121 12 CURVE",
"121 19 LINE SMOOTH",
"121 42 OFFCURVE",
"147 77 OFFCURVE",
"199 125 CURVE SMOOTH",
"251 174 OFFCURVE",
"286 198 OFFCURVE",
"303 198 CURVE SMOOTH",
"322 198 OFFCURVE",
"346 175 OFFCURVE",
"346 156 CURVE SMOOTH",
"346 121 OFFCURVE",
"324 87 OFFCURVE",
"280 56 CURVE SMOOTH",
"237 25 OFFCURVE",
"192 9 OFFCURVE",
"147 9 CURVE SMOOTH"
);
}
);
};
hints = (
{
horizontal = 1;
place = "{-108, 13}";
type = Stem;
},
{
horizontal = 1;
place = "{-36, 15}";
type = Stem;
},
{
horizontal = 1;
place = "{175, 14}";
type = Stem;
},
{
horizontal = 1;
place = "{235, 26}";
type = Stem;
},
{
horizontal = 1;
place = "{376, 8}";
type = Stem;
},
{
place = "{17, 30}";
type = Stem;
},
{
place = "{101, 20}";
type = Stem;
},
{
place = "{158, 31}";
type = Stem;
},
{
place = "{355, 16}";
type = Stem;
},
{
place = "{450, 20}";
type = Stem;
},
{
place = "{346, 26}";
type = Stem;
}
);
layerId = "8B85D65B-9817-42FC-8CCD-19CD4C331E33";
paths = (
{
closed = 1;
nodes = (
"237 -78 OFFCURVE",
"259 -70 OFFCURVE",
"259 -62 CURVE",
"258 -61 OFFCURVE",
"255 -65 OFFCURVE",
"228 -65 CURVE SMOOTH",
"201 -65 OFFCURVE",
"155 -36 OFFCURVE",
"131 -4 CURVE",
"135 -4 OFFCURVE",
"144 -6 OFFCURVE",
"157 -6 CURVE SMOOTH",
"212 -6 OFFCURVE",
"262 8 OFFCURVE",
"306 36 CURVE SMOOTH",
"350 64 OFFCURVE",
"372 98 OFFCURVE",
"372 137 CURVE SMOOTH",
"372 166 OFFCURVE",
"357 189 OFFCURVE",
"326 207 CURVE",
"403 244 LINE SMOOTH",
"448 266 OFFCURVE",
"470 289 OFFCURVE",
"470 312 CURVE SMOOTH",
"470 328 OFFCURVE",
"462 336 OFFCURVE",
"445 336 CURVE",
"441 335 OFFCURVE",
"439 333 OFFCURVE",
"439 330 CURVE SMOOTH",
"439 329 OFFCURVE",
"450 327 OFFCURVE",
"450 323 CURVE SMOOTH",
"450 316 OFFCURVE",
"431 298 OFFCURVE",
"393 269 CURVE SMOOTH",
"355 240 OFFCURVE",
"324 223 OFFCURVE",
"301 217 CURVE",
"288 218 OFFCURVE",
"278 219 OFFCURVE",
"272 219 CURVE SMOOTH",
"200 219 OFFCURVE",
"150 184 OFFCURVE",
"150 155 CURVE SMOOTH",
"150 150 OFFCURVE",
"151 147 OFFCURVE",
"152 146 CURVE",
"155 158 OFFCURVE",
"169 171 OFFCURVE",
"193 184 CURVE SMOOTH",
"217 198 OFFCURVE",
"239 205 OFFCURVE",
"259 205 CURVE SMOOTH",
"266 205 OFFCURVE",
"270 204 OFFCURVE",
"271 201 CURVE",
"237 182 LINE",
"201 161 LINE SMOOTH",
"172 144 OFFCURVE",
"187 153 OFFCURVE",
"171 143 CURVE SMOOTH",
"154 132 OFFCURVE",
"146 126 OFFCURVE",
"141 121 CURVE SMOOTH",
"130 110 OFFCURVE",
"111 89 OFFCURVE",
"105 73 CURVE SMOOTH",
"103 66 OFFCURVE",
"101 54 OFFCURVE",
"101 46 CURVE SMOOTH",
"101 36 OFFCURVE",
"103 25 OFFCURVE",
"106 15 CURVE",
"67 30 OFFCURVE",
"47 56 OFFCURVE",
"47 95 CURVE SMOOTH",
"47 134 OFFCURVE",
"72 172 OFFCURVE",
"122 209 CURVE SMOOTH",
"173 246 OFFCURVE",
"224 264 OFFCURVE",
"276 264 CURVE SMOOTH",
"289 264 LINE",
"302 264 LINE",
"315 262 LINE SMOOTH",
"318 262 OFFCURVE",
"320 265 OFFCURVE",
"320 273 CURVE SMOOTH",
"320 285 OFFCURVE",
"309 291 OFFCURVE",
"288 291 CURVE",
"213 283 LINE",
"197 283 OFFCURVE",
"189 287 OFFCURVE",
"189 296 CURVE SMOOTH",
"189 308 OFFCURVE",
"218 345 OFFCURVE",
"282 378 CURVE SMOOTH",
"315 395 OFFCURVE",
"349 404 OFFCURVE",
"386 406 CURVE",
"364 377 OFFCURVE",
"355 352 OFFCURVE",
"355 334 CURVE SMOOTH",
"355 319 OFFCURVE",
"361 309 OFFCURVE",
"371 307 CURVE",
"371 312 OFFCURVE",
"373 319 OFFCURVE",
"376 328 CURVE",
"376 338 OFFCURVE",
"391 355 OFFCURVE",
"415 382 CURVE SMOOTH",
"434 403 OFFCURVE",
"462 429 OFFCURVE",
"475 449 CURVE",
"475 460 OFFCURVE",
"469 465 OFFCURVE",
"456 465 CURVE SMOOTH",
"444 465 OFFCURVE",
"423 448 OFFCURVE",
"392 414 CURVE",
"333 414 OFFCURVE",
"279 401 OFFCURVE",
"230 375 CURVE SMOOTH",
"182 350 OFFCURVE",
"158 325 OFFCURVE",
"158 302 CURVE SMOOTH",
"158 291 OFFCURVE",
"165 283 OFFCURVE",
"180 279 CURVE",
"208 275 LINE",
"153 264 OFFCURVE",
"107 242 OFFCURVE",
"71 210 CURVE SMOOTH",
"35 178 OFFCURVE",
"17 143 OFFCURVE",
"17 104 CURVE SMOOTH",
"17 52 OFFCURVE",
"48 7 OFFCURVE",
"113 0 CURVE",
"142 -52 OFFCURVE",
"178 -78 OFFCURVE",
"221 -78 CURVE SMOOTH"
);
},
{
closed = 1;
nodes = (
"137 9 OFFCURVE",
"128 10 OFFCURVE",
"121 12 CURVE",
"121 19 LINE SMOOTH",
"121 42 OFFCURVE",
"147 77 OFFCURVE",
"199 125 CURVE SMOOTH",
"251 174 OFFCURVE",
"286 198 OFFCURVE",
"303 198 CURVE SMOOTH",
"322 198 OFFCURVE",
"346 175 OFFCURVE",
"346 156 CURVE SMOOTH",
"346 121 OFFCURVE",
"324 87 OFFCURVE",
"280 56 CURVE SMOOTH",
"237 25 OFFCURVE",
"192 9 OFFCURVE",
"147 9 CURVE SMOOTH"
);
}
);
width = 445;
}
);
note = ampersand;
unicode = 0026;
},
{
glyphname = quotesingle;
lastChange = "2021-04-18 13:12:16 +0000";
layers = (
{
background = {
paths = (
{
closed = 1;
nodes = (
"122 348 OFFCURVE",
"147 389 OFFCURVE",
"162 419 CURVE SMOOTH",
"163 422 OFFCURVE",
"164 425 OFFCURVE",
"164 428 CURVE SMOOTH",
"164 436 OFFCURVE",
"157 444 OFFCURVE",
"146 448 CURVE SMOOTH",
"139 451 OFFCURVE",
"127 452 OFFCURVE",
"120 452 CURVE SMOOTH",
"109 452 OFFCURVE",
"106 448 OFFCURVE",
"106 445 CURVE SMOOTH",
"106 442 OFFCURVE",
"109 439 OFFCURVE",
"111 437 CURVE SMOOTH",
"117 432 OFFCURVE",
"120 425 OFFCURVE",
"120 415 CURVE SMOOTH",
"120 396 OFFCURVE",
"109 372 OFFCURVE",
"104 361 CURVE SMOOTH",
"99 351 OFFCURVE",
"90 341 OFFCURVE",
"83 330 CURVE",
"83 327 OFFCURVE",
"82 320 OFFCURVE",
"86 320 CURVE SMOOTH",
"88 320 OFFCURVE",
"90 321 OFFCURVE",
"95 325 CURVE SMOOTH"
);
}
);
};
hints = (
{
horizontal = 1;
place = "{290, 132}";
type = Stem;
},
{
place = "{83, 81}";
type = Stem;
}
);
layerId = "8B85D65B-9817-42FC-8CCD-19CD4C331E33";
paths = (
{
closed = 1;
nodes = (
"88 320 OFFCURVE",
"90 321 OFFCURVE",
"95 325 CURVE SMOOTH",
"122 348 OFFCURVE",
"147 389 OFFCURVE",
"162 419 CURVE SMOOTH",
"163 422 OFFCURVE",
"164 425 OFFCURVE",
"164 428 CURVE SMOOTH",
"164 436 OFFCURVE",
"157 444 OFFCURVE",
"146 448 CURVE SMOOTH",
"139 451 OFFCURVE",
"127 452 OFFCURVE",
"120 452 CURVE SMOOTH",
"109 452 OFFCURVE",
"106 448 OFFCURVE",
"106 445 CURVE SMOOTH",
"106 442 OFFCURVE",
"109 439 OFFCURVE",
"111 437 CURVE SMOOTH",
"117 432 OFFCURVE",
"120 425 OFFCURVE",
"120 415 CURVE SMOOTH",
"120 396 OFFCURVE",
"109 372 OFFCURVE",
"104 361 CURVE SMOOTH",
"99 351 OFFCURVE",
"90 341 OFFCURVE",
"83 330 CURVE",
"83 327 OFFCURVE",
"82 320 OFFCURVE",
"86 320 CURVE SMOOTH"
);
}
);
width = 149;
}
);
note = quotesingle;
unicode = 0027;
},
{
glyphname = parenleft;
lastChange = "2021-04-15 17:47:42 +0000";
layers = (
{
background = {
paths = (
{
closed = 1;
nodes = (
"152 -22 LINE SMOOTH",
"163 -23 OFFCURVE",
"169 -19 OFFCURVE",
"169 -12 CURVE SMOOTH",
"169 -9 OFFCURVE",
"161 -6 OFFCURVE",
"145 -2 CURVE SMOOTH",
"129 2 OFFCURVE",
"118 4 OFFCURVE",
"113 4 CURVE",
"64 22 OFFCURVE",
"40 63 OFFCURVE",
"40 126 CURVE SMOOTH",
"40 173 OFFCURVE",
"54 225 OFFCURVE",
"83 280 CURVE SMOOTH",
"112 336 OFFCURVE",
"153 388 OFFCURVE",
"204 436 CURVE SMOOTH",
"255 484 OFFCURVE",
"310 518 OFFCURVE",
"369 539 CURVE",
"426 551 LINE SMOOTH",
"461 558 OFFCURVE",
"478 563 OFFCURVE",
"478 567 CURVE SMOOTH",
"478 572 OFFCURVE",
"473 575 OFFCURVE",
"463 575 CURVE SMOOTH",
"415 575 OFFCURVE",
"361 561 OFFCURVE",
"300 532 CURVE SMOOTH",
"238 502 OFFCURVE",
"184 466 OFFCURVE",
"133 421 CURVE SMOOTH",
"83 376 OFFCURVE",
"48 332 OFFCURVE",
"27 287 CURVE SMOOTH",
"7 245 OFFCURVE",
"-4 200 OFFCURVE",
"-4 158 CURVE SMOOTH",
"-4 112 OFFCURVE",
"9 69 OFFCURVE",
"38 33 CURVE SMOOTH",
"67 -2 OFFCURVE",
"102 -22 OFFCURVE",
"144 -22 CURVE SMOOTH"
);
}
);
};
hints = (
{
horizontal = 1;
place = "{-53, 27}";
type = Stem;
},
{
place = "{-4, 44}";
type = Stem;
}
);
layerId = "8B85D65B-9817-42FC-8CCD-19CD4C331E33";
paths = (
{
closed = 1;
nodes = (
"152 -22 LINE SMOOTH",
"163 -23 OFFCURVE",
"169 -19 OFFCURVE",
"169 -12 CURVE SMOOTH",
"169 -9 OFFCURVE",
"161 -6 OFFCURVE",
"145 -2 CURVE SMOOTH",
"129 2 OFFCURVE",
"118 4 OFFCURVE",
"113 4 CURVE",
"64 22 OFFCURVE",
"40 63 OFFCURVE",
"40 126 CURVE SMOOTH",
"40 173 OFFCURVE",
"54 225 OFFCURVE",
"83 280 CURVE SMOOTH",
"112 336 OFFCURVE",
"153 388 OFFCURVE",
"204 436 CURVE SMOOTH",
"255 484 OFFCURVE",
"310 518 OFFCURVE",
"369 539 CURVE",
"426 551 LINE SMOOTH",
"461 558 OFFCURVE",
"478 563 OFFCURVE",
"478 567 CURVE SMOOTH",
"478 572 OFFCURVE",
"473 575 OFFCURVE",
"463 575 CURVE SMOOTH",
"415 575 OFFCURVE",
"361 561 OFFCURVE",
"300 532 CURVE SMOOTH",
"238 502 OFFCURVE",
"184 466 OFFCURVE",
"133 421 CURVE SMOOTH",
"83 376 OFFCURVE",
"48 332 OFFCURVE",
"27 287 CURVE SMOOTH",
"7 245 OFFCURVE",
"-4 200 OFFCURVE",
"-4 158 CURVE SMOOTH",
"-4 112 OFFCURVE",
"9 69 OFFCURVE",
"38 33 CURVE SMOOTH",
"67 -2 OFFCURVE",
"102 -22 OFFCURVE",
"144 -22 CURVE SMOOTH"
);
}
);
width = 282;
}
);
note = parenleft;
unicode = 0028;
},
{
glyphname = parenright;
lastChange = "2021-04-15 17:47:42 +0000";
layers = (
{
background = {
paths = (
{
closed = 1;
nodes = (
"95 -24 OFFCURVE",
"178 7 OFFCURVE",
"271 69 CURVE SMOOTH",
"364 131 OFFCURVE",
"427 197 OFFCURVE",
"458 266 CURVE SMOOTH",
"478 312 OFFCURVE",
"489 357 OFFCURVE",
"489 398 CURVE SMOOTH",
"489 442 OFFCURVE",
"476 483 OFFCURVE",
"447 519 CURVE SMOOTH",
"419 554 OFFCURVE",
"384 574 OFFCURVE",
"341 575 CURVE SMOOTH",
"337 575 LINE SMOOTH",
"324 575 OFFCURVE",
"317 572 OFFCURVE",
"317 565 CURVE SMOOTH",
"317 560 OFFCURVE",
"330 556 OFFCURVE",
"355 552 CURVE SMOOTH",
"364 551 OFFCURVE",
"371 549 OFFCURVE",
"372 548 CURVE",
"422 529 OFFCURVE",
"447 490 OFFCURVE",
"447 429 CURVE SMOOTH",
"447 369 OFFCURVE",
"428 307 OFFCURVE",
"389 243 CURVE SMOOTH",
"350 180 OFFCURVE",
"298 124 OFFCURVE",
"232 77 CURVE SMOOTH",
"167 30 OFFCURVE",
"97 3 OFFCURVE",
"26 -6 CURVE SMOOTH",
"13 -8 OFFCURVE",
"6 -11 OFFCURVE",
"6 -14 CURVE SMOOTH",
"6 -21 OFFCURVE",
"11 -24 OFFCURVE",
"22 -24 CURVE SMOOTH"
);
}
);
};
hints = (
{
horizontal = 1;
place = "{-54, 599}";
type = Stem;
},
{
place = "{447, 42}";
type = Stem;
}
);
layerId = "8B85D65B-9817-42FC-8CCD-19CD4C331E33";
paths = (
{
closed = 1;
nodes = (
"95 -24 OFFCURVE",
"178 7 OFFCURVE",
"271 69 CURVE SMOOTH",
"364 131 OFFCURVE",
"427 197 OFFCURVE",
"458 266 CURVE SMOOTH",
"478 312 OFFCURVE",
"489 357 OFFCURVE",
"489 398 CURVE SMOOTH",
"489 442 OFFCURVE",
"476 483 OFFCURVE",
"447 519 CURVE SMOOTH",
"419 554 OFFCURVE",
"384 574 OFFCURVE",
"341 575 CURVE SMOOTH",
"337 575 LINE SMOOTH",
"324 575 OFFCURVE",
"317 572 OFFCURVE",
"317 565 CURVE SMOOTH",
"317 560 OFFCURVE",
"330 556 OFFCURVE",
"355 552 CURVE SMOOTH",
"364 551 OFFCURVE",
"371 549 OFFCURVE",
"372 548 CURVE",
"422 529 OFFCURVE",
"447 490 OFFCURVE",
"447 429 CURVE SMOOTH",
"447 369 OFFCURVE",
"428 307 OFFCURVE",
"389 243 CURVE SMOOTH",
"350 180 OFFCURVE",
"298 124 OFFCURVE",
"232 77 CURVE SMOOTH",
"167 30 OFFCURVE",
"97 3 OFFCURVE",
"26 -6 CURVE SMOOTH",
"13 -8 OFFCURVE",
"6 -11 OFFCURVE",
"6 -14 CURVE SMOOTH",
"6 -21 OFFCURVE",
"11 -24 OFFCURVE",
"22 -24 CURVE SMOOTH"
);
}
);
width = 490;
}
);
note = parenright;
unicode = 0029;
},
{
glyphname = asterisk;
lastChange = "2021-04-15 17:47:42 +0000";
layers = (
{
background = {
paths = (
{
closed = 1;
nodes = (
"125 168 OFFCURVE",
"134 193 OFFCURVE",
"144 242 CURVE",
"182 199 OFFCURVE",
"202 180 OFFCURVE",
"207 180 CURVE SMOOTH",
"212 180 OFFCURVE",
"217 184 OFFCURVE",
"217 188 CURVE SMOOTH",
"217 191 OFFCURVE",
"217 190 OFFCURVE",
"216 192 CURVE SMOOTH",
"214 197 OFFCURVE",
"194 219 OFFCURVE",
"161 261 CURVE",
"216 263 OFFCURVE",
"245 264 OFFCURVE",
"245 272 CURVE SMOOTH",
"245 275 OFFCURVE",
"239 277 OFFCURVE",
"227 277 CURVE SMOOTH",
"167 277 LINE",
"204 303 OFFCURVE",
"229 320 OFFCURVE",
"229 329 CURVE SMOOTH",
"229 339 OFFCURVE",
"230 342 OFFCURVE",
"218 342 CURVE SMOOTH",
"215 342 OFFCURVE",
"193 319 OFFCURVE",
"152 290 CURVE",
"159 327 OFFCURVE",
"162 350 OFFCURVE",
"162 359 CURVE SMOOTH",
"162 369 OFFCURVE",
"160 374 OFFCURVE",
"155 374 CURVE SMOOTH",
"152 374 OFFCURVE",
"149 366 OFFCURVE",
"145 349 CURVE SMOOTH",
"132 293 LINE",
"93 341 LINE SMOOTH",
"87 348 OFFCURVE",
"83 351 OFFCURVE",
"78 351 CURVE SMOOTH",
"75 351 OFFCURVE",
"73 348 OFFCURVE",
"73 341 CURVE SMOOTH",
"73 335 OFFCURVE",
"86 314 OFFCURVE",
"113 279 CURVE",
"47 277 LINE SMOOTH",
"35 277 OFFCURVE",
"29 272 OFFCURVE",
"29 267 CURVE SMOOTH",
"29 261 OFFCURVE",
"55 258 OFFCURVE",
"108 258 CURVE",
"61 220 LINE SMOOTH",
"55 215 OFFCURVE",
"49 212 OFFCURVE",
"49 207 CURVE SMOOTH",
"49 204 OFFCURVE",
"51 203 OFFCURVE",
"56 203 CURVE SMOOTH",
"61 203 OFFCURVE",
"82 219 OFFCURVE",
"119 246 CURVE",
"112 209 OFFCURVE",
"109 187 OFFCURVE",
"109 183 CURVE SMOOTH",
"109 173 OFFCURVE",
"111 168 OFFCURVE",
"116 168 CURVE SMOOTH"
);
}
);
};
hints = (
{
horizontal = 1;
place = "{231, 16}";
type = Stem;
},
{
horizontal = 1;
place = "{312, -20}";
target = down;
type = TopGhost;
},
{
place = "{29, 216}";
type = Stem;
},
{
horizontal = 1;
place = "{228, 20}";
type = Stem;
}
);
layerId = "8B85D65B-9817-42FC-8CCD-19CD4C331E33";
paths = (
{
closed = 1;
nodes = (
"125 168 OFFCURVE",
"134 193 OFFCURVE",
"144 242 CURVE",
"182 199 OFFCURVE",
"202 180 OFFCURVE",
"207 180 CURVE SMOOTH",
"212 180 OFFCURVE",
"217 184 OFFCURVE",
"217 188 CURVE SMOOTH",
"217 191 OFFCURVE",
"217 190 OFFCURVE",
"216 192 CURVE SMOOTH",
"214 197 OFFCURVE",
"194 219 OFFCURVE",
"161 261 CURVE",
"216 263 OFFCURVE",
"245 264 OFFCURVE",
"245 272 CURVE SMOOTH",
"245 275 OFFCURVE",
"239 277 OFFCURVE",
"227 277 CURVE SMOOTH",
"167 277 LINE",
"204 303 OFFCURVE",
"229 320 OFFCURVE",
"229 329 CURVE SMOOTH",
"229 339 OFFCURVE",
"230 342 OFFCURVE",
"218 342 CURVE SMOOTH",
"215 342 OFFCURVE",
"193 319 OFFCURVE",
"152 290 CURVE",
"159 327 OFFCURVE",
"162 350 OFFCURVE",
"162 359 CURVE SMOOTH",
"162 369 OFFCURVE",
"160 374 OFFCURVE",
"155 374 CURVE SMOOTH",
"152 374 OFFCURVE",
"149 366 OFFCURVE",
"145 349 CURVE SMOOTH",
"132 293 LINE",
"93 341 LINE SMOOTH",
"87 348 OFFCURVE",
"83 351 OFFCURVE",
"78 351 CURVE SMOOTH",
"75 351 OFFCURVE",
"73 348 OFFCURVE",
"73 341 CURVE SMOOTH",
"73 335 OFFCURVE",
"86 314 OFFCURVE",
"113 279 CURVE",
"47 277 LINE SMOOTH",
"35 277 OFFCURVE",
"29 272 OFFCURVE",
"29 267 CURVE SMOOTH",
"29 261 OFFCURVE",
"55 258 OFFCURVE",
"108 258 CURVE",
"61 220 LINE SMOOTH",
"55 215 OFFCURVE",
"49 212 OFFCURVE",
"49 207 CURVE SMOOTH",
"49 204 OFFCURVE",
"51 203 OFFCURVE",
"56 203 CURVE SMOOTH",
"61 203 OFFCURVE",
"82 219 OFFCURVE",
"119 246 CURVE",
"112 209 OFFCURVE",
"109 187 OFFCURVE",
"109 183 CURVE SMOOTH",
"109 173 OFFCURVE",
"111 168 OFFCURVE",
"116 168 CURVE SMOOTH"
);
}
);
width = 265;
}
);
note = asterisk;
unicode = 002A;
},
{
glyphname = plus;
lastChange = "2021-04-15 17:47:42 +0000";
layers = (
{
background = {
paths = (
{
closed = 1;
nodes = (
"132 53 OFFCURVE",
"148 91 OFFCURVE",
"168 166 CURVE",
"241 176 LINE",
"280 184 OFFCURVE",
"300 191 OFFCURVE",
"300 198 CURVE SMOOTH",
"300 199 OFFCURVE",
"300 200 OFFCURVE",
"299 201 CURVE",
"279 200 OFFCURVE",
"255 199 OFFCURVE",
"228 199 CURVE SMOOTH",
"174 199 LINE",
"181 255 OFFCURVE",
"185 291 OFFCURVE",
"185 308 CURVE SMOOTH",
"185 325 OFFCURVE",
"182 333 OFFCURVE",
"177 333 CURVE",
"152 244 OFFCURVE",
"139 200 OFFCURVE",
"139 199 CURVE",
"50 199 LINE SMOOTH",
"25 199 OFFCURVE",
"14 196 OFFCURVE",
"14 180 CURVE SMOOTH",
"14 168 OFFCURVE",
"52 162 OFFCURVE",
"128 162 CURVE",
"113 105 OFFCURVE",
"105 75 OFFCURVE",
"105 73 CURVE SMOOTH",
"105 60 OFFCURVE",
"110 53 OFFCURVE",
"119 53 CURVE SMOOTH"
);
}
);
};
hints = (
{
horizontal = 1;
place = "{132, 37}";
type = Stem;
},
{
place = "{177, 8}";
type = Stem;
}
);
layerId = "8B85D65B-9817-42FC-8CCD-19CD4C331E33";
paths = (
{
closed = 1;
nodes = (
"132 53 OFFCURVE",
"148 91 OFFCURVE",
"168 166 CURVE",
"241 176 LINE",
"280 184 OFFCURVE",
"300 191 OFFCURVE",
"300 198 CURVE SMOOTH",
"300 199 OFFCURVE",
"300 200 OFFCURVE",
"299 201 CURVE",
"279 200 OFFCURVE",
"255 199 OFFCURVE",
"228 199 CURVE SMOOTH",
"174 199 LINE",
"181 255 OFFCURVE",
"185 291 OFFCURVE",
"185 308 CURVE SMOOTH",
"185 325 OFFCURVE",
"182 333 OFFCURVE",
"177 333 CURVE",
"152 244 OFFCURVE",
"139 200 OFFCURVE",
"139 199 CURVE",
"50 199 LINE SMOOTH",
"25 199 OFFCURVE",
"14 196 OFFCURVE",
"14 180 CURVE SMOOTH",
"14 168 OFFCURVE",
"52 162 OFFCURVE",
"128 162 CURVE",
"113 105 OFFCURVE",
"105 75 OFFCURVE",
"105 73 CURVE SMOOTH",
"105 60 OFFCURVE",
"110 53 OFFCURVE",
"119 53 CURVE SMOOTH"
);
}
);
width = 306;
}
);
note = plus;
unicode = 002B;
},
{
glyphname = comma;
lastChange = "2021-04-15 17:47:42 +0000";
layers = (
{
background = {
paths = (
{
closed = 1;
nodes = (
"82 -57 OFFCURVE",
"96 -47 OFFCURVE",
"108 -28 CURVE SMOOTH",
"120 -9 OFFCURVE",
"126 7 OFFCURVE",
"126 18 CURVE SMOOTH",
"126 41 OFFCURVE",
"111 50 OFFCURVE",
"95 50 CURVE SMOOTH",
"80 50 OFFCURVE",
"73 43 OFFCURVE",
"73 28 CURVE SMOOTH",
"73 23 OFFCURVE",
"93 8 OFFCURVE",
"93 -3 CURVE",
"90 -17 OFFCURVE",
"80 -34 OFFCURVE",
"61 -55 CURVE",
"61 -56 OFFCURVE",
"62 -57 OFFCURVE",
"65 -57 CURVE SMOOTH"
);
}
);
};
hints = (
{
horizontal = 1;
place = "{-87, 107}";
type = Stem;
},
{
place = "{93, 33}";
type = Stem;
}
);
layerId = "8B85D65B-9817-42FC-8CCD-19CD4C331E33";
paths = (
{
closed = 1;
nodes = (
"82 -57 OFFCURVE",
"96 -47 OFFCURVE",
"108 -28 CURVE SMOOTH",
"120 -9 OFFCURVE",
"126 7 OFFCURVE",
"126 18 CURVE SMOOTH",
"126 41 OFFCURVE",
"111 50 OFFCURVE",
"95 50 CURVE SMOOTH",
"80 50 OFFCURVE",
"73 43 OFFCURVE",
"73 28 CURVE SMOOTH",
"73 23 OFFCURVE",
"93 8 OFFCURVE",
"93 -3 CURVE",
"90 -17 OFFCURVE",
"80 -34 OFFCURVE",
"61 -55 CURVE",
"61 -56 OFFCURVE",
"62 -57 OFFCURVE",
"65 -57 CURVE SMOOTH"
);
}
);
width = 147;
}
);
note = comma;
unicode = 002C;
},
{
glyphname = hyphen;
lastChange = "2021-04-15 17:47:42 +0000";
layers = (
{
background = {
paths = (
{
closed = 1;
nodes = (
"63 162 OFFCURVE",
"94 166 OFFCURVE",
"152 175 CURVE SMOOTH",
"194 182 OFFCURVE",
"215 189 OFFCURVE",
"215 198 CURVE SMOOTH",
"215 201 LINE",
"195 200 OFFCURVE",
"176 199 OFFCURVE",
"159 199 CURVE SMOOTH",
"128 199 LINE",
"80 198 LINE",
"33 198 LINE SMOOTH",
"20 198 OFFCURVE",
"14 192 OFFCURVE",
"14 180 CURVE SMOOTH",
"14 168 OFFCURVE",
"29 162 OFFCURVE",
"59 162 CURVE SMOOTH"
);
}
);
};
hints = (
{
horizontal = 1;
place = "{132, 36}";
type = Stem;
},
{
place = "{14, 201}";
type = Stem;
}
);
layerId = "8B85D65B-9817-42FC-8CCD-19CD4C331E33";
paths = (
{
closed = 1;
nodes = (
"63 162 OFFCURVE",
"94 166 OFFCURVE",
"152 175 CURVE SMOOTH",
"194 182 OFFCURVE",
"215 189 OFFCURVE",
"215 198 CURVE SMOOTH",
"215 201 LINE",
"195 200 OFFCURVE",
"176 199 OFFCURVE",
"159 199 CURVE SMOOTH",
"128 199 LINE",
"80 198 LINE",
"33 198 LINE SMOOTH",
"20 198 OFFCURVE",
"14 192 OFFCURVE",
"14 180 CURVE SMOOTH",
"14 168 OFFCURVE",
"29 162 OFFCURVE",
"59 162 CURVE SMOOTH"
);
}
);
width = 224;
}
);
note = hyphen;
unicode = 002D;
},
{
glyphname = period;
lastChange = "2021-04-15 17:47:42 +0000";
layers = (
{
background = {
paths = (
{
closed = 1;
nodes = (
"90 -3 OFFCURVE",
"126 13 OFFCURVE",
"126 26 CURVE SMOOTH",
"126 38 OFFCURVE",
"118 55 OFFCURVE",
"102 55 CURVE SMOOTH",
"83 55 OFFCURVE",
"66 43 OFFCURVE",
"66 29 CURVE SMOOTH",
"66 21 OFFCURVE",
"64 13 OFFCURVE",
"64 8 CURVE SMOOTH",
"64 1 OFFCURVE",
"67 -3 OFFCURVE",
"78 -3 CURVE SMOOTH"
);
}
);
};
hints = (
{
horizontal = 1;
place = "{-33, 58}";
type = Stem;
},
{
place = "{66, 60}";
type = Stem;
}
);
layerId = "8B85D65B-9817-42FC-8CCD-19CD4C331E33";
paths = (
{
closed = 1;
nodes = (
"90 -3 OFFCURVE",
"126 13 OFFCURVE",
"126 26 CURVE SMOOTH",
"126 38 OFFCURVE",
"118 55 OFFCURVE",
"102 55 CURVE SMOOTH",
"83 55 OFFCURVE",
"66 43 OFFCURVE",
"66 29 CURVE SMOOTH",
"66 21 OFFCURVE",
"64 13 OFFCURVE",
"64 8 CURVE SMOOTH",
"64 1 OFFCURVE",
"67 -3 OFFCURVE",
"78 -3 CURVE SMOOTH"
);
}
);
width = 170;
}
);
note = period;
unicode = 002E;
},
{
glyphname = slash;
lastChange = "2021-04-15 17:47:42 +0000";
layers = (
{
background = {
paths = (
{
closed = 1;
nodes = (
"49 -75 OFFCURVE",
"55 -71 OFFCURVE",
"55 -63 CURVE",
"48 -57 OFFCURVE",
"44 -51 OFFCURVE",
"44 -44 CURVE SMOOTH",
"44 -6 OFFCURVE",
"147 132 OFFCURVE",
"354 372 CURVE SMOOTH",
"461 496 LINE SMOOTH",
"466 502 OFFCURVE",
"468 507 OFFCURVE",
"468 510 CURVE SMOOTH",
"468 523 OFFCURVE",
"453 529 OFFCURVE",
"423 529 CURVE SMOOTH",
"401 529 OFFCURVE",
"290 387 OFFCURVE",
"106 122 CURVE SMOOTH",
"68 67 OFFCURVE",
"35 18 OFFCURVE",
"28 5 CURVE SMOOTH",
"21 -8 OFFCURVE",
"18 -25 OFFCURVE",
"18 -45 CURVE SMOOTH",
"18 -65 OFFCURVE",
"24 -75 OFFCURVE",
"36 -75 CURVE SMOOTH"
);
}
);
};
hints = (
{
horizontal = 1;
place = "{-105, 12}";
type = Stem;
},
{
place = "{18, 26}";
type = Stem;
}
);
layerId = "8B85D65B-9817-42FC-8CCD-19CD4C331E33";
paths = (
{
closed = 1;
nodes = (
"49 -75 OFFCURVE",
"55 -71 OFFCURVE",
"55 -63 CURVE",
"48 -57 OFFCURVE",
"44 -51 OFFCURVE",
"44 -44 CURVE SMOOTH",
"44 -6 OFFCURVE",
"147 132 OFFCURVE",
"354 372 CURVE SMOOTH",
"461 496 LINE SMOOTH",
"466 502 OFFCURVE",
"468 507 OFFCURVE",
"468 510 CURVE SMOOTH",
"468 523 OFFCURVE",
"453 529 OFFCURVE",
"423 529 CURVE SMOOTH",
"401 529 OFFCURVE",
"290 387 OFFCURVE",
"106 122 CURVE SMOOTH",
"68 67 OFFCURVE",
"35 18 OFFCURVE",
"28 5 CURVE SMOOTH",
"21 -8 OFFCURVE",
"18 -25 OFFCURVE",
"18 -45 CURVE SMOOTH",
"18 -65 OFFCURVE",
"24 -75 OFFCURVE",
"36 -75 CURVE SMOOTH"
);
}
);
width = 455;
}
);
note = slash;
unicode = 002F;
},
{
glyphname = zero;
lastChange = "2021-04-18 13:12:16 +0000";
layers = (
{
background = {
paths = (
{
closed = 1;
nodes = (
"301 59 OFFCURVE",
"367 121 OFFCURVE",
"411 196 CURVE SMOOTH",
"432 231 OFFCURVE",
"444 265 OFFCURVE",
"444 296 CURVE SMOOTH",
"444 330 OFFCURVE",
"429 361 OFFCURVE",
"391 386 CURVE SMOOTH",
"356 410 OFFCURVE",
"319 422 OFFCURVE",
"282 422 CURVE SMOOTH",
"245 422 OFFCURVE",
"208 417 OFFCURVE",
"169 407 CURVE SMOOTH",
"131 397 OFFCURVE",
"107 382 OFFCURVE",
"97 363 CURVE",
"97 362 OFFCURVE",
"98 361 OFFCURVE",
"100 361 CURVE",
"105 364 LINE",
"152 382 OFFCURVE",
"208 391 OFFCURVE",
"272 391 CURVE SMOOTH",
"362 391 OFFCURVE",
"407 369 OFFCURVE",
"407 325 CURVE SMOOTH",
"407 290 OFFCURVE",
"389 249 OFFCURVE",
"352 202 CURVE SMOOTH",
"316 155 OFFCURVE",
"274 114 OFFCURVE",
"226 81 CURVE SMOOTH",
"178 48 OFFCURVE",
"138 31 OFFCURVE",
"106 31 CURVE SMOOTH",
"67 31 OFFCURVE",
"47 49 OFFCURVE",
"47 84 CURVE SMOOTH",
"47 115 OFFCURVE",
"68 162 OFFCURVE",
"111 223 CURVE SMOOTH",
"154 284 OFFCURVE",
"187 315 OFFCURVE",
"210 315 CURVE SMOOTH",
"217 315 LINE SMOOTH",
"225 315 OFFCURVE",
"229 316 OFFCURVE",
"229 319 CURVE SMOOTH",
"229 326 OFFCURVE",
"220 331 OFFCURVE",
"211 337 CURVE SMOOTH",
"197 346 OFFCURVE",
"193 349 OFFCURVE",
"185 349 CURVE SMOOTH",
"154 349 OFFCURVE",
"118 315 OFFCURVE",
"77 246 CURVE SMOOTH",
"36 178 OFFCURVE",
"15 124 OFFCURVE",
"15 85 CURVE SMOOTH",
"15 28 OFFCURVE",
"62 -13 OFFCURVE",
"125 -13 CURVE SMOOTH",
"155 -13 OFFCURVE",
"190 -3 OFFCURVE",
"225 18 CURVE"
);
}
);
};
hints = (
{
horizontal = 1;
place = "{-43, 44}";
type = Stem;
},
{
horizontal = 1;
place = "{285, 34}";
type = Stem;
},
{
horizontal = 1;
place = "{361, 31}";
type = Stem;
},
{
place = "{15, 32}";
type = Stem;
},
{
place = "{407, 37}";
type = Stem;
}
);
layerId = "8B85D65B-9817-42FC-8CCD-19CD4C331E33";
paths = (
{
closed = 1;
nodes = (
"155 -13 OFFCURVE",
"190 -3 OFFCURVE",
"225 18 CURVE",
"301 59 OFFCURVE",
"367 121 OFFCURVE",
"411 196 CURVE SMOOTH",
"432 231 OFFCURVE",
"444 265 OFFCURVE",
"444 296 CURVE SMOOTH",
"444 330 OFFCURVE",
"429 361 OFFCURVE",
"391 386 CURVE SMOOTH",
"356 410 OFFCURVE",
"319 422 OFFCURVE",
"282 422 CURVE SMOOTH",
"245 422 OFFCURVE",
"208 417 OFFCURVE",
"169 407 CURVE SMOOTH",
"131 397 OFFCURVE",
"107 382 OFFCURVE",
"97 363 CURVE",
"97 362 OFFCURVE",
"98 361 OFFCURVE",
"100 361 CURVE",
"105 364 LINE",
"152 382 OFFCURVE",
"208 391 OFFCURVE",
"272 391 CURVE SMOOTH",
"362 391 OFFCURVE",
"407 369 OFFCURVE",
"407 325 CURVE SMOOTH",
"407 290 OFFCURVE",
"389 249 OFFCURVE",
"352 202 CURVE SMOOTH",
"316 155 OFFCURVE",
"274 114 OFFCURVE",
"226 81 CURVE SMOOTH",
"178 48 OFFCURVE",
"138 31 OFFCURVE",
"106 31 CURVE SMOOTH",
"67 31 OFFCURVE",
"47 49 OFFCURVE",
"47 84 CURVE SMOOTH",
"47 115 OFFCURVE",
"68 162 OFFCURVE",
"111 223 CURVE SMOOTH",
"154 284 OFFCURVE",
"187 315 OFFCURVE",
"210 315 CURVE SMOOTH",
"217 315 LINE SMOOTH",
"225 315 OFFCURVE",
"229 316 OFFCURVE",
"229 319 CURVE SMOOTH",
"229 326 OFFCURVE",
"220 331 OFFCURVE",
"211 337 CURVE SMOOTH",
"197 346 OFFCURVE",
"193 349 OFFCURVE",
"185 349 CURVE SMOOTH",
"154 349 OFFCURVE",
"118 315 OFFCURVE",
"77 246 CURVE SMOOTH",
"36 178 OFFCURVE",
"15 124 OFFCURVE",
"15 85 CURVE SMOOTH",
"15 28 OFFCURVE",
"62 -13 OFFCURVE",
"125 -13 CURVE SMOOTH"
);
}
);
width = 447;
}
);
note = zero;
unicode = 0030;
},
{
glyphname = one;
lastChange = "2021-04-15 17:47:42 +0000";
layers = (
{
background = {
paths = (
{
closed = 1;
nodes = (
"55 -11 OFFCURVE",
"56 -10 OFFCURVE",
"56 -7 CURVE",
"49 29 LINE",
"49 62 OFFCURVE",
"67 121 OFFCURVE",
"103 205 CURVE SMOOTH",
"139 289 OFFCURVE",
"173 353 OFFCURVE",
"205 397 CURVE SMOOTH",
"206 399 OFFCURVE",
"207 400 OFFCURVE",
"207 401 CURVE SMOOTH",
"207 406 OFFCURVE",
"200 411 OFFCURVE",
"187 416 CURVE SMOOTH",
"174 421 OFFCURVE",
"164 424 OFFCURVE",
"157 424 CURVE SMOOTH",
"151 424 OFFCURVE",
"135 409 OFFCURVE",
"103 365 CURVE SMOOTH",
"50 292 LINE",
"49 289 OFFCURVE",
"49 288 OFFCURVE",
"50 285 CURVE",
"73 304 OFFCURVE",
"92 321 OFFCURVE",
"106 336 CURVE",
"48 216 OFFCURVE",
"19 127 OFFCURVE",
"19 70 CURVE SMOOTH",
"19 29 OFFCURVE",
"33 -11 OFFCURVE",
"52 -11 CURVE SMOOTH"
);
}
);
};
hints = (
{
horizontal = 1;
place = "{-41, 435}";
type = Stem;
},
{
place = "{19, 30}";
type = Stem;
}
);
layerId = "8B85D65B-9817-42FC-8CCD-19CD4C331E33";
paths = (
{
closed = 1;
nodes = (
"55 -11 OFFCURVE",
"56 -10 OFFCURVE",
"56 -7 CURVE",
"49 29 LINE",
"49 62 OFFCURVE",
"67 121 OFFCURVE",
"103 205 CURVE SMOOTH",
"139 289 OFFCURVE",
"173 353 OFFCURVE",
"205 397 CURVE SMOOTH",
"206 399 OFFCURVE",
"207 400 OFFCURVE",
"207 401 CURVE SMOOTH",
"207 406 OFFCURVE",
"200 411 OFFCURVE",
"187 416 CURVE SMOOTH",
"174 421 OFFCURVE",
"164 424 OFFCURVE",
"157 424 CURVE SMOOTH",
"151 424 OFFCURVE",
"135 409 OFFCURVE",
"103 365 CURVE SMOOTH",
"50 292 LINE",
"49 289 OFFCURVE",
"49 288 OFFCURVE",
"50 285 CURVE",
"73 304 OFFCURVE",
"92 321 OFFCURVE",
"106 336 CURVE",
"48 216 OFFCURVE",
"19 127 OFFCURVE",
"19 70 CURVE SMOOTH",
"19 29 OFFCURVE",
"33 -11 OFFCURVE",
"52 -11 CURVE SMOOTH"
);
}
);
width = 180;
}
);
note = one;
unicode = 0031;
},
{
glyphname = two;
lastChange = "2021-04-15 17:47:42 +0000";
layers = (
{
background = {
paths = (
{
closed = 1;
nodes = (
"350 -10 OFFCURVE",
"354 0 OFFCURVE",
"354 20 CURVE SMOOTH",
"354 54 OFFCURVE",
"314 71 OFFCURVE",
"234 71 CURVE SMOOTH",
"193 71 OFFCURVE",
"152 67 OFFCURVE",
"111 59 CURVE",
"207 110 OFFCURVE",
"286 165 OFFCURVE",
"347 225 CURVE SMOOTH",
"409 286 OFFCURVE",
"440 331 OFFCURVE",
"440 360 CURVE SMOOTH",
"440 400 OFFCURVE",
"413 420 OFFCURVE",
"360 420 CURVE SMOOTH",
"314 420 OFFCURVE",
"262 409 OFFCURVE",
"203 388 CURVE SMOOTH",
"145 367 OFFCURVE",
"116 345 OFFCURVE",
"116 323 CURVE SMOOTH",
"116 316 OFFCURVE",
"121 307 OFFCURVE",
"130 295 CURVE SMOOTH",
"139 284 OFFCURVE",
"146 278 OFFCURVE",
"150 278 CURVE SMOOTH",
"154 278 OFFCURVE",
"156 279 OFFCURVE",
"156 282 CURVE",
"149 295 LINE",
"149 314 OFFCURVE",
"179 335 OFFCURVE",
"238 359 CURVE SMOOTH",
"297 383 OFFCURVE",
"341 395 OFFCURVE",
"370 395 CURVE SMOOTH",
"387 395 OFFCURVE",
"396 390 OFFCURVE",
"396 380 CURVE SMOOTH",
"396 375 OFFCURVE",
"394 368 OFFCURVE",
"389 361 CURVE",
"328 250 OFFCURVE",
"204 142 OFFCURVE",
"19 36 CURVE",
"24 12 OFFCURVE",
"30 0 OFFCURVE",
"37 0 CURVE",
"152 12 LINE SMOOTH",
"190 16 OFFCURVE",
"229 18 OFFCURVE",
"263 18 CURVE SMOOTH",
"292 18 OFFCURVE",
"313 16 OFFCURVE",
"323 13 CURVE SMOOTH",
"334 10 OFFCURVE",
"339 7 OFFCURVE",
"340 4 CURVE",
"343 -1 OFFCURVE",
"339 -10 OFFCURVE",
"342 -10 CURVE SMOOTH"
);
}
);
};
hints = (
{
horizontal = 1;
place = "{-12, 53}";
type = Stem;
},
{
horizontal = 1;
place = "{365, 25}";
type = Stem;
},
{
place = "{116, 33}";
type = Stem;
},
{
place = "{340, 14}";
type = Stem;
},
{
place = "{396, 44}";
type = Stem;
}
);
layerId = "8B85D65B-9817-42FC-8CCD-19CD4C331E33";
paths = (
{
closed = 1;
nodes = (
"350 -10 OFFCURVE",
"354 0 OFFCURVE",
"354 20 CURVE SMOOTH",
"354 54 OFFCURVE",
"314 71 OFFCURVE",
"234 71 CURVE SMOOTH",
"193 71 OFFCURVE",
"152 67 OFFCURVE",
"111 59 CURVE",
"207 110 OFFCURVE",
"286 165 OFFCURVE",
"347 225 CURVE SMOOTH",
"409 286 OFFCURVE",
"440 331 OFFCURVE",
"440 360 CURVE SMOOTH",
"440 400 OFFCURVE",
"413 420 OFFCURVE",
"360 420 CURVE SMOOTH",
"314 420 OFFCURVE",
"262 409 OFFCURVE",
"203 388 CURVE SMOOTH",
"145 367 OFFCURVE",
"116 345 OFFCURVE",
"116 323 CURVE SMOOTH",
"116 316 OFFCURVE",
"121 307 OFFCURVE",
"130 295 CURVE SMOOTH",
"139 284 OFFCURVE",
"146 278 OFFCURVE",
"150 278 CURVE SMOOTH",
"154 278 OFFCURVE",
"156 279 OFFCURVE",
"156 282 CURVE",
"149 295 LINE",
"149 314 OFFCURVE",
"179 335 OFFCURVE",
"238 359 CURVE SMOOTH",
"297 383 OFFCURVE",
"341 395 OFFCURVE",
"370 395 CURVE SMOOTH",
"387 395 OFFCURVE",
"396 390 OFFCURVE",
"396 380 CURVE SMOOTH",
"396 375 OFFCURVE",
"394 368 OFFCURVE",
"389 361 CURVE",
"328 250 OFFCURVE",
"204 142 OFFCURVE",
"19 36 CURVE",
"24 12 OFFCURVE",
"30 0 OFFCURVE",
"37 0 CURVE",
"152 12 LINE SMOOTH",
"190 16 OFFCURVE",
"229 18 OFFCURVE",
"263 18 CURVE SMOOTH",
"292 18 OFFCURVE",
"313 16 OFFCURVE",
"323 13 CURVE SMOOTH",
"334 10 OFFCURVE",
"339 7 OFFCURVE",
"340 4 CURVE",
"343 -1 OFFCURVE",
"339 -10 OFFCURVE",
"342 -10 CURVE SMOOTH"
);
}
);
width = 414;
}
);
note = two;
unicode = 0032;
},
{
glyphname = three;
lastChange = "2021-04-15 17:47:42 +0000";
layers = (
{
background = {
paths = (
{
closed = 1;
nodes = (
"188 -26 OFFCURVE",
"240 -8 OFFCURVE",
"291 27 CURVE SMOOTH",
"342 62 OFFCURVE",
"368 100 OFFCURVE",
"368 143 CURVE SMOOTH",
"368 176 OFFCURVE",
"346 208 OFFCURVE",
"302 238 CURVE",
"394 285 OFFCURVE",
"427 309 OFFCURVE",
"427 352 CURVE SMOOTH",
"427 374 OFFCURVE",
"412 391 OFFCURVE",
"382 404 CURVE SMOOTH",
"353 417 OFFCURVE",
"318 424 OFFCURVE",
"277 424 CURVE SMOOTH",
"236 424 OFFCURVE",
"203 418 OFFCURVE",
"178 407 CURVE SMOOTH",
"153 396 OFFCURVE",
"141 383 OFFCURVE",
"141 366 CURVE SMOOTH",
"141 362 OFFCURVE",
"143 350 OFFCURVE",
"147 340 CURVE SMOOTH",
"152 328 OFFCURVE",
"155 322 OFFCURVE",
"158 322 CURVE SMOOTH",
"161 322 OFFCURVE",
"162 324 OFFCURVE",
"162 328 CURVE",
"160 338 LINE",
"160 367 OFFCURVE",
"211 386 OFFCURVE",
"290 386 CURVE SMOOTH",
"359 386 OFFCURVE",
"392 376 OFFCURVE",
"392 360 CURVE SMOOTH",
"392 344 OFFCURVE",
"361 322 OFFCURVE",
"302 296 CURVE SMOOTH",
"247 272 OFFCURVE",
"201 256 OFFCURVE",
"178 254 CURVE SMOOTH",
"165 253 OFFCURVE",
"139 250 OFFCURVE",
"136 250 CURVE",
"149 223 LINE SMOOTH",
"155 211 OFFCURVE",
"159 205 OFFCURVE",
"166 205 CURVE",
"233 213 LINE",
"302 213 OFFCURVE",
"336 198 OFFCURVE",
"336 168 CURVE SMOOTH",
"336 139 OFFCURVE",
"312 109 OFFCURVE",
"264 79 CURVE SMOOTH",
"216 50 OFFCURVE",
"167 35 OFFCURVE",
"116 35 CURVE SMOOTH",
"57 35 OFFCURVE",
"28 55 OFFCURVE",
"28 94 CURVE SMOOTH",
"28 99 OFFCURVE",
"30 108 OFFCURVE",
"34 121 CURVE SMOOTH",
"41 142 OFFCURVE",
"41 141 OFFCURVE",
"41 143 CURVE SMOOTH",
"41 148 OFFCURVE",
"39 150 OFFCURVE",
"36 150 CURVE SMOOTH",
"22 150 OFFCURVE",
"15 132 OFFCURVE",
"15 95 CURVE SMOOTH",
"15 59 OFFCURVE",
"26 30 OFFCURVE",
"47 8 CURVE SMOOTH",
"68 -15 OFFCURVE",
"97 -26 OFFCURVE",
"134 -26 CURVE SMOOTH"
);
}
);
};
hints = (
{
horizontal = 1;
place = "{-56, 61}";
type = Stem;
},
{
horizontal = 1;
place = "{183, 37}";
type = Stem;
},
{
horizontal = 1;
place = "{356, 38}";
type = Stem;
},
{
place = "{15, 13}";
type = Stem;
},
{
place = "{141, 19}";
type = Stem;
},
{
place = "{392, 35}";
type = Stem;
},
{
place = "{336, 32}";
type = Stem;
}
);
layerId = "8B85D65B-9817-42FC-8CCD-19CD4C331E33";
paths = (
{
closed = 1;
nodes = (
"188 -26 OFFCURVE",
"240 -8 OFFCURVE",
"291 27 CURVE SMOOTH",
"342 62 OFFCURVE",
"368 100 OFFCURVE",
"368 143 CURVE SMOOTH",
"368 176 OFFCURVE",
"346 208 OFFCURVE",
"302 238 CURVE",
"394 285 OFFCURVE",
"427 309 OFFCURVE",
"427 352 CURVE SMOOTH",
"427 374 OFFCURVE",
"412 391 OFFCURVE",
"382 404 CURVE SMOOTH",
"353 417 OFFCURVE",
"318 424 OFFCURVE",
"277 424 CURVE SMOOTH",
"236 424 OFFCURVE",
"203 418 OFFCURVE",
"178 407 CURVE SMOOTH",
"153 396 OFFCURVE",
"141 383 OFFCURVE",
"141 366 CURVE SMOOTH",
"141 362 OFFCURVE",
"143 350 OFFCURVE",
"147 340 CURVE SMOOTH",
"152 328 OFFCURVE",
"155 322 OFFCURVE",
"158 322 CURVE SMOOTH",
"161 322 OFFCURVE",
"162 324 OFFCURVE",
"162 328 CURVE",
"160 338 LINE",
"160 367 OFFCURVE",
"211 386 OFFCURVE",
"290 386 CURVE SMOOTH",
"359 386 OFFCURVE",
"392 376 OFFCURVE",
"392 360 CURVE SMOOTH",
"392 344 OFFCURVE",
"361 322 OFFCURVE",
"302 296 CURVE SMOOTH",
"247 272 OFFCURVE",
"201 256 OFFCURVE",
"178 254 CURVE SMOOTH",
"165 253 OFFCURVE",
"139 250 OFFCURVE",
"136 250 CURVE",
"149 223 LINE SMOOTH",
"155 211 OFFCURVE",
"159 205 OFFCURVE",
"166 205 CURVE",
"233 213 LINE",
"302 213 OFFCURVE",
"336 198 OFFCURVE",
"336 168 CURVE SMOOTH",
"336 139 OFFCURVE",
"312 109 OFFCURVE",
"264 79 CURVE SMOOTH",
"216 50 OFFCURVE",
"167 35 OFFCURVE",
"116 35 CURVE SMOOTH",
"57 35 OFFCURVE",
"28 55 OFFCURVE",
"28 94 CURVE SMOOTH",
"28 99 OFFCURVE",
"30 108 OFFCURVE",
"34 121 CURVE SMOOTH",
"41 142 OFFCURVE",
"41 141 OFFCURVE",
"41 143 CURVE SMOOTH",
"41 148 OFFCURVE",
"39 150 OFFCURVE",
"36 150 CURVE SMOOTH",
"22 150 OFFCURVE",
"15 132 OFFCURVE",
"15 95 CURVE SMOOTH",
"15 59 OFFCURVE",
"26 30 OFFCURVE",
"47 8 CURVE SMOOTH",
"68 -15 OFFCURVE",
"97 -26 OFFCURVE",
"134 -26 CURVE SMOOTH"
);
}
);
width = 412;
}
);
note = three;
unicode = 0033;
},
{
glyphname = four;
lastChange = "2021-04-18 13:12:25 +0000";
layers = (
{
background = {
paths = (
{
closed = 1;
nodes = (
"264 -42 OFFCURVE",
"266 -42 OFFCURVE",
"266 -40 CURVE SMOOTH",
"266 -37 OFFCURVE",
"255 -29 OFFCURVE",
"255 -10 CURVE SMOOTH",
"255 -2 OFFCURVE",
"262 27 OFFCURVE",
"277 77 CURVE SMOOTH",
"292 128 OFFCURVE",
"303 161 OFFCURVE",
"310 177 CURVE",
"318 177 LINE SMOOTH",
"341 177 OFFCURVE",
"353 173 OFFCURVE",
"353 166 CURVE",
"339 129 LINE",
"339 122 OFFCURVE",
"349 120 OFFCURVE",
"362 136 CURVE SMOOTH",
"369 145 OFFCURVE",
"372 153 OFFCURVE",
"372 162 CURVE SMOOTH",
"372 179 OFFCURVE",
"343 201 OFFCURVE",
"319 205 CURVE",
"363 299 LINE SMOOTH",
"385 346 OFFCURVE",
"395 376 OFFCURVE",
"395 386 CURVE SMOOTH",
"395 398 OFFCURVE",
"389 408 OFFCURVE",
"377 415 CURVE SMOOTH",
"365 423 OFFCURVE",
"350 426 OFFCURVE",
"339 426 CURVE SMOOTH",
"328 426 OFFCURVE",
"320 423 OFFCURVE",
"318 418 CURVE",
"318 417 OFFCURVE",
"335 408 OFFCURVE",
"335 400 CURVE SMOOTH",
"335 386 OFFCURVE",
"325 357 OFFCURVE",
"304 309 CURVE SMOOTH",
"261 212 LINE",
"239 212 LINE SMOOTH",
"182 212 OFFCURVE",
"120 204 OFFCURVE",
"53 189 CURVE",
"79 211 OFFCURVE",
"112 237 OFFCURVE",
"151 267 CURVE",
"135 240 OFFCURVE",
"126 225 OFFCURVE",
"126 221 CURVE SMOOTH",
"126 215 OFFCURVE",
"145 238 OFFCURVE",
"184 293 CURVE",
"208 311 LINE SMOOTH",
"273 360 OFFCURVE",
"304 389 OFFCURVE",
"304 395 CURVE SMOOTH",
"304 411 OFFCURVE",
"294 419 OFFCURVE",
"273 419 CURVE SMOOTH",
"252 419 OFFCURVE",
"241 417 OFFCURVE",
"241 412 CURVE",
"215 371 LINE",
"115 296 LINE SMOOTH",
"38 238 OFFCURVE",
"1 195 OFFCURVE",
"1 171 CURVE SMOOTH",
"1 159 OFFCURVE",
"16 135 OFFCURVE",
"23 135 CURVE",
"32 137 LINE",
"77 149 LINE SMOOTH",
"141 166 OFFCURVE",
"191 174 OFFCURVE",
"230 174 CURVE SMOOTH",
"237 174 OFFCURVE",
"242 174 OFFCURVE",
"245 173 CURVE",
"230 125 OFFCURVE",
"223 83 OFFCURVE",
"223 46 CURVE SMOOTH",
"223 -13 OFFCURVE",
"235 -42 OFFCURVE",
"258 -42 CURVE SMOOTH"
);
}
);
};
hints = (
{
horizontal = 1;
place = "{144, 38}";
type = Stem;
},
{
place = "{223, 43}";
type = Stem;
},
{
place = "{353, 19}";
type = Stem;
},
{
horizontal = 1;
place = "{147, 28}";
type = Stem;
},
{
place = "{335, 60}";
type = Stem;
}
);
layerId = "8B85D65B-9817-42FC-8CCD-19CD4C331E33";
paths = (
{
closed = 1;
nodes = (
"264 -42 OFFCURVE",
"266 -42 OFFCURVE",
"266 -40 CURVE SMOOTH",
"266 -37 OFFCURVE",
"255 -29 OFFCURVE",
"255 -10 CURVE SMOOTH",
"255 -2 OFFCURVE",
"262 27 OFFCURVE",
"277 77 CURVE SMOOTH",
"292 128 OFFCURVE",
"303 161 OFFCURVE",
"310 177 CURVE",
"318 177 LINE SMOOTH",
"341 177 OFFCURVE",
"353 173 OFFCURVE",
"353 166 CURVE",
"339 129 LINE",
"339 122 OFFCURVE",
"349 120 OFFCURVE",
"362 136 CURVE SMOOTH",
"369 145 OFFCURVE",
"372 153 OFFCURVE",
"372 162 CURVE SMOOTH",
"372 179 OFFCURVE",
"343 201 OFFCURVE",
"319 205 CURVE",
"363 299 LINE SMOOTH",
"385 346 OFFCURVE",
"395 376 OFFCURVE",
"395 386 CURVE SMOOTH",
"395 398 OFFCURVE",
"389 408 OFFCURVE",
"377 415 CURVE SMOOTH",
"365 423 OFFCURVE",
"350 426 OFFCURVE",
"339 426 CURVE SMOOTH",
"328 426 OFFCURVE",
"320 423 OFFCURVE",
"318 418 CURVE",
"318 417 OFFCURVE",
"335 408 OFFCURVE",
"335 400 CURVE SMOOTH",
"335 386 OFFCURVE",
"325 357 OFFCURVE",
"304 309 CURVE SMOOTH",
"261 212 LINE",
"239 212 LINE SMOOTH",
"182 212 OFFCURVE",
"120 204 OFFCURVE",
"53 189 CURVE",
"79 211 OFFCURVE",
"112 237 OFFCURVE",
"151 267 CURVE",
"135 240 OFFCURVE",
"126 224 OFFCURVE",
"126 221 CURVE SMOOTH",
"126 215 OFFCURVE",
"145 239 OFFCURVE",
"184 293 CURVE",
"208 311 LINE SMOOTH",
"273 360 OFFCURVE",
"304 389 OFFCURVE",
"304 395 CURVE SMOOTH",
"304 411 OFFCURVE",
"294 419 OFFCURVE",
"273 419 CURVE SMOOTH",
"252 419 OFFCURVE",
"241 417 OFFCURVE",
"241 412 CURVE",
"215 371 LINE",
"115 296 LINE SMOOTH",
"38 238 OFFCURVE",
"1 195 OFFCURVE",
"1 171 CURVE SMOOTH",
"1 159 OFFCURVE",
"16 135 OFFCURVE",
"23 135 CURVE",
"32 137 LINE",
"77 149 LINE SMOOTH",
"141 166 OFFCURVE",
"191 174 OFFCURVE",
"230 174 CURVE SMOOTH",
"237 174 OFFCURVE",
"242 174 OFFCURVE",
"245 173 CURVE",
"230 125 OFFCURVE",
"223 83 OFFCURVE",
"223 46 CURVE SMOOTH",
"223 -13 OFFCURVE",
"235 -42 OFFCURVE",
"258 -42 CURVE SMOOTH"
);
}
);
width = 376;
}
);
note = four;
unicode = 0034;
},
{
glyphname = five;
lastChange = "2021-04-15 17:47:42 +0000";
layers = (
{
background = {
paths = (
{
closed = 1;
nodes = (
"63 -38 OFFCURVE",
"104 -28 OFFCURVE",
"153 -8 CURVE SMOOTH",
"198 11 OFFCURVE",
"236 33 OFFCURVE",
"277 78 CURVE SMOOTH",
"313 117 OFFCURVE",
"330 160 OFFCURVE",
"330 206 CURVE SMOOTH",
"330 268 OFFCURVE",
"273 297 OFFCURVE",
"200 297 CURVE SMOOTH",
"167 297 OFFCURVE",
"130 291 OFFCURVE",
"95 279 CURVE",
"154 367 LINE",
"166 361 OFFCURVE",
"183 358 OFFCURVE",
"204 358 CURVE SMOOTH",
"277 358 OFFCURVE",
"333 374 OFFCURVE",
"371 406 CURVE SMOOTH",
"378 412 OFFCURVE",
"381 416 OFFCURVE",
"381 418 CURVE SMOOTH",
"381 420 OFFCURVE",
"378 420 OFFCURVE",
"372 420 CURVE SMOOTH",
"366 420 OFFCURVE",
"349 418 OFFCURVE",
"322 415 CURVE SMOOTH",
"295 412 OFFCURVE",
"267 410 OFFCURVE",
"240 410 CURVE SMOOTH",
"187 410 OFFCURVE",
"138 420 OFFCURVE",
"129 420 CURVE SMOOTH",
"124 420 OFFCURVE",
"116 408 OFFCURVE",
"103 385 CURVE SMOOTH",
"55 298 OFFCURVE",
"74 330 OFFCURVE",
"52 290 CURVE SMOOTH",
"19 226 LINE",
"19 221 OFFCURVE",
"23 215 OFFCURVE",
"30 206 CURVE SMOOTH",
"38 197 OFFCURVE",
"44 193 OFFCURVE",
"47 193 CURVE SMOOTH",
"54 193 OFFCURVE",
"72 218 OFFCURVE",
"89 227 CURVE SMOOTH",
"136 252 OFFCURVE",
"178 264 OFFCURVE",
"214 264 CURVE SMOOTH",
"273 264 OFFCURVE",
"302 248 OFFCURVE",
"302 215 CURVE SMOOTH",
"302 186 OFFCURVE",
"283 152 OFFCURVE",
"246 115 CURVE SMOOTH",
"209 78 OFFCURVE",
"164 48 OFFCURVE",
"113 23 CURVE SMOOTH",
"62 -2 OFFCURVE",
"18 -15 OFFCURVE",
"-19 -15 CURVE SMOOTH",
"-72 -15 OFFCURVE",
"-113 10 OFFCURVE",
"-141 60 CURVE",
"-145 60 OFFCURVE",
"-147 57 OFFCURVE",
"-147 50 CURVE SMOOTH",
"-147 24 OFFCURVE",
"-133 5 OFFCURVE",
"-99 -13 CURVE SMOOTH",
"-65 -31 OFFCURVE",
"-29 -38 OFFCURVE",
"15 -38 CURVE SMOOTH"
);
}
);
};
hints = (
{
horizontal = 1;
place = "{-68, 23}";
type = Stem;
},
{
horizontal = 1;
place = "{234, 33}";
type = Stem;
},
{
horizontal = 1;
place = "{328, 52}";
type = Stem;
},
{
place = "{302, 28}";
type = Stem;
}
);
layerId = "8B85D65B-9817-42FC-8CCD-19CD4C331E33";
paths = (
{
closed = 1;
nodes = (
"63 -38 OFFCURVE",
"104 -28 OFFCURVE",
"153 -8 CURVE SMOOTH",
"198 11 OFFCURVE",
"236 33 OFFCURVE",
"277 78 CURVE SMOOTH",
"313 117 OFFCURVE",
"330 160 OFFCURVE",
"330 206 CURVE SMOOTH",
"330 268 OFFCURVE",
"273 297 OFFCURVE",
"200 297 CURVE SMOOTH",
"167 297 OFFCURVE",
"130 291 OFFCURVE",
"95 279 CURVE",
"154 367 LINE",
"166 361 OFFCURVE",
"183 358 OFFCURVE",
"204 358 CURVE SMOOTH",
"277 358 OFFCURVE",
"333 374 OFFCURVE",
"371 406 CURVE SMOOTH",
"378 412 OFFCURVE",
"381 416 OFFCURVE",
"381 418 CURVE SMOOTH",
"381 420 OFFCURVE",
"378 420 OFFCURVE",
"372 420 CURVE SMOOTH",
"366 420 OFFCURVE",
"349 418 OFFCURVE",
"322 415 CURVE SMOOTH",
"295 412 OFFCURVE",
"267 410 OFFCURVE",
"240 410 CURVE SMOOTH",
"187 410 OFFCURVE",
"138 420 OFFCURVE",
"129 420 CURVE SMOOTH",
"124 420 OFFCURVE",
"116 408 OFFCURVE",
"103 385 CURVE SMOOTH",
"55 298 OFFCURVE",
"74 330 OFFCURVE",
"52 290 CURVE SMOOTH",
"19 226 LINE",
"19 221 OFFCURVE",
"23 215 OFFCURVE",
"30 206 CURVE SMOOTH",
"38 197 OFFCURVE",
"44 193 OFFCURVE",
"47 193 CURVE SMOOTH",
"54 193 OFFCURVE",
"72 218 OFFCURVE",
"89 227 CURVE SMOOTH",
"136 252 OFFCURVE",
"178 264 OFFCURVE",
"214 264 CURVE SMOOTH",
"273 264 OFFCURVE",
"302 248 OFFCURVE",
"302 215 CURVE SMOOTH",
"302 186 OFFCURVE",
"283 152 OFFCURVE",
"246 115 CURVE SMOOTH",
"209 78 OFFCURVE",
"164 48 OFFCURVE",
"113 23 CURVE SMOOTH",
"62 -2 OFFCURVE",
"18 -15 OFFCURVE",
"-19 -15 CURVE SMOOTH",
"-72 -15 OFFCURVE",
"-113 10 OFFCURVE",
"-141 60 CURVE",
"-145 60 OFFCURVE",
"-147 57 OFFCURVE",
"-147 50 CURVE SMOOTH",
"-147 24 OFFCURVE",
"-133 5 OFFCURVE",
"-99 -13 CURVE SMOOTH",
"-65 -31 OFFCURVE",
"-29 -38 OFFCURVE",
"15 -38 CURVE SMOOTH"
);
}
);
width = 350;
}
);
note = five;
unicode = 0035;
},
{
glyphname = six;
lastChange = "2021-04-15 17:47:42 +0000";
layers = (
{
background = {
paths = (
{
closed = 1;
nodes = (
"161 -17 OFFCURVE",
"217 4 OFFCURVE",
"274 45 CURVE SMOOTH",
"332 86 OFFCURVE",
"361 128 OFFCURVE",
"361 170 CURVE SMOOTH",
"361 213 OFFCURVE",
"319 244 OFFCURVE",
"258 244 CURVE SMOOTH",
"227 244 OFFCURVE",
"193 229 OFFCURVE",
"154 199 CURVE SMOOTH",
"116 170 OFFCURVE",
"97 139 OFFCURVE",
"97 108 CURVE SMOOTH",
"97 102 OFFCURVE",
"99 98 OFFCURVE",
"101 98 CURVE SMOOTH",
"103 98 OFFCURVE",
"106 102 OFFCURVE",
"108 109 CURVE SMOOTH",
"115 130 OFFCURVE",
"139 153 OFFCURVE",
"180 178 CURVE SMOOTH",
"222 203 OFFCURVE",
"255 216 OFFCURVE",
"278 216 CURVE SMOOTH",
"302 216 OFFCURVE",
"314 206 OFFCURVE",
"314 185 CURVE SMOOTH",
"314 152 OFFCURVE",
"284 115 OFFCURVE",
"225 74 CURVE SMOOTH",
"166 33 OFFCURVE",
"118 12 OFFCURVE",
"80 12 CURVE SMOOTH",
"51 12 OFFCURVE",
"35 26 OFFCURVE",
"35 53 CURVE SMOOTH",
"35 83 OFFCURVE",
"55 130 OFFCURVE",
"99 192 CURVE SMOOTH",
"142 252 OFFCURVE",
"191 306 OFFCURVE",
"246 354 CURVE SMOOTH",
"301 403 OFFCURVE",
"345 427 OFFCURVE",
"376 427 CURVE SMOOTH",
"383 427 OFFCURVE",
"391 422 OFFCURVE",
"401 412 CURVE",
"404 412 OFFCURVE",
"410 429 OFFCURVE",
"383 447 CURVE SMOOTH",
"370 456 OFFCURVE",
"358 460 OFFCURVE",
"346 460 CURVE SMOOTH",
"285 460 OFFCURVE",
"217 411 OFFCURVE",
"134 315 CURVE SMOOTH",
"50 218 OFFCURVE",
"10 145 OFFCURVE",
"10 86 CURVE SMOOTH",
"10 17 OFFCURVE",
"43 -17 OFFCURVE",
"108 -17 CURVE SMOOTH"
);
}
);
};
hints = (
{
horizontal = 1;
place = "{-47, 29}";
type = Stem;
},
{
horizontal = 1;
place = "{186, 28}";
type = Stem;
},
{
horizontal = 1;
place = "{397, 33}";
type = Stem;
},
{
place = "{10, 25}";
type = Stem;
},
{
place = "{314, 47}";
type = Stem;
}
);
layerId = "8B85D65B-9817-42FC-8CCD-19CD4C331E33";
paths = (
{
closed = 1;
nodes = (
"161 -17 OFFCURVE",
"217 4 OFFCURVE",
"274 45 CURVE SMOOTH",
"332 86 OFFCURVE",
"361 128 OFFCURVE",
"361 170 CURVE SMOOTH",
"361 213 OFFCURVE",
"319 244 OFFCURVE",
"258 244 CURVE SMOOTH",
"227 244 OFFCURVE",
"193 229 OFFCURVE",
"154 199 CURVE SMOOTH",
"116 170 OFFCURVE",
"97 139 OFFCURVE",
"97 108 CURVE SMOOTH",
"97 102 OFFCURVE",
"99 98 OFFCURVE",
"101 98 CURVE SMOOTH",
"103 98 OFFCURVE",
"106 102 OFFCURVE",
"108 109 CURVE SMOOTH",
"115 130 OFFCURVE",
"139 153 OFFCURVE",
"180 178 CURVE SMOOTH",
"222 203 OFFCURVE",
"255 216 OFFCURVE",
"278 216 CURVE SMOOTH",
"302 216 OFFCURVE",
"314 206 OFFCURVE",
"314 185 CURVE SMOOTH",
"314 152 OFFCURVE",
"284 115 OFFCURVE",
"225 74 CURVE SMOOTH",
"166 33 OFFCURVE",
"118 12 OFFCURVE",
"80 12 CURVE SMOOTH",
"51 12 OFFCURVE",
"35 26 OFFCURVE",
"35 53 CURVE SMOOTH",
"35 83 OFFCURVE",
"55 130 OFFCURVE",
"99 192 CURVE SMOOTH",
"142 252 OFFCURVE",
"191 306 OFFCURVE",
"246 354 CURVE SMOOTH",
"301 403 OFFCURVE",
"345 427 OFFCURVE",
"376 427 CURVE SMOOTH",
"383 427 OFFCURVE",
"391 422 OFFCURVE",
"401 412 CURVE",
"404 412 OFFCURVE",
"410 429 OFFCURVE",
"383 447 CURVE SMOOTH",
"370 456 OFFCURVE",
"358 460 OFFCURVE",
"346 460 CURVE SMOOTH",
"285 460 OFFCURVE",
"217 411 OFFCURVE",
"134 315 CURVE SMOOTH",
"50 218 OFFCURVE",
"10 145 OFFCURVE",
"10 86 CURVE SMOOTH",
"10 17 OFFCURVE",
"43 -17 OFFCURVE",
"108 -17 CURVE SMOOTH"
);
}
);
width = 371;
}
);
note = six;
unicode = 0036;
},
{
glyphname = seven;
lastChange = "2021-04-15 17:47:42 +0000";
layers = (
{
background = {
paths = (
{
closed = 1;
nodes = (
"55 -42 OFFCURVE",
"34 -32 OFFCURVE",
"34 -17 CURVE SMOOTH",
"34 0 OFFCURVE",
"43 22 OFFCURVE",
"60 50 CURVE SMOOTH",
"141 178 OFFCURVE",
"250 275 OFFCURVE",
"387 340 CURVE",
"387 353 OFFCURVE",
"381 363 OFFCURVE",
"370 369 CURVE",
"376 377 LINE",
"376 401 OFFCURVE",
"337 413 OFFCURVE",
"258 413 CURVE SMOOTH",
"180 413 OFFCURVE",
"107 401 OFFCURVE",
"39 376 CURVE",
"29 359 OFFCURVE",
"24 341 OFFCURVE",
"24 324 CURVE SMOOTH",
"24 307 OFFCURVE",
"27 299 OFFCURVE",
"34 299 CURVE SMOOTH",
"36 299 OFFCURVE",
"36 304 OFFCURVE",
"41 316 CURVE SMOOTH",
"45 326 OFFCURVE",
"51 336 OFFCURVE",
"57 340 CURVE SMOOTH",
"91 361 OFFCURVE",
"152 371 OFFCURVE",
"239 371 CURVE SMOOTH",
"262 371 OFFCURVE",
"284 370 OFFCURVE",
"303 368 CURVE",
"248 342 OFFCURVE",
"186 289 OFFCURVE",
"117 208 CURVE SMOOTH",
"48 128 OFFCURVE",
"13 67 OFFCURVE",
"13 24 CURVE SMOOTH",
"13 -7 OFFCURVE",
"23 -42 OFFCURVE",
"40 -42 CURVE SMOOTH"
);
}
);
};
hints = (
{
horizontal = 1;
place = "{341, 42}";
type = Stem;
},
{
place = "{13, 21}";
type = Stem;
}
);
layerId = "8B85D65B-9817-42FC-8CCD-19CD4C331E33";
paths = (
{
closed = 1;
nodes = (
"55 -42 OFFCURVE",
"34 -32 OFFCURVE",
"34 -17 CURVE SMOOTH",
"34 0 OFFCURVE",
"43 22 OFFCURVE",
"60 50 CURVE SMOOTH",
"141 178 OFFCURVE",
"250 275 OFFCURVE",
"387 340 CURVE",
"387 353 OFFCURVE",
"381 363 OFFCURVE",
"370 369 CURVE",
"376 377 LINE",
"376 401 OFFCURVE",
"337 413 OFFCURVE",
"258 413 CURVE SMOOTH",
"180 413 OFFCURVE",
"107 401 OFFCURVE",
"39 376 CURVE",
"29 359 OFFCURVE",
"24 341 OFFCURVE",
"24 324 CURVE SMOOTH",
"24 307 OFFCURVE",
"27 299 OFFCURVE",
"34 299 CURVE SMOOTH",
"36 299 OFFCURVE",
"36 304 OFFCURVE",
"41 316 CURVE SMOOTH",
"45 326 OFFCURVE",
"51 336 OFFCURVE",
"57 340 CURVE SMOOTH",
"91 361 OFFCURVE",
"152 371 OFFCURVE",
"239 371 CURVE SMOOTH",
"262 371 OFFCURVE",
"284 370 OFFCURVE",
"303 368 CURVE",
"248 342 OFFCURVE",
"186 289 OFFCURVE",
"117 208 CURVE SMOOTH",
"48 128 OFFCURVE",
"13 67 OFFCURVE",
"13 24 CURVE SMOOTH",
"13 -7 OFFCURVE",
"23 -42 OFFCURVE",
"40 -42 CURVE SMOOTH"
);
}
);
width = 326;
}
);
note = seven;
unicode = 0037;
},
{
glyphname = eight;
lastChange = "2021-04-15 17:47:42 +0000";
layers = (
{
background = {
paths = (
{
closed = 1;
nodes = (
"190 -13 OFFCURVE",
"228 -2 OFFCURVE",
"261 28 CURVE SMOOTH",
"284 48 OFFCURVE",
"295 69 OFFCURVE",
"295 91 CURVE SMOOTH",
"295 120 OFFCURVE",
"269 157 OFFCURVE",
"218 204 CURVE",
"379 320 LINE",
"450 379 OFFCURVE",
"486 429 OFFCURVE",
"486 468 CURVE SMOOTH",
"486 474 OFFCURVE",
"484 477 OFFCURVE",
"480 477 CURVE SMOOTH",
"478 477 LINE",
"461 435 OFFCURVE",
"429 395 OFFCURVE",
"381 356 CURVE",
"283 288 OFFCURVE",
"233 253 OFFCURVE",
"230 252 CURVE",
"215 241 OFFCURVE",
"192 221 OFFCURVE",
"192 226 CURVE",
"190 226 OFFCURVE",
"180 233 OFFCURVE",
"162 247 CURVE SMOOTH",
"145 261 OFFCURVE",
"136 269 OFFCURVE",
"136 272 CURVE SMOOTH",
"136 301 OFFCURVE",
"202 337 OFFCURVE",
"335 381 CURVE SMOOTH",
"365 391 OFFCURVE",
"390 396 OFFCURVE",
"410 396 CURVE SMOOTH",
"413 396 OFFCURVE",
"415 397 OFFCURVE",
"415 400 CURVE SMOOTH",
"415 415 OFFCURVE",
"382 427 OFFCURVE",
"355 426 CURVE SMOOTH",
"353 426 LINE SMOOTH",
"322 426 OFFCURVE",
"287 417 OFFCURVE",
"249 404 CURVE SMOOTH",
"211 391 OFFCURVE",
"178 373 OFFCURVE",
"149 352 CURVE SMOOTH",
"120 331 OFFCURVE",
"106 311 OFFCURVE",
"106 292 CURVE SMOOTH",
"106 281 OFFCURVE",
"113 266 OFFCURVE",
"127 245 CURVE SMOOTH",
"141 224 OFFCURVE",
"153 211 OFFCURVE",
"163 204 CURVE",
"75 137 LINE",
"38 103 OFFCURVE",
"19 74 OFFCURVE",
"19 49 CURVE SMOOTH",
"19 32 OFFCURVE",
"33 18 OFFCURVE",
"61 6 CURVE SMOOTH",
"89 -7 OFFCURVE",
"118 -13 OFFCURVE",
"147 -13 CURVE SMOOTH"
);
},
{
closed = 1;
nodes = (
"52 32 LINE",
"52 65 OFFCURVE",
"70 88 OFFCURVE",
"134 140 CURVE SMOOTH",
"162 162 OFFCURVE",
"187 180 OFFCURVE",
"194 182 CURVE",
"201 182 OFFCURVE",
"213 173 OFFCURVE",
"228 156 CURVE SMOOTH",
"243 139 OFFCURVE",
"251 127 OFFCURVE",
"251 122 CURVE SMOOTH",
"251 95 OFFCURVE",
"214 68 OFFCURVE",
"141 40 CURVE SMOOTH",
"125 34 OFFCURVE",
"115 30 OFFCURVE",
"111 31 CURVE SMOOTH",
"106 32 LINE",
"98 28 LINE",
"94 29 LINE",
"87 26 OFFCURVE",
"78 25 OFFCURVE",
"66 25 CURVE"
);
}
);
};
hints = (
{
horizontal = 1;
place = "{-43, 44}";
type = Stem;
},
{
horizontal = 1;
place = "{366, 31}";
type = Stem;
},
{
place = "{19, 33}";
type = Stem;
},
{
place = "{106, 30}";
type = Stem;
},
{
place = "{251, 44}";
type = Stem;
},
{
place = "{478, 8}";
type = Stem;
}
);
layerId = "8B85D65B-9817-42FC-8CCD-19CD4C331E33";
paths = (
{
closed = 1;
nodes = (
"190 -13 OFFCURVE",
"228 -2 OFFCURVE",
"261 28 CURVE SMOOTH",
"284 48 OFFCURVE",
"295 69 OFFCURVE",
"295 91 CURVE SMOOTH",
"295 120 OFFCURVE",
"269 157 OFFCURVE",
"218 204 CURVE",
"379 320 LINE",
"450 379 OFFCURVE",
"486 429 OFFCURVE",
"486 468 CURVE SMOOTH",
"486 474 OFFCURVE",
"484 477 OFFCURVE",
"480 477 CURVE SMOOTH",
"478 477 LINE",
"461 435 OFFCURVE",
"429 395 OFFCURVE",
"381 356 CURVE",
"283 288 OFFCURVE",
"233 253 OFFCURVE",
"230 252 CURVE",
"215 241 OFFCURVE",
"192 221 OFFCURVE",
"192 226 CURVE",
"190 226 OFFCURVE",
"180 233 OFFCURVE",
"162 247 CURVE SMOOTH",
"145 261 OFFCURVE",
"136 269 OFFCURVE",
"136 272 CURVE SMOOTH",
"136 301 OFFCURVE",
"202 337 OFFCURVE",
"335 381 CURVE SMOOTH",
"365 391 OFFCURVE",
"390 396 OFFCURVE",
"410 396 CURVE SMOOTH",
"413 396 OFFCURVE",
"415 397 OFFCURVE",
"415 400 CURVE SMOOTH",
"415 415 OFFCURVE",
"382 427 OFFCURVE",
"355 426 CURVE SMOOTH",
"353 426 LINE SMOOTH",
"322 426 OFFCURVE",
"287 417 OFFCURVE",
"249 404 CURVE SMOOTH",
"211 391 OFFCURVE",
"178 373 OFFCURVE",
"149 352 CURVE SMOOTH",
"120 331 OFFCURVE",
"106 311 OFFCURVE",
"106 292 CURVE SMOOTH",
"106 281 OFFCURVE",
"113 266 OFFCURVE",
"127 245 CURVE SMOOTH",
"141 224 OFFCURVE",
"153 211 OFFCURVE",
"163 204 CURVE",
"75 137 LINE",
"38 103 OFFCURVE",
"19 74 OFFCURVE",
"19 49 CURVE SMOOTH",
"19 32 OFFCURVE",
"33 18 OFFCURVE",
"61 6 CURVE SMOOTH",
"89 -7 OFFCURVE",
"118 -13 OFFCURVE",
"147 -13 CURVE SMOOTH"
);
},
{
closed = 1;
nodes = (
"52 32 LINE",
"52 65 OFFCURVE",
"70 88 OFFCURVE",
"134 140 CURVE SMOOTH",
"162 162 OFFCURVE",
"187 180 OFFCURVE",
"194 182 CURVE",
"201 182 OFFCURVE",
"213 173 OFFCURVE",
"228 156 CURVE SMOOTH",
"243 139 OFFCURVE",
"251 127 OFFCURVE",
"251 122 CURVE SMOOTH",
"251 95 OFFCURVE",
"214 68 OFFCURVE",
"141 40 CURVE SMOOTH",
"125 34 OFFCURVE",
"115 30 OFFCURVE",
"111 31 CURVE SMOOTH",
"106 32 LINE",
"98 28 LINE",
"94 29 LINE",
"87 26 OFFCURVE",
"78 25 OFFCURVE",
"66 25 CURVE"
);
}
);
width = 458;
}
);
note = eight;
unicode = 0038;
},
{
glyphname = nine;
lastChange = "2021-04-15 17:47:42 +0000";
layers = (
{
background = {
paths = (
{
closed = 1;
nodes = (
"185 -72 OFFCURVE",
"193 -69 OFFCURVE",
"195 -63 CURVE",
"194 -59 OFFCURVE",
"189 -59 OFFCURVE",
"188 -59 CURVE SMOOTH",
"171 -61 LINE SMOOTH",
"160 -62 OFFCURVE",
"154 -51 OFFCURVE",
"154 -32 CURVE SMOOTH",
"154 13 OFFCURVE",
"193 103 OFFCURVE",
"272 240 CURVE SMOOTH",
"285 262 OFFCURVE",
"300 294 OFFCURVE",
"312 310 CURVE",
"312 315 OFFCURVE",
"307 322 OFFCURVE",
"297 329 CURVE SMOOTH",
"288 336 OFFCURVE",
"281 340 OFFCURVE",
"276 340 CURVE",
"246 311 OFFCURVE",
"215 287 OFFCURVE",
"184 268 CURVE SMOOTH",
"149 247 OFFCURVE",
"101 229 OFFCURVE",
"60 229 CURVE SMOOTH",
"39 229 OFFCURVE",
"29 236 OFFCURVE",
"29 249 CURVE SMOOTH",
"29 278 OFFCURVE",
"52 312 OFFCURVE",
"97 351 CURVE SMOOTH",
"143 390 OFFCURVE",
"180 410 OFFCURVE",
"209 410 CURVE SMOOTH",
"221 410 OFFCURVE",
"229 400 OFFCURVE",
"232 380 CURVE SMOOTH",
"235 361 OFFCURVE",
"240 351 OFFCURVE",
"247 351 CURVE SMOOTH",
"259 351 OFFCURVE",
"266 360 OFFCURVE",
"266 371 CURVE SMOOTH",
"266 386 OFFCURVE",
"257 400 OFFCURVE",
"239 413 CURVE SMOOTH",
"222 426 OFFCURVE",
"207 432 OFFCURVE",
"195 432 CURVE SMOOTH",
"158 432 OFFCURVE",
"117 414 OFFCURVE",
"70 378 CURVE SMOOTH",
"23 342 OFFCURVE",
"0 308 OFFCURVE",
"0 277 CURVE SMOOTH",
"0 236 OFFCURVE",
"41 198 OFFCURVE",
"82 198 CURVE SMOOTH",
"115 198 OFFCURVE",
"164 222 OFFCURVE",
"230 270 CURVE",
"204 235 OFFCURVE",
"179 189 OFFCURVE",
"155 132 CURVE SMOOTH",
"132 75 OFFCURVE",
"120 30 OFFCURVE",
"120 -2 CURVE SMOOTH",
"120 -49 OFFCURVE",
"137 -72 OFFCURVE",
"171 -72 CURVE SMOOTH"
);
}
);
};
hints = (
{
horizontal = 1;
place = "{-102, 11}";
type = Stem;
},
{
horizontal = 1;
place = "{168, 31}";
type = Stem;
},
{
horizontal = 1;
place = "{310, -20}";
target = down;
type = TopGhost;
},
{
horizontal = 1;
place = "{380, 22}";
type = Stem;
},
{
place = "{0, 29}";
type = Stem;
},
{
place = "{120, 34}";
type = Stem;
}
);
layerId = "8B85D65B-9817-42FC-8CCD-19CD4C331E33";
paths = (
{
closed = 1;
nodes = (
"185 -72 OFFCURVE",
"193 -69 OFFCURVE",
"195 -63 CURVE",
"194 -59 OFFCURVE",
"189 -59 OFFCURVE",
"188 -59 CURVE SMOOTH",
"171 -61 LINE SMOOTH",
"160 -62 OFFCURVE",
"154 -51 OFFCURVE",
"154 -32 CURVE SMOOTH",
"154 13 OFFCURVE",
"193 103 OFFCURVE",
"272 240 CURVE SMOOTH",
"285 262 OFFCURVE",
"300 294 OFFCURVE",
"312 310 CURVE",
"312 315 OFFCURVE",
"307 322 OFFCURVE",
"297 329 CURVE SMOOTH",
"288 336 OFFCURVE",
"281 340 OFFCURVE",
"276 340 CURVE",
"246 311 OFFCURVE",
"215 287 OFFCURVE",
"184 268 CURVE SMOOTH",
"149 247 OFFCURVE",
"101 229 OFFCURVE",
"60 229 CURVE SMOOTH",
"39 229 OFFCURVE",
"29 236 OFFCURVE",
"29 249 CURVE SMOOTH",
"29 278 OFFCURVE",
"52 312 OFFCURVE",
"97 351 CURVE SMOOTH",
"143 390 OFFCURVE",
"180 410 OFFCURVE",
"209 410 CURVE SMOOTH",
"221 410 OFFCURVE",
"229 400 OFFCURVE",
"232 380 CURVE SMOOTH",
"235 361 OFFCURVE",
"240 351 OFFCURVE",
"247 351 CURVE SMOOTH",
"259 351 OFFCURVE",
"266 360 OFFCURVE",
"266 371 CURVE SMOOTH",
"266 386 OFFCURVE",
"257 400 OFFCURVE",
"239 413 CURVE SMOOTH",
"222 426 OFFCURVE",
"207 432 OFFCURVE",
"195 432 CURVE SMOOTH",
"158 432 OFFCURVE",
"117 414 OFFCURVE",
"70 378 CURVE SMOOTH",
"23 342 OFFCURVE",
"0 308 OFFCURVE",
"0 277 CURVE SMOOTH",
"0 236 OFFCURVE",
"41 198 OFFCURVE",
"82 198 CURVE SMOOTH",
"115 198 OFFCURVE",
"164 222 OFFCURVE",
"230 270 CURVE",
"204 235 OFFCURVE",
"179 189 OFFCURVE",
"155 132 CURVE SMOOTH",
"132 75 OFFCURVE",
"120 30 OFFCURVE",
"120 -2 CURVE SMOOTH",
"120 -49 OFFCURVE",
"137 -72 OFFCURVE",
"171 -72 CURVE SMOOTH"
);
}
);
width = 305;
}
);
note = nine;
unicode = 0039;
},
{
glyphname = colon;
lastChange = "2021-04-15 17:47:42 +0000";
layers = (
{
background = {
paths = (
{
closed = 1;
nodes = (
"141 149 OFFCURVE",
"156 159 OFFCURVE",
"156 171 CURVE SMOOTH",
"156 184 OFFCURVE",
"140 197 OFFCURVE",
"125 197 CURVE SMOOTH",
"106 197 OFFCURVE",
"96 190 OFFCURVE",
"96 175 CURVE SMOOTH",
"96 158 OFFCURVE",
"107 149 OFFCURVE",
"128 149 CURVE SMOOTH"
);
},
{
closed = 1;
nodes = (
"110 2 OFFCURVE",
"126 13 OFFCURVE",
"126 26 CURVE SMOOTH",
"126 38 OFFCURVE",
"111 50 OFFCURVE",
"95 50 CURVE SMOOTH",
"76 50 OFFCURVE",
"66 43 OFFCURVE",
"66 29 CURVE SMOOTH",
"66 11 OFFCURVE",
"77 2 OFFCURVE",
"98 2 CURVE SMOOTH"
);
}
);
};
hints = (
{
horizontal = 1;
place = "{-28, 48}";
type = Stem;
},
{
horizontal = 1;
place = "{119, 48}";
type = Stem;
},
{
place = "{66, 60}";
type = Stem;
},
{
place = "{96, 60}";
type = Stem;
}
);
layerId = "8B85D65B-9817-42FC-8CCD-19CD4C331E33";
paths = (
{
closed = 1;
nodes = (
"141 149 OFFCURVE",
"156 159 OFFCURVE",
"156 171 CURVE SMOOTH",
"156 184 OFFCURVE",
"140 197 OFFCURVE",
"125 197 CURVE SMOOTH",
"106 197 OFFCURVE",
"96 190 OFFCURVE",
"96 175 CURVE SMOOTH",
"96 158 OFFCURVE",
"107 149 OFFCURVE",
"128 149 CURVE SMOOTH"
);
},
{
closed = 1;
nodes = (
"110 2 OFFCURVE",
"126 13 OFFCURVE",
"126 26 CURVE SMOOTH",
"126 38 OFFCURVE",
"111 50 OFFCURVE",
"95 50 CURVE SMOOTH",
"76 50 OFFCURVE",
"66 43 OFFCURVE",
"66 29 CURVE SMOOTH",
"66 11 OFFCURVE",
"77 2 OFFCURVE",
"98 2 CURVE SMOOTH"
);
}
);
width = 170;
}
);
note = colon;
unicode = 003A;
},
{
glyphname = semicolon;
lastChange = "2021-04-15 17:47:42 +0000";
layers = (
{
background = {
paths = (
{
closed = 1;
nodes = (
"82 -57 OFFCURVE",
"96 -47 OFFCURVE",
"108 -28 CURVE SMOOTH",
"120 -9 OFFCURVE",
"126 7 OFFCURVE",
"126 18 CURVE SMOOTH",
"126 41 OFFCURVE",
"111 50 OFFCURVE",
"95 50 CURVE SMOOTH",
"80 50 OFFCURVE",
"73 43 OFFCURVE",
"73 28 CURVE SMOOTH",
"73 23 OFFCURVE",
"93 8 OFFCURVE",
"93 -3 CURVE",
"90 -17 OFFCURVE",
"80 -34 OFFCURVE",
"61 -55 CURVE",
"61 -56 OFFCURVE",
"62 -57 OFFCURVE",
"65 -57 CURVE SMOOTH"
);
},
{
closed = 1;
nodes = (
"141 149 OFFCURVE",
"156 159 OFFCURVE",
"156 171 CURVE SMOOTH",
"156 184 OFFCURVE",
"140 197 OFFCURVE",
"125 197 CURVE SMOOTH",
"106 197 OFFCURVE",
"96 190 OFFCURVE",
"96 175 CURVE SMOOTH",
"96 158 OFFCURVE",
"107 149 OFFCURVE",
"128 149 CURVE SMOOTH"
);
}
);
};
hints = (
{
horizontal = 1;
place = "{119, 48}";
type = Stem;
},
{
place = "{93, 33}";
type = Stem;
},
{
place = "{96, 60}";
type = Stem;
}
);
layerId = "8B85D65B-9817-42FC-8CCD-19CD4C331E33";
paths = (
{
closed = 1;
nodes = (
"82 -57 OFFCURVE",
"96 -47 OFFCURVE",
"108 -28 CURVE SMOOTH",
"120 -9 OFFCURVE",
"126 7 OFFCURVE",
"126 18 CURVE SMOOTH",
"126 41 OFFCURVE",
"111 50 OFFCURVE",
"95 50 CURVE SMOOTH",
"80 50 OFFCURVE",
"73 43 OFFCURVE",
"73 28 CURVE SMOOTH",
"73 23 OFFCURVE",
"93 8 OFFCURVE",
"93 -3 CURVE",
"90 -17 OFFCURVE",
"80 -34 OFFCURVE",
"61 -55 CURVE",
"61 -56 OFFCURVE",
"62 -57 OFFCURVE",
"65 -57 CURVE SMOOTH"
);
},
{
closed = 1;
nodes = (
"141 149 OFFCURVE",
"156 159 OFFCURVE",
"156 171 CURVE SMOOTH",
"156 184 OFFCURVE",
"140 197 OFFCURVE",
"125 197 CURVE SMOOTH",
"106 197 OFFCURVE",
"96 190 OFFCURVE",
"96 175 CURVE SMOOTH",
"96 158 OFFCURVE",
"107 149 OFFCURVE",
"128 149 CURVE SMOOTH"
);
}
);
width = 170;
}
);
note = semicolon;
unicode = 003B;
},
{
glyphname = less;
lastChange = "2021-04-15 17:47:42 +0000";
layers = (
{
background = {
paths = (
{
closed = 1;
nodes = (
"165 106 LINE SMOOTH",
"169 106 OFFCURVE",
"171 109 OFFCURVE",
"171 115 CURVE SMOOTH",
"171 122 OFFCURVE",
"147 155 OFFCURVE",
"98 216 CURVE",
"147 284 OFFCURVE",
"172 322 OFFCURVE",
"172 331 CURVE SMOOTH",
"172 334 OFFCURVE",
"170 336 OFFCURVE",
"167 336 CURVE SMOOTH",
"161 336 OFFCURVE",
"142 314 OFFCURVE",
"111 271 CURVE SMOOTH",
"80 228 OFFCURVE",
"64 203 OFFCURVE",
"64 196 CURVE SMOOTH",
"64 194 OFFCURVE",
"67 190 OFFCURVE",
"66 191 CURVE SMOOTH",
"113 156 OFFCURVE",
"145 127 OFFCURVE",
"157 109 CURVE",
"164 106 LINE"
);
}
);
};
hints = (
{
horizontal = 1;
place = "{76, 230}";
type = Stem;
},
{
place = "{64, 108}";
type = Stem;
}
);
layerId = "8B85D65B-9817-42FC-8CCD-19CD4C331E33";
paths = (
{
closed = 1;
nodes = (
"165 106 LINE SMOOTH",
"169 106 OFFCURVE",
"171 109 OFFCURVE",
"171 115 CURVE SMOOTH",
"171 122 OFFCURVE",
"147 155 OFFCURVE",
"98 216 CURVE",
"147 284 OFFCURVE",
"172 322 OFFCURVE",
"172 331 CURVE SMOOTH",
"172 334 OFFCURVE",
"170 336 OFFCURVE",
"167 336 CURVE SMOOTH",
"161 336 OFFCURVE",
"142 314 OFFCURVE",
"111 271 CURVE SMOOTH",
"80 228 OFFCURVE",
"64 203 OFFCURVE",
"64 196 CURVE SMOOTH",
"64 194 OFFCURVE",
"67 190 OFFCURVE",
"66 191 CURVE SMOOTH",
"113 156 OFFCURVE",
"145 127 OFFCURVE",
"157 109 CURVE",
"164 106 LINE"
);
}
);
width = 240;
}
);
note = less;
unicode = 003C;
},
{
glyphname = equal;
lastChange = "2021-04-15 17:47:42 +0000";
layers = (
{
background = {
paths = (
{
closed = 1;
nodes = (
"154 162 OFFCURVE",
"187 166 OFFCURVE",
"232 175 CURVE SMOOTH",
"277 184 OFFCURVE",
"300 192 OFFCURVE",
"300 198 CURVE SMOOTH",
"300 199 OFFCURVE",
"300 200 OFFCURVE",
"299 201 CURVE",
"279 200 OFFCURVE",
"255 199 OFFCURVE",
"227 199 CURVE SMOOTH",
"33 198 LINE SMOOTH",
"20 198 OFFCURVE",
"14 191 OFFCURVE",
"14 180 CURVE SMOOTH",
"14 168 OFFCURVE",
"53 162 OFFCURVE",
"132 162 CURVE SMOOTH"
);
},
{
closed = 1;
nodes = (
"179 253 OFFCURVE",
"213 257 OFFCURVE",
"257 266 CURVE SMOOTH",
"301 275 OFFCURVE",
"323 282 OFFCURVE",
"323 289 CURVE SMOOTH",
"323 291 LINE",
"313 290 OFFCURVE",
"289 290 OFFCURVE",
"251 290 CURVE SMOOTH",
"58 289 LINE SMOOTH",
"46 289 OFFCURVE",
"40 282 OFFCURVE",
"40 270 CURVE SMOOTH",
"40 259 OFFCURVE",
"79 253 OFFCURVE",
"156 253 CURVE SMOOTH"
);
}
);
};
hints = (
{
horizontal = 1;
place = "{132, 37}";
type = Stem;
},
{
horizontal = 1;
place = "{223, 37}";
type = Stem;
},
{
place = "{14, 309}";
type = Stem;
}
);
layerId = "8B85D65B-9817-42FC-8CCD-19CD4C331E33";
paths = (
{
closed = 1;
nodes = (
"154 162 OFFCURVE",
"187 166 OFFCURVE",
"232 175 CURVE SMOOTH",
"277 184 OFFCURVE",
"300 192 OFFCURVE",
"300 198 CURVE SMOOTH",
"300 199 OFFCURVE",
"300 200 OFFCURVE",
"299 201 CURVE",
"279 200 OFFCURVE",
"255 199 OFFCURVE",
"227 199 CURVE SMOOTH",
"33 198 LINE SMOOTH",
"20 198 OFFCURVE",
"14 191 OFFCURVE",
"14 180 CURVE SMOOTH",
"14 168 OFFCURVE",
"53 162 OFFCURVE",
"132 162 CURVE SMOOTH"
);
},
{
closed = 1;
nodes = (
"179 253 OFFCURVE",
"213 257 OFFCURVE",
"257 266 CURVE SMOOTH",
"301 275 OFFCURVE",
"323 282 OFFCURVE",
"323 289 CURVE SMOOTH",
"323 291 LINE",
"313 290 OFFCURVE",
"289 290 OFFCURVE",
"251 290 CURVE SMOOTH",
"58 289 LINE SMOOTH",
"46 289 OFFCURVE",
"40 282 OFFCURVE",
"40 270 CURVE SMOOTH",
"40 259 OFFCURVE",
"79 253 OFFCURVE",
"156 253 CURVE SMOOTH"
);
}
);
width = 306;
}
);
note = equal;
unicode = 003D;
},
{
glyphname = greater;
lastChange = "2021-04-15 17:47:42 +0000";
layers = (
{
background = {
paths = (
{
closed = 1;
nodes = (
"73 100 OFFCURVE",
"92 121 OFFCURVE",
"124 164 CURVE SMOOTH",
"156 207 OFFCURVE",
"172 233 OFFCURVE",
"172 241 CURVE SMOOTH",
"172 243 OFFCURVE",
"169 246 OFFCURVE",
"170 245 CURVE SMOOTH",
"122 282 OFFCURVE",
"92 310 OFFCURVE",
"79 328 CURVE",
"73 330 LINE",
"71 330 LINE SMOOTH",
"67 330 OFFCURVE",
"65 327 OFFCURVE",
"65 322 CURVE SMOOTH",
"65 317 OFFCURVE",
"90 283 OFFCURVE",
"139 220 CURVE",
"89 151 OFFCURVE",
"64 112 OFFCURVE",
"64 105 CURVE SMOOTH",
"64 102 OFFCURVE",
"65 100 OFFCURVE",
"68 100 CURVE SMOOTH"
);
}
);
};
hints = (
{
horizontal = 1;
place = "{70, 230}";
type = Stem;
},
{
place = "{64, 108}";
type = Stem;
}
);
layerId = "8B85D65B-9817-42FC-8CCD-19CD4C331E33";
paths = (
{
closed = 1;
nodes = (
"73 100 OFFCURVE",
"92 121 OFFCURVE",
"124 164 CURVE SMOOTH",
"156 207 OFFCURVE",
"172 233 OFFCURVE",
"172 241 CURVE SMOOTH",
"172 243 OFFCURVE",
"169 246 OFFCURVE",
"170 245 CURVE SMOOTH",
"122 282 OFFCURVE",
"92 310 OFFCURVE",
"79 328 CURVE",
"73 330 LINE",
"71 330 LINE SMOOTH",
"67 330 OFFCURVE",
"65 327 OFFCURVE",
"65 322 CURVE SMOOTH",
"65 317 OFFCURVE",
"90 283 OFFCURVE",
"139 220 CURVE",
"89 151 OFFCURVE",
"64 112 OFFCURVE",
"64 105 CURVE SMOOTH",
"64 102 OFFCURVE",
"65 100 OFFCURVE",
"68 100 CURVE SMOOTH"
);
}
);
width = 240;
}
);
note = greater;
unicode = 003E;
},
{
glyphname = question;
lastChange = "2021-04-15 17:47:42 +0000";
layers = (
{
background = {
paths = (
{
closed = 1;
nodes = (
"157 92 OFFCURVE",
"165 94 OFFCURVE",
"165 99 CURVE SMOOTH",
"165 101 OFFCURVE",
"164 100 OFFCURVE",
"148 108 CURVE SMOOTH",
"114 125 OFFCURVE",
"97 141 OFFCURVE",
"97 155 CURVE SMOOTH",
"97 180 OFFCURVE",
"141 210 OFFCURVE",
"230 245 CURVE SMOOTH",
"263 258 OFFCURVE",
"294 274 OFFCURVE",
"321 293 CURVE SMOOTH",
"349 312 OFFCURVE",
"363 332 OFFCURVE",
"363 353 CURVE SMOOTH",
"363 374 OFFCURVE",
"347 392 OFFCURVE",
"315 407 CURVE SMOOTH",
"283 422 OFFCURVE",
"246 430 OFFCURVE",
"204 430 CURVE SMOOTH",
"163 430 OFFCURVE",
"130 425 OFFCURVE",
"107 415 CURVE SMOOTH",
"84 406 OFFCURVE",
"73 393 OFFCURVE",
"73 376 CURVE SMOOTH",
"73 372 OFFCURVE",
"76 363 OFFCURVE",
"82 349 CURVE SMOOTH",
"89 335 OFFCURVE",
"94 328 OFFCURVE",
"98 328 CURVE SMOOTH",
"100 328 OFFCURVE",
"101 330 OFFCURVE",
"101 333 CURVE",
"97 349 LINE",
"97 377 OFFCURVE",
"135 391 OFFCURVE",
"211 391 CURVE SMOOTH",
"287 391 OFFCURVE",
"325 382 OFFCURVE",
"325 365 CURVE SMOOTH",
"325 343 OFFCURVE",
"283 315 OFFCURVE",
"200 281 CURVE SMOOTH",
"169 268 OFFCURVE",
"140 252 OFFCURVE",
"114 232 CURVE SMOOTH",
"88 212 OFFCURVE",
"75 192 OFFCURVE",
"75 172 CURVE SMOOTH",
"75 153 OFFCURVE",
"82 134 OFFCURVE",
"96 117 CURVE SMOOTH",
"111 100 OFFCURVE",
"126 92 OFFCURVE",
"141 92 CURVE SMOOTH"
);
},
{
closed = 1;
nodes = (
"103 20 OFFCURVE",
"125 41 OFFCURVE",
"125 39 CURVE SMOOTH",
"125 47 OFFCURVE",
"116 51 OFFCURVE",
"99 51 CURVE SMOOTH",
"82 51 OFFCURVE",
"70 44 OFFCURVE",
"61 31 CURVE SMOOTH",
"52 18 OFFCURVE",
"48 3 OFFCURVE",
"48 -15 CURVE SMOOTH",
"48 -22 OFFCURVE",
"51 -25 OFFCURVE",
"58 -25 CURVE"
);
}
);
};
hints = (
{
horizontal = 1;
place = "{361, 39}";
type = Stem;
},
{
place = "{75, 22}";
type = Stem;
},
{
place = "{325, 38}";
type = Stem;
},
{
horizontal = 1;
place = "{9, 12}";
type = Stem;
},
{
place = "{48, 10}";
type = Stem;
}
);
layerId = "8B85D65B-9817-42FC-8CCD-19CD4C331E33";
paths = (
{
closed = 1;
nodes = (
"157 92 OFFCURVE",
"165 94 OFFCURVE",
"165 99 CURVE SMOOTH",
"165 101 OFFCURVE",
"164 100 OFFCURVE",
"148 108 CURVE SMOOTH",
"114 125 OFFCURVE",
"97 141 OFFCURVE",
"97 155 CURVE SMOOTH",
"97 180 OFFCURVE",
"141 210 OFFCURVE",
"230 245 CURVE SMOOTH",
"263 258 OFFCURVE",
"294 274 OFFCURVE",
"321 293 CURVE SMOOTH",
"349 312 OFFCURVE",
"363 332 OFFCURVE",
"363 353 CURVE SMOOTH",
"363 374 OFFCURVE",
"347 392 OFFCURVE",
"315 407 CURVE SMOOTH",
"283 422 OFFCURVE",
"246 430 OFFCURVE",
"204 430 CURVE SMOOTH",
"163 430 OFFCURVE",
"130 425 OFFCURVE",
"107 415 CURVE SMOOTH",
"84 406 OFFCURVE",
"73 393 OFFCURVE",
"73 376 CURVE SMOOTH",
"73 372 OFFCURVE",
"76 363 OFFCURVE",
"82 349 CURVE SMOOTH",
"89 335 OFFCURVE",
"94 328 OFFCURVE",
"98 328 CURVE SMOOTH",
"100 328 OFFCURVE",
"101 330 OFFCURVE",
"101 333 CURVE",
"97 349 LINE",
"97 377 OFFCURVE",
"135 391 OFFCURVE",
"211 391 CURVE SMOOTH",
"287 391 OFFCURVE",
"325 382 OFFCURVE",
"325 365 CURVE SMOOTH",
"325 343 OFFCURVE",
"283 315 OFFCURVE",
"200 281 CURVE SMOOTH",
"169 268 OFFCURVE",
"140 252 OFFCURVE",
"114 232 CURVE SMOOTH",
"88 212 OFFCURVE",
"75 192 OFFCURVE",
"75 172 CURVE SMOOTH",
"75 153 OFFCURVE",
"82 134 OFFCURVE",
"96 117 CURVE SMOOTH",
"111 100 OFFCURVE",
"126 92 OFFCURVE",
"141 92 CURVE SMOOTH"
);
},
{
closed = 1;
nodes = (
"103 20 OFFCURVE",
"125 41 OFFCURVE",
"125 39 CURVE SMOOTH",
"125 47 OFFCURVE",
"116 51 OFFCURVE",
"99 51 CURVE SMOOTH",
"82 51 OFFCURVE",
"70 44 OFFCURVE",
"61 31 CURVE SMOOTH",
"52 18 OFFCURVE",
"48 3 OFFCURVE",
"48 -15 CURVE SMOOTH",
"48 -22 OFFCURVE",
"51 -25 OFFCURVE",
"58 -25 CURVE"
);
}
);
width = 302;
}
);
note = question;
unicode = 003F;
},
{
glyphname = at;
lastChange = "2021-04-15 18:07:35 +0000";
layers = (
{
background = {
paths = (
{
closed = 1;
nodes = (
"272 22 OFFCURVE",
"333 36 OFFCURVE",
"399 63 CURVE SMOOTH",
"465 91 OFFCURVE",
"521 130 OFFCURVE",
"568 179 CURVE SMOOTH",
"615 228 OFFCURVE",
"639 280 OFFCURVE",
"639 334 CURVE",
"633 373 LINE",
"646 404 OFFCURVE",
"652 427 OFFCURVE",
"652 442 CURVE SMOOTH",
"652 503 OFFCURVE",
"595 542 OFFCURVE",
"498 542 CURVE SMOOTH",
"449 542 OFFCURVE",
"398 531 OFFCURVE",
"344 509 CURVE SMOOTH",
"236 466 OFFCURVE",
"145 397 OFFCURVE",
"88 302 CURVE SMOOTH",
"59 255 OFFCURVE",
"45 207 OFFCURVE",
"45 160 CURVE SMOOTH",
"45 68 OFFCURVE",
"102 22 OFFCURVE",
"216 22 CURVE SMOOTH"
);
},
{
closed = 1;
nodes = (
"125 38 OFFCURVE",
"85 73 OFFCURVE",
"85 143 CURVE SMOOTH",
"85 200 OFFCURVE",
"106 259 OFFCURVE",
"148 319 CURVE SMOOTH",
"190 380 OFFCURVE",
"243 429 OFFCURVE",
"308 468 CURVE SMOOTH",
"373 507 OFFCURVE",
"437 527 OFFCURVE",
"499 527 CURVE SMOOTH",
"579 527 OFFCURVE",
"630 490 OFFCURVE",
"630 433 CURVE SMOOTH",
"630 416 OFFCURVE",
"627 404 OFFCURVE",
"622 399 CURVE",
"615 409 OFFCURVE",
"609 413 OFFCURVE",
"605 413 CURVE SMOOTH",
"596 413 OFFCURVE",
"593 392 OFFCURVE",
"590 360 CURVE",
"591 349 LINE",
"514 237 LINE SMOOTH",
"479 186 OFFCURVE",
"449 157 OFFCURVE",
"426 157 CURVE SMOOTH",
"409 157 OFFCURVE",
"400 171 OFFCURVE",
"400 200 CURVE SMOOTH",
"400 244 OFFCURVE",
"415 294 OFFCURVE",
"446 349 CURVE",
"446 358 OFFCURVE",
"417 373 OFFCURVE",
"409 373 CURVE SMOOTH",
"406 373 OFFCURVE",
"404 373 OFFCURVE",
"404 372 CURVE",
"307 237 OFFCURVE",
"243 170 OFFCURVE",
"214 170 CURVE SMOOTH",
"208 170 OFFCURVE",
"204 175 OFFCURVE",
"204 187 CURVE SMOOTH",
"204 203 OFFCURVE",
"212 230 OFFCURVE",
"237 273 CURVE SMOOTH",
"259 311 OFFCURVE",
"287 346 OFFCURVE",
"320 377 CURVE SMOOTH",
"355 410 OFFCURVE",
"384 425 OFFCURVE",
"408 425 CURVE SMOOTH",
"430 425 OFFCURVE",
"446 412 OFFCURVE",
"456 387 CURVE",
"457 386 OFFCURVE",
"458 385 OFFCURVE",
"459 385 CURVE SMOOTH",
"465 385 OFFCURVE",
"468 389 OFFCURVE",
"468 396 CURVE SMOOTH",
"468 428 OFFCURVE",
"428 447 OFFCURVE",
"380 447 CURVE SMOOTH",
"370 447 LINE SMOOTH",
"346 447 OFFCURVE",
"317 431 OFFCURVE",
"283 400 CURVE SMOOTH",
"250 369 OFFCURVE",
"221 334 OFFCURVE",
"197 294 CURVE SMOOTH",
"174 254 OFFCURVE",
"162 222 OFFCURVE",
"162 197 CURVE SMOOTH",
"162 169 OFFCURVE",
"188 138 OFFCURVE",
"215 138 CURVE SMOOTH",
"250 138 OFFCURVE",
"295 186 OFFCURVE",
"345 264 CURVE SMOOTH",
"361 289 OFFCURVE",
"370 306 OFFCURVE",
"372 306 CURVE",
"362 274 OFFCURVE",
"358 245 OFFCURVE",
"358 220 CURVE SMOOTH",
"358 170 OFFCURVE",
"377 139 OFFCURVE",
"414 139 CURVE SMOOTH",
"459 139 OFFCURVE",
"517 198 OFFCURVE",
"590 315 CURVE",
"592 315 OFFCURVE",
"593 314 OFFCURVE",
"593 313 CURVE SMOOTH",
"593 271 OFFCURVE",
"558 219 OFFCURVE",
"489 157 CURVE SMOOTH",
"400 78 OFFCURVE",
"305 38 OFFCURVE",
"204 38 CURVE SMOOTH"
);
}
);
};
hints = (
{
horizontal = 1;
place = "{-8, 16}";
type = Stem;
},
{
horizontal = 1;
place = "{109, 18}";
type = Stem;
},
{
horizontal = 1;
place = "{395, 22}";
type = Stem;
},
{
horizontal = 1;
place = "{497, 15}";
type = Stem;
},
{
place = "{11, 40}";
type = Stem;
},
{
place = "{128, 42}";
type = Stem;
},
{
place = "{324, 42}";
type = Stem;
},
{
place = "{596, 22}";
type = Stem;
},
{
place = "{559, 46}";
type = Stem;
},
{
horizontal = 1;
place = "{108, 32}";
type = Stem;
},
{
place = "{422, 12}";
type = Stem;
}
);
layerId = "8B85D65B-9817-42FC-8CCD-19CD4C331E33";
paths = (
{
closed = 1;
nodes = (
"272 -68 OFFCURVE",
"333 -54 OFFCURVE",
"399 -27 CURVE SMOOTH",
"465 1 OFFCURVE",
"521 40 OFFCURVE",
"568 89 CURVE SMOOTH",
"615 138 OFFCURVE",
"639 190 OFFCURVE",
"639 244 CURVE",
"633 283 LINE",
"646 314 OFFCURVE",
"652 337 OFFCURVE",
"652 352 CURVE SMOOTH",
"652 413 OFFCURVE",
"595 452 OFFCURVE",
"498 452 CURVE SMOOTH",
"449 452 OFFCURVE",
"398 441 OFFCURVE",
"344 419 CURVE SMOOTH",
"236 376 OFFCURVE",
"145 307 OFFCURVE",
"88 212 CURVE SMOOTH",
"59 165 OFFCURVE",
"45 117 OFFCURVE",
"45 70 CURVE SMOOTH",
"45 -22 OFFCURVE",
"102 -68 OFFCURVE",
"216 -68 CURVE SMOOTH"
);
},
{
closed = 1;
nodes = (
"125 -52 OFFCURVE",
"85 -17 OFFCURVE",
"85 53 CURVE SMOOTH",
"85 110 OFFCURVE",
"106 169 OFFCURVE",
"148 229 CURVE SMOOTH",
"190 290 OFFCURVE",
"243 339 OFFCURVE",
"308 378 CURVE SMOOTH",
"373 417 OFFCURVE",
"437 437 OFFCURVE",
"499 437 CURVE SMOOTH",
"579 437 OFFCURVE",
"630 400 OFFCURVE",
"630 343 CURVE SMOOTH",
"630 326 OFFCURVE",
"627 314 OFFCURVE",
"622 309 CURVE",
"615 319 OFFCURVE",
"609 323 OFFCURVE",
"605 323 CURVE SMOOTH",
"596 323 OFFCURVE",
"593 302 OFFCURVE",
"590 270 CURVE",
"591 259 LINE",
"514 147 LINE SMOOTH",
"479 96 OFFCURVE",
"449 67 OFFCURVE",
"426 67 CURVE SMOOTH",
"409 67 OFFCURVE",
"400 81 OFFCURVE",
"400 110 CURVE SMOOTH",
"400 154 OFFCURVE",
"415 204 OFFCURVE",
"446 259 CURVE",
"446 268 OFFCURVE",
"417 283 OFFCURVE",
"409 283 CURVE SMOOTH",
"406 283 OFFCURVE",
"404 283 OFFCURVE",
"404 282 CURVE",
"307 147 OFFCURVE",
"243 80 OFFCURVE",
"214 80 CURVE SMOOTH",
"208 80 OFFCURVE",
"204 85 OFFCURVE",
"204 97 CURVE SMOOTH",
"204 113 OFFCURVE",
"212 140 OFFCURVE",
"237 183 CURVE SMOOTH",
"259 221 OFFCURVE",
"287 256 OFFCURVE",
"320 287 CURVE SMOOTH",
"355 320 OFFCURVE",
"384 335 OFFCURVE",
"408 335 CURVE SMOOTH",
"430 335 OFFCURVE",
"446 322 OFFCURVE",
"456 297 CURVE",
"457 296 OFFCURVE",
"458 295 OFFCURVE",
"459 295 CURVE SMOOTH",
"465 295 OFFCURVE",
"468 299 OFFCURVE",
"468 306 CURVE SMOOTH",
"468 338 OFFCURVE",
"428 357 OFFCURVE",
"380 357 CURVE SMOOTH",
"370 357 LINE SMOOTH",
"346 357 OFFCURVE",
"317 341 OFFCURVE",
"283 310 CURVE SMOOTH",
"250 279 OFFCURVE",
"221 244 OFFCURVE",
"197 204 CURVE SMOOTH",
"174 164 OFFCURVE",
"162 132 OFFCURVE",
"162 107 CURVE SMOOTH",
"162 79 OFFCURVE",
"188 48 OFFCURVE",
"215 48 CURVE SMOOTH",
"250 48 OFFCURVE",
"295 96 OFFCURVE",
"345 174 CURVE SMOOTH",
"361 199 OFFCURVE",
"370 216 OFFCURVE",
"372 216 CURVE",
"362 184 OFFCURVE",
"358 155 OFFCURVE",
"358 130 CURVE SMOOTH",
"358 80 OFFCURVE",
"377 49 OFFCURVE",
"414 49 CURVE SMOOTH",
"459 49 OFFCURVE",
"517 108 OFFCURVE",
"590 225 CURVE",
"592 225 OFFCURVE",
"593 224 OFFCURVE",
"593 223 CURVE SMOOTH",
"593 181 OFFCURVE",
"558 129 OFFCURVE",
"489 67 CURVE SMOOTH",
"400 -12 OFFCURVE",
"305 -52 OFFCURVE",
"204 -52 CURVE SMOOTH"
);
}
);
width = 662;
}
);
note = at;
unicode = 0040;
},
{
glyphname = A;
lastChange = "2021-04-15 17:47:42 +0000";
layers = (
{
anchors = (
{
name = bottom;
position = "{273, 30}";
},
{
name = ogonek;
position = "{568, -64}";
},
{
name = top;
position = "{694, 508}";
}
);
background = {
anchors = (
{
name = bottom;
position = "{273, 30}";
},
{
name = ogonek;
position = "{568, -64}";
},
{
name = top;
position = "{694, 508}";
}
);
paths = (
{
closed = 1;
nodes = (
"495 -84 OFFCURVE",
"493 -78 OFFCURVE",
"486 -60 CURVE SMOOTH",
"481 -48 OFFCURVE",
"478 -32 OFFCURVE",
"478 -25 CURVE SMOOTH",
"478 54 OFFCURVE",
"537 193 OFFCURVE",
"655 390 CURVE SMOOTH",
"679 430 OFFCURVE",
"700 466 OFFCURVE",
"717 491 CURVE",
"717 500 OFFCURVE",
"690 511 OFFCURVE",
"675 511 CURVE SMOOTH",
"662 511 OFFCURVE",
"644 485 OFFCURVE",
"631 460 CURVE SMOOTH",
"612 423 LINE",
"565 333 LINE SMOOTH",
"513 233 OFFCURVE",
"515 235 OFFCURVE",
"495 193 CURVE",
"376 181 LINE",
"480 291 LINE SMOOTH",
"528 342 OFFCURVE",
"551 384 OFFCURVE",
"551 414 CURVE SMOOTH",
"551 421 OFFCURVE",
"550 425 OFFCURVE",
"547 425 CURVE",
"516 380 LINE SMOOTH",
"499 355 OFFCURVE",
"466 319 OFFCURVE",
"426 278 CURVE SMOOTH",
"383 235 OFFCURVE",
"347 202 OFFCURVE",
"317 178 CURVE",
"284 178 LINE",
"249 177 LINE SMOOTH",
"200 176 OFFCURVE",
"174 180 OFFCURVE",
"166 187 CURVE",
"163 189 LINE",
"162 189 OFFCURVE",
"162 189 OFFCURVE",
"162 188 CURVE",
"160 186 LINE",
"160 159 OFFCURVE",
"187 138 OFFCURVE",
"219 139 CURVE SMOOTH",
"273 141 LINE",
"273 140 LINE",
"174 63 OFFCURVE",
"100 24 OFFCURVE",
"51 24 CURVE",
"22 29 LINE SMOOTH",
"21 29 OFFCURVE",
"20 30 OFFCURVE",
"17 28 CURVE",
"31 11 OFFCURVE",
"51 2 OFFCURVE",
"77 2 CURVE SMOOTH",
"138 2 OFFCURVE",
"224 49 OFFCURVE",
"333 144 CURVE",
"343 147 OFFCURVE",
"369 151 OFFCURVE",
"411 158 CURVE SMOOTH",
"453 165 OFFCURVE",
"479 168 OFFCURVE",
"488 168 CURVE",
"461 84 OFFCURVE",
"447 29 OFFCURVE",
"447 4 CURVE SMOOTH",
"447 -22 OFFCURVE",
"451 -43 OFFCURVE",
"459 -59 CURVE SMOOTH",
"468 -76 OFFCURVE",
"479 -84 OFFCURVE",
"492 -84 CURVE SMOOTH"
);
}
);
};
hints = (
{
horizontal = 1;
place = "{-28, 22}";
type = Stem;
},
{
horizontal = 1;
place = "{109, 38}";
type = Stem;
},
{
place = "{447, 31}";
type = Stem;
},
{
horizontal = 1;
place = "{138, 19}";
type = Stem;
}
);
layerId = "8B85D65B-9817-42FC-8CCD-19CD4C331E33";
paths = (
{
closed = 1;
nodes = (
"495 -84 OFFCURVE",
"493 -78 OFFCURVE",
"486 -60 CURVE SMOOTH",
"481 -48 OFFCURVE",
"478 -32 OFFCURVE",
"478 -25 CURVE SMOOTH",
"478 54 OFFCURVE",
"537 193 OFFCURVE",
"655 390 CURVE SMOOTH",
"679 430 OFFCURVE",
"700 466 OFFCURVE",
"717 491 CURVE",
"717 500 OFFCURVE",
"690 511 OFFCURVE",
"675 511 CURVE SMOOTH",
"662 511 OFFCURVE",
"644 485 OFFCURVE",
"631 460 CURVE SMOOTH",
"612 423 LINE",
"565 333 LINE SMOOTH",
"513 233 OFFCURVE",
"515 235 OFFCURVE",
"495 193 CURVE",
"376 181 LINE",
"480 291 LINE SMOOTH",
"528 342 OFFCURVE",
"551 384 OFFCURVE",
"551 414 CURVE SMOOTH",
"551 421 OFFCURVE",
"550 425 OFFCURVE",
"547 425 CURVE",
"516 380 LINE SMOOTH",
"499 355 OFFCURVE",
"466 319 OFFCURVE",
"426 278 CURVE SMOOTH",
"383 235 OFFCURVE",
"347 202 OFFCURVE",
"317 178 CURVE",
"284 178 LINE",
"249 177 LINE SMOOTH",
"200 176 OFFCURVE",
"174 180 OFFCURVE",
"166 187 CURVE",
"163 189 LINE",
"162 189 OFFCURVE",
"162 189 OFFCURVE",
"162 188 CURVE",
"160 186 LINE",
"160 159 OFFCURVE",
"187 138 OFFCURVE",
"219 139 CURVE SMOOTH",
"273 141 LINE",
"273 140 LINE",
"174 63 OFFCURVE",
"100 24 OFFCURVE",
"51 24 CURVE",
"22 29 LINE SMOOTH",
"21 29 OFFCURVE",
"20 30 OFFCURVE",
"17 28 CURVE",
"31 11 OFFCURVE",
"51 2 OFFCURVE",
"77 2 CURVE SMOOTH",
"138 2 OFFCURVE",
"224 49 OFFCURVE",
"333 144 CURVE",
"343 147 OFFCURVE",
"369 151 OFFCURVE",
"411 158 CURVE SMOOTH",
"453 165 OFFCURVE",
"479 168 OFFCURVE",
"488 168 CURVE",
"461 84 OFFCURVE",
"447 29 OFFCURVE",
"447 4 CURVE SMOOTH",
"447 -22 OFFCURVE",
"451 -43 OFFCURVE",
"459 -59 CURVE SMOOTH",
"468 -76 OFFCURVE",
"479 -84 OFFCURVE",
"492 -84 CURVE SMOOTH"
);
}
);
width = 580;
}
);
note = A;
unicode = 0041;
},
{
glyphname = B;
lastChange = "2021-04-15 17:47:42 +0000";
layers = (
{
anchors = (
{
name = bottom;
position = "{265, 30}";
},
{
name = top;
position = "{265, 490}";
}
);
background = {
anchors = (
{
name = bottom;
position = "{265, 30}";
},
{
name = top;
position = "{265, 490}";
}
);
paths = (
{
closed = 1;
nodes = (
"368 -34 OFFCURVE",
"411 -21 OFFCURVE",
"448 6 CURVE SMOOTH",
"485 33 OFFCURVE",
"504 64 OFFCURVE",
"504 101 CURVE SMOOTH",
"504 176 OFFCURVE",
"438 220 OFFCURVE",
"335 228 CURVE",
"404 245 OFFCURVE",
"462 270 OFFCURVE",
"509 305 CURVE SMOOTH",
"556 340 OFFCURVE",
"580 375 OFFCURVE",
"580 410 CURVE SMOOTH",
"580 475 OFFCURVE",
"513 508 OFFCURVE",
"379 508 CURVE SMOOTH",
"263 508 OFFCURVE",
"142 483 OFFCURVE",
"17 433 CURVE SMOOTH",
"12 431 OFFCURVE",
"10 426 OFFCURVE",
"10 419 CURVE SMOOTH",
"10 403 OFFCURVE",
"16 395 OFFCURVE",
"27 395 CURVE SMOOTH",
"29 395 OFFCURVE",
"64 406 OFFCURVE",
"132 429 CURVE SMOOTH",
"202 453 OFFCURVE",
"249 468 OFFCURVE",
"278 475 CURVE SMOOTH",
"308 483 OFFCURVE",
"345 487 OFFCURVE",
"389 487 CURVE SMOOTH",
"478 487 OFFCURVE",
"522 461 OFFCURVE",
"522 422 CURVE SMOOTH",
"522 343 OFFCURVE",
"435 278 OFFCURVE",
"287 238 CURVE",
"255 233 LINE",
"241 229 OFFCURVE",
"234 222 OFFCURVE",
"234 213 CURVE SMOOTH",
"234 206 OFFCURVE",
"237 201 OFFCURVE",
"244 200 CURVE",
"260 207 OFFCURVE",
"283 211 OFFCURVE",
"309 211 CURVE SMOOTH",
"341 211 OFFCURVE",
"379 204 OFFCURVE",
"416 185 CURVE SMOOTH",
"450 168 OFFCURVE",
"467 146 OFFCURVE",
"467 121 CURVE SMOOTH",
"467 96 OFFCURVE",
"446 70 OFFCURVE",
"403 43 CURVE SMOOTH",
"360 16 OFFCURVE",
"310 2 OFFCURVE",
"253 2 CURVE SMOOTH",
"230 2 OFFCURVE",
"210 7 OFFCURVE",
"195 17 CURVE",
"189 19 LINE",
"188 19 OFFCURVE",
"187 18 OFFCURVE",
"187 17 CURVE SMOOTH",
"187 2 OFFCURVE",
"201 -10 OFFCURVE",
"230 -19 CURVE SMOOTH",
"259 -29 OFFCURVE",
"288 -34 OFFCURVE",
"317 -34 CURVE SMOOTH"
);
},
{
closed = 1;
nodes = (
"105 -97 OFFCURVE",
"107 -95 OFFCURVE",
"108 -93 CURVE",
"105 -93 OFFCURVE",
"90 -63 OFFCURVE",
"90 -38 CURVE SMOOTH",
"90 62 OFFCURVE",
"162 216 OFFCURVE",
"306 425 CURVE SMOOTH",
"307 427 OFFCURVE",
"307 426 OFFCURVE",
"307 428 CURVE SMOOTH",
"307 436 OFFCURVE",
"280 447 OFFCURVE",
"261 447 CURVE SMOOTH",
"252 447 OFFCURVE",
"233 421 OFFCURVE",
"205 368 CURVE",
"108 205 OFFCURVE",
"60 80 OFFCURVE",
"60 -7 CURVE SMOOTH",
"60 -55 OFFCURVE",
"79 -97 OFFCURVE",
"102 -97 CURVE SMOOTH"
);
}
);
};
hints = (
{
horizontal = 1;
place = "{-64, 36}";
type = Stem;
},
{
horizontal = 1;
place = "{181, 17}";
type = Stem;
},
{
horizontal = 1;
place = "{457, 21}";
type = Stem;
},
{
place = "{60, 30}";
type = Stem;
},
{
place = "{467, 37}";
type = Stem;
},
{
place = "{522, 58}";
type = Stem;
}
);
layerId = "8B85D65B-9817-42FC-8CCD-19CD4C331E33";
paths = (
{
closed = 1;
nodes = (
"368 -34 OFFCURVE",
"411 -21 OFFCURVE",
"448 6 CURVE SMOOTH",
"485 33 OFFCURVE",
"504 64 OFFCURVE",
"504 101 CURVE SMOOTH",
"504 176 OFFCURVE",
"438 220 OFFCURVE",
"335 228 CURVE",
"404 245 OFFCURVE",
"462 270 OFFCURVE",
"509 305 CURVE SMOOTH",
"556 340 OFFCURVE",
"580 375 OFFCURVE",
"580 410 CURVE SMOOTH",
"580 475 OFFCURVE",
"513 508 OFFCURVE",
"379 508 CURVE SMOOTH",
"263 508 OFFCURVE",
"142 483 OFFCURVE",
"17 433 CURVE SMOOTH",
"12 431 OFFCURVE",
"10 426 OFFCURVE",
"10 419 CURVE SMOOTH",
"10 403 OFFCURVE",
"16 395 OFFCURVE",
"27 395 CURVE SMOOTH",
"29 395 OFFCURVE",
"64 406 OFFCURVE",
"132 429 CURVE SMOOTH",
"202 453 OFFCURVE",
"249 468 OFFCURVE",
"278 475 CURVE SMOOTH",
"308 483 OFFCURVE",
"345 487 OFFCURVE",
"389 487 CURVE SMOOTH",
"478 487 OFFCURVE",
"522 461 OFFCURVE",
"522 422 CURVE SMOOTH",
"522 343 OFFCURVE",
"435 278 OFFCURVE",
"287 238 CURVE",
"255 233 LINE",
"241 229 OFFCURVE",
"234 222 OFFCURVE",
"234 213 CURVE SMOOTH",
"234 206 OFFCURVE",
"237 201 OFFCURVE",
"244 200 CURVE",
"260 207 OFFCURVE",
"283 211 OFFCURVE",
"309 211 CURVE SMOOTH",
"341 211 OFFCURVE",
"379 204 OFFCURVE",
"416 185 CURVE SMOOTH",
"450 168 OFFCURVE",
"467 146 OFFCURVE",
"467 121 CURVE SMOOTH",
"467 96 OFFCURVE",
"446 70 OFFCURVE",
"403 43 CURVE SMOOTH",
"360 16 OFFCURVE",
"310 2 OFFCURVE",
"253 2 CURVE SMOOTH",
"230 2 OFFCURVE",
"210 7 OFFCURVE",
"195 17 CURVE",
"189 19 LINE",
"188 19 OFFCURVE",
"187 18 OFFCURVE",
"187 17 CURVE SMOOTH",
"187 2 OFFCURVE",
"201 -10 OFFCURVE",
"230 -19 CURVE SMOOTH",
"259 -29 OFFCURVE",
"288 -34 OFFCURVE",
"317 -34 CURVE SMOOTH"
);
},
{
closed = 1;
nodes = (
"105 -97 OFFCURVE",
"107 -95 OFFCURVE",
"108 -93 CURVE",
"105 -93 OFFCURVE",
"90 -63 OFFCURVE",
"90 -38 CURVE SMOOTH",
"90 62 OFFCURVE",
"162 216 OFFCURVE",
"306 425 CURVE SMOOTH",
"307 427 OFFCURVE",
"307 426 OFFCURVE",
"307 428 CURVE SMOOTH",
"307 436 OFFCURVE",
"280 447 OFFCURVE",
"261 447 CURVE SMOOTH",
"252 447 OFFCURVE",
"233 421 OFFCURVE",
"205 368 CURVE",
"108 205 OFFCURVE",
"60 80 OFFCURVE",
"60 -7 CURVE SMOOTH",
"60 -55 OFFCURVE",
"79 -97 OFFCURVE",
"102 -97 CURVE SMOOTH"
);
}
);
width = 530;
}
);
note = B;
unicode = 0042;
},
{
glyphname = C;
lastChange = "2021-04-15 17:47:42 +0000";
layers = (
{
anchors = (
{
name = bottom;
position = "{195, -46}";
},
{
name = top;
position = "{418, 522}";
}
);
background = {
anchors = (
{
name = bottom;
position = "{195, -46}";
},
{
name = top;
position = "{418, 522}";
}
);
paths = (
{
closed = 1;
nodes = (
"246 -46 OFFCURVE",
"299 -34 OFFCURVE",
"356 -11 CURVE SMOOTH",
"413 12 OFFCURVE",
"459 43 OFFCURVE",
"495 84 CURVE SMOOTH",
"502 92 OFFCURVE",
"504 97 OFFCURVE",
"504 103 CURVE SMOOTH",
"504 107 OFFCURVE",
"502 109 OFFCURVE",
"500 109 CURVE SMOOTH",
"496 109 OFFCURVE",
"489 104 OFFCURVE",
"480 95 CURVE SMOOTH",
"405 16 OFFCURVE",
"320 -21 OFFCURVE",
"227 -21 CURVE SMOOTH",
"138 -21 OFFCURVE",
"73 43 OFFCURVE",
"73 132 CURVE SMOOTH",
"73 178 OFFCURVE",
"90 230 OFFCURVE",
"130 285 CURVE SMOOTH",
"170 341 OFFCURVE",
"218 386 OFFCURVE",
"279 423 CURVE SMOOTH",
"339 460 OFFCURVE",
"397 478 OFFCURVE",
"454 478 CURVE SMOOTH",
"491 478 OFFCURVE",
"520 469 OFFCURVE",
"541 450 CURVE",
"514 395 OFFCURVE",
"501 353 OFFCURVE",
"501 324 CURVE SMOOTH",
"501 307 OFFCURVE",
"505 298 OFFCURVE",
"513 298 CURVE SMOOTH",
"514 298 OFFCURVE",
"515 299 OFFCURVE",
"515 300 CURVE SMOOTH",
"511 315 LINE",
"511 340 OFFCURVE",
"531 379 OFFCURVE",
"570 432 CURVE SMOOTH",
"577 442 OFFCURVE",
"597 468 OFFCURVE",
"629 509 CURVE",
"629 518 OFFCURVE",
"618 522 OFFCURVE",
"595 522 CURVE SMOOTH",
"581 522 OFFCURVE",
"566 504 OFFCURVE",
"551 468 CURVE",
"524 484 OFFCURVE",
"487 493 OFFCURVE",
"445 493 CURVE SMOOTH",
"398 493 OFFCURVE",
"345 482 OFFCURVE",
"290 457 CURVE SMOOTH",
"238 434 OFFCURVE",
"193 404 OFFCURVE",
"154 368 CURVE SMOOTH",
"77 296 OFFCURVE",
"24 201 OFFCURVE",
"24 109 CURVE SMOOTH",
"24 64 OFFCURVE",
"40 27 OFFCURVE",
"71 -2 CURVE SMOOTH",
"103 -31 OFFCURVE",
"144 -46 OFFCURVE",
"195 -46 CURVE SMOOTH"
);
}
);
};
hints = (
{
horizontal = 1;
place = "{-76, 25}";
type = Stem;
},
{
horizontal = 1;
place = "{448, 15}";
type = Stem;
},
{
place = "{24, 49}";
type = Stem;
},
{
place = "{501, 10}";
type = Stem;
}
);
layerId = "8B85D65B-9817-42FC-8CCD-19CD4C331E33";
paths = (
{
closed = 1;
nodes = (
"246 -46 OFFCURVE",
"299 -34 OFFCURVE",
"356 -11 CURVE SMOOTH",
"413 12 OFFCURVE",
"459 43 OFFCURVE",
"495 84 CURVE SMOOTH",
"502 92 OFFCURVE",
"504 97 OFFCURVE",
"504 103 CURVE SMOOTH",
"504 107 OFFCURVE",
"502 109 OFFCURVE",
"500 109 CURVE SMOOTH",
"496 109 OFFCURVE",
"489 104 OFFCURVE",
"480 95 CURVE SMOOTH",
"405 16 OFFCURVE",
"320 -21 OFFCURVE",
"227 -21 CURVE SMOOTH",
"138 -21 OFFCURVE",
"73 43 OFFCURVE",
"73 132 CURVE SMOOTH",
"73 178 OFFCURVE",
"90 230 OFFCURVE",
"130 285 CURVE SMOOTH",
"170 341 OFFCURVE",
"218 386 OFFCURVE",
"279 423 CURVE SMOOTH",
"339 460 OFFCURVE",
"397 478 OFFCURVE",
"454 478 CURVE SMOOTH",
"491 478 OFFCURVE",
"520 469 OFFCURVE",
"541 450 CURVE",
"514 395 OFFCURVE",
"501 353 OFFCURVE",
"501 324 CURVE SMOOTH",
"501 307 OFFCURVE",
"505 298 OFFCURVE",
"513 298 CURVE SMOOTH",
"514 298 OFFCURVE",
"515 299 OFFCURVE",
"515 300 CURVE SMOOTH",
"511 315 LINE",
"511 340 OFFCURVE",
"531 379 OFFCURVE",
"570 432 CURVE SMOOTH",
"577 442 OFFCURVE",
"597 468 OFFCURVE",
"629 509 CURVE",
"629 518 OFFCURVE",
"618 522 OFFCURVE",
"595 522 CURVE SMOOTH",
"581 522 OFFCURVE",
"566 504 OFFCURVE",
"551 468 CURVE",
"524 484 OFFCURVE",
"487 493 OFFCURVE",
"445 493 CURVE SMOOTH",
"398 493 OFFCURVE",
"345 482 OFFCURVE",
"290 457 CURVE SMOOTH",
"238 434 OFFCURVE",
"193 404 OFFCURVE",
"154 368 CURVE SMOOTH",
"77 296 OFFCURVE",
"24 201 OFFCURVE",
"24 109 CURVE SMOOTH",
"24 64 OFFCURVE",
"40 27 OFFCURVE",
"71 -2 CURVE SMOOTH",
"103 -31 OFFCURVE",
"144 -46 OFFCURVE",
"195 -46 CURVE SMOOTH"
);
}
);
width = 513;
}
);
note = C;
unicode = 0043;
},
{
glyphname = D;
lastChange = "2021-04-18 12:28:24 +0000";
layers = (
{
anchors = (
{
name = bottom;
position = "{240, -27}";
},
{
name = center;
position = "{347, 260}";
},
{
name = top;
position = "{415, 490}";
}
);
background = {
anchors = (
{
name = bottom;
position = "{347, 30}";
},
{
name = center;
position = "{347, 260}";
},
{
name = top;
position = "{347, 490}";
}
);
paths = (
{
closed = 1;
nodes = (
"305 -27 OFFCURVE",
"365 -17 OFFCURVE",
"422 3 CURVE SMOOTH",
"479 22 OFFCURVE",
"527 48 OFFCURVE",
"564 79 CURVE SMOOTH",
"640 142 OFFCURVE",
"686 223 OFFCURVE",
"686 299 CURVE SMOOTH",
"686 361 OFFCURVE",
"661 411 OFFCURVE",
"610 448 CURVE SMOOTH",
"559 485 OFFCURVE",
"495 504 OFFCURVE",
"416 504 CURVE SMOOTH",
"319 504 OFFCURVE",
"207 486 OFFCURVE",
"87 450 CURVE SMOOTH",
"50 439 OFFCURVE",
"36 434 OFFCURVE",
"30 431 CURVE SMOOTH",
"24 428 OFFCURVE",
"21 424 OFFCURVE",
"21 417 CURVE SMOOTH",
"21 396 OFFCURVE",
"28 386 OFFCURVE",
"42 386 CURVE",
"207 447 OFFCURVE",
"336 479 OFFCURVE",
"427 480 CURVE SMOOTH",
"434 480 LINE SMOOTH",
"491 480 OFFCURVE",
"544 469 OFFCURVE",
"591 434 CURVE SMOOTH",
"632 404 OFFCURVE",
"652 363 OFFCURVE",
"652 312 CURVE SMOOTH",
"652 247 OFFCURVE",
"604 170 OFFCURVE",
"527 106 CURVE SMOOTH",
"489 75 OFFCURVE",
"440 49 OFFCURVE",
"381 28 CURVE SMOOTH",
"322 7 OFFCURVE",
"259 -3 OFFCURVE",
"193 -3 CURVE SMOOTH",
"186 -3 OFFCURVE",
"180 -3 OFFCURVE",
"175 -2 CURVE",
"159 -2 LINE SMOOTH",
"149 -2 OFFCURVE",
"144 -5 OFFCURVE",
"144 -11 CURVE SMOOTH",
"144 -22 OFFCURVE",
"176 -27 OFFCURVE",
"240 -27 CURVE SMOOTH"
);
},
{
closed = 1;
nodes = (
"124 -72 LINE",
"124 -70 OFFCURVE",
"122 -63 OFFCURVE",
"117 -51 CURVE SMOOTH",
"112 -39 OFFCURVE",
"110 -29 OFFCURVE",
"110 -22 CURVE SMOOTH",
"110 43 OFFCURVE",
"161 163 OFFCURVE",
"263 340 CURVE",
"282 369 OFFCURVE",
"300 398 OFFCURVE",
"317 428 CURVE",
"317 436 OFFCURVE",
"293 445 OFFCURVE",
"278 445 CURVE SMOOTH",
"271 445 OFFCURVE",
"263 437 OFFCURVE",
"254 420 CURVE SMOOTH",
"245 403 OFFCURVE",
"226 374 OFFCURVE",
"226 369 CURVE",
"133 205 OFFCURVE",
"86 82 OFFCURVE",
"86 -1 CURVE SMOOTH",
"86 -48 OFFCURVE",
"101 -73 OFFCURVE",
"122 -73 CURVE"
);
}
);
};
hints = (
{
horizontal = 1;
place = "{-57, 24}";
type = Stem;
},
{
horizontal = 1;
place = "{450, 24}";
type = Stem;
},
{
place = "{86, 24}";
type = Stem;
},
{
place = "{652, 34}";
type = Stem;
}
);
layerId = "8B85D65B-9817-42FC-8CCD-19CD4C331E33";
paths = (
{
closed = 1;
nodes = (
"305 -27 OFFCURVE",
"365 -17 OFFCURVE",
"422 3 CURVE SMOOTH",
"479 22 OFFCURVE",
"527 48 OFFCURVE",
"564 79 CURVE SMOOTH",
"640 142 OFFCURVE",
"686 223 OFFCURVE",
"686 299 CURVE SMOOTH",
"686 361 OFFCURVE",
"661 411 OFFCURVE",
"610 448 CURVE SMOOTH",
"559 485 OFFCURVE",
"495 504 OFFCURVE",
"416 504 CURVE SMOOTH",
"319 504 OFFCURVE",
"207 486 OFFCURVE",
"87 450 CURVE SMOOTH",
"50 439 OFFCURVE",
"36 434 OFFCURVE",
"30 431 CURVE SMOOTH",
"24 428 OFFCURVE",
"21 424 OFFCURVE",
"21 417 CURVE SMOOTH",
"21 396 OFFCURVE",
"28 386 OFFCURVE",
"42 386 CURVE",
"207 447 OFFCURVE",
"336 480 OFFCURVE",
"427 480 CURVE SMOOTH",
"434 480 LINE SMOOTH",
"491 480 OFFCURVE",
"544 469 OFFCURVE",
"591 434 CURVE SMOOTH",
"632 404 OFFCURVE",
"652 363 OFFCURVE",
"652 312 CURVE SMOOTH",
"652 247 OFFCURVE",
"604 170 OFFCURVE",
"527 106 CURVE SMOOTH",
"489 75 OFFCURVE",
"440 49 OFFCURVE",
"381 28 CURVE SMOOTH",
"322 7 OFFCURVE",
"259 -3 OFFCURVE",
"193 -3 CURVE SMOOTH",
"186 -3 OFFCURVE",
"180 -3 OFFCURVE",
"175 -2 CURVE",
"159 -2 LINE SMOOTH",
"149 -2 OFFCURVE",
"144 -5 OFFCURVE",
"144 -11 CURVE SMOOTH",
"144 -22 OFFCURVE",
"176 -27 OFFCURVE",
"240 -27 CURVE SMOOTH"
);
},
{
closed = 1;
nodes = (
"124 -72 LINE",
"124 -70 OFFCURVE",
"122 -63 OFFCURVE",
"117 -51 CURVE SMOOTH",
"112 -39 OFFCURVE",
"110 -29 OFFCURVE",
"110 -22 CURVE SMOOTH",
"110 43 OFFCURVE",
"161 163 OFFCURVE",
"263 340 CURVE",
"282 369 OFFCURVE",
"300 398 OFFCURVE",
"317 428 CURVE",
"317 436 OFFCURVE",
"293 445 OFFCURVE",
"278 445 CURVE SMOOTH",
"271 445 OFFCURVE",
"263 437 OFFCURVE",
"254 420 CURVE SMOOTH",
"245 403 OFFCURVE",
"226 374 OFFCURVE",
"226 369 CURVE",
"133 205 OFFCURVE",
"86 82 OFFCURVE",
"86 -1 CURVE SMOOTH",
"86 -48 OFFCURVE",
"101 -73 OFFCURVE",
"122 -73 CURVE"
);
}
);
width = 694;
}
);
note = D;
unicode = 0044;
},
{
glyphname = E;
lastChange = "2021-04-18 12:36:04 +0000";
layers = (
{
anchors = (
{
name = bottom;
position = "{195, -46}";
},
{
name = ogonek;
position = "{397, -46}";
},
{
name = top;
position = "{412, 527}";
},
{
name = topleft;
position = "{20, 490}";
}
);
background = {
anchors = (
{
name = bottom;
position = "{195, -46}";
},
{
name = ogonek;
position = "{292, -35}";
},
{
name = top;
position = "{412, 527}";
},
{
name = topleft;
position = "{20, 490}";
}
);
paths = (
{
closed = 1;
nodes = (
"246 -46 OFFCURVE",
"299 -34 OFFCURVE",
"356 -11 CURVE SMOOTH",
"413 12 OFFCURVE",
"459 43 OFFCURVE",
"495 84 CURVE SMOOTH",
"502 92 OFFCURVE",
"504 97 OFFCURVE",
"504 103 CURVE SMOOTH",
"504 107 OFFCURVE",
"502 109 OFFCURVE",
"500 109 CURVE SMOOTH",
"496 109 OFFCURVE",
"489 104 OFFCURVE",
"480 95 CURVE SMOOTH",
"409 18 OFFCURVE",
"326 -21 OFFCURVE",
"233 -21 CURVE SMOOTH",
"140 -21 OFFCURVE",
"73 40 OFFCURVE",
"73 129 CURVE SMOOTH",
"73 140 OFFCURVE",
"74 152 OFFCURVE",
"76 165 CURVE",
"129 166 OFFCURVE",
"201 173 OFFCURVE",
"283 185 CURVE SMOOTH",
"367 198 OFFCURVE",
"408 210 OFFCURVE",
"408 223 CURVE SMOOTH",
"408 226 OFFCURVE",
"406 228 OFFCURVE",
"401 228 CURVE",
"358 217 OFFCURVE",
"316 211 OFFCURVE",
"276 208 CURVE SMOOTH",
"245 206 OFFCURVE",
"161 205 OFFCURVE",
"88 205 CURVE",
"113 275 OFFCURVE",
"163 338 OFFCURVE",
"236 393 CURVE SMOOTH",
"309 449 OFFCURVE",
"381 477 OFFCURVE",
"450 477 CURVE SMOOTH",
"457 477 OFFCURVE",
"466 476 OFFCURVE",
"475 475 CURVE",
"460 449 OFFCURVE",
"452 424 OFFCURVE",
"452 400 CURVE SMOOTH",
"452 376 OFFCURVE",
"457 364 OFFCURVE",
"467 364 CURVE SMOOTH",
"468 364 OFFCURVE",
"469 365 OFFCURVE",
"469 366 CURVE SMOOTH",
"465 381 LINE",
"465 392 OFFCURVE",
"475 414 OFFCURVE",
"485 431 CURVE SMOOTH",
"495 448 OFFCURVE",
"518 482 OFFCURVE",
"526 494 CURVE SMOOTH",
"538 511 OFFCURVE",
"548 522 OFFCURVE",
"549 522 CURVE",
"549 531 OFFCURVE",
"537 535 OFFCURVE",
"514 535 CURVE SMOOTH",
"511 535 OFFCURVE",
"510 535 OFFCURVE",
"507 534 CURVE SMOOTH",
"499 531 OFFCURVE",
"492 517 OFFCURVE",
"485 493 CURVE",
"476 498 OFFCURVE",
"458 501 OFFCURVE",
"432 501 CURVE SMOOTH",
"357 501 OFFCURVE",
"280 471 OFFCURVE",
"201 412 CURVE SMOOTH",
"122 353 OFFCURVE",
"69 284 OFFCURVE",
"42 207 CURVE",
"13 213 LINE",
"8 213 OFFCURVE",
"7 207 OFFCURVE",
"16 185 CURVE SMOOTH",
"21 174 OFFCURVE",
"26 168 OFFCURVE",
"29 168 CURVE",
"26 148 OFFCURVE",
"24 131 OFFCURVE",
"24 116 CURVE SMOOTH",
"24 16 OFFCURVE",
"94 -46 OFFCURVE",
"195 -46 CURVE SMOOTH"
);
}
);
};
hints = (
{
horizontal = 1;
place = "{-76, 25}";
type = Stem;
},
{
horizontal = 1;
place = "{135, 40}";
type = Stem;
},
{
horizontal = 1;
place = "{447, 24}";
type = Stem;
},
{
place = "{24, 49}";
type = Stem;
},
{
place = "{452, 13}";
type = Stem;
},
{
horizontal = 1;
place = "{492, 13}";
type = Stem;
}
);
layerId = "8B85D65B-9817-42FC-8CCD-19CD4C331E33";
paths = (
{
closed = 1;
nodes = (
"246 -46 OFFCURVE",
"299 -34 OFFCURVE",
"356 -11 CURVE SMOOTH",
"413 12 OFFCURVE",
"459 43 OFFCURVE",
"495 84 CURVE SMOOTH",
"502 92 OFFCURVE",
"504 97 OFFCURVE",
"504 103 CURVE SMOOTH",
"504 107 OFFCURVE",
"502 109 OFFCURVE",
"500 109 CURVE SMOOTH",
"496 109 OFFCURVE",
"489 104 OFFCURVE",
"480 95 CURVE SMOOTH",
"409 18 OFFCURVE",
"326 -21 OFFCURVE",
"233 -21 CURVE SMOOTH",
"140 -21 OFFCURVE",
"73 40 OFFCURVE",
"73 129 CURVE SMOOTH",
"73 140 OFFCURVE",
"74 152 OFFCURVE",
"76 165 CURVE",
"129 166 OFFCURVE",
"201 173 OFFCURVE",
"283 185 CURVE SMOOTH",
"367 198 OFFCURVE",
"408 210 OFFCURVE",
"408 223 CURVE SMOOTH",
"408 226 OFFCURVE",
"406 228 OFFCURVE",
"401 228 CURVE",
"358 217 OFFCURVE",
"316 211 OFFCURVE",
"276 208 CURVE SMOOTH",
"245 206 OFFCURVE",
"161 205 OFFCURVE",
"88 205 CURVE",
"113 275 OFFCURVE",
"163 338 OFFCURVE",
"236 393 CURVE SMOOTH",
"309 449 OFFCURVE",
"381 477 OFFCURVE",
"450 477 CURVE SMOOTH",
"457 477 OFFCURVE",
"466 476 OFFCURVE",
"475 475 CURVE",
"460 449 OFFCURVE",
"452 424 OFFCURVE",
"452 400 CURVE SMOOTH",
"452 376 OFFCURVE",
"457 364 OFFCURVE",
"467 364 CURVE SMOOTH",
"468 364 OFFCURVE",
"469 365 OFFCURVE",
"469 366 CURVE SMOOTH",
"465 381 LINE",
"465 392 OFFCURVE",
"475 414 OFFCURVE",
"485 431 CURVE SMOOTH",
"495 448 OFFCURVE",
"518 482 OFFCURVE",
"526 494 CURVE SMOOTH",
"538 511 OFFCURVE",
"548 522 OFFCURVE",
"549 522 CURVE",
"549 531 OFFCURVE",
"537 535 OFFCURVE",
"514 535 CURVE SMOOTH",
"511 535 OFFCURVE",
"510 535 OFFCURVE",
"507 534 CURVE SMOOTH",
"499 531 OFFCURVE",
"492 517 OFFCURVE",
"485 493 CURVE",
"476 498 OFFCURVE",
"458 501 OFFCURVE",
"432 501 CURVE SMOOTH",
"357 501 OFFCURVE",
"280 471 OFFCURVE",
"201 412 CURVE SMOOTH",
"122 353 OFFCURVE",
"69 284 OFFCURVE",
"42 207 CURVE",
"13 213 LINE",
"8 213 OFFCURVE",
"7 207 OFFCURVE",
"16 185 CURVE SMOOTH",
"21 174 OFFCURVE",
"26 168 OFFCURVE",
"29 168 CURVE",
"26 148 OFFCURVE",
"24 131 OFFCURVE",
"24 116 CURVE SMOOTH",
"24 16 OFFCURVE",
"94 -46 OFFCURVE",
"195 -46 CURVE SMOOTH"
);
}
);
width = 490;
}
);
note = E;
unicode = 0045;
},
{
glyphname = F;
lastChange = "2021-04-15 17:47:42 +0000";
layers = (
{
anchors = (
{
name = bottom;
position = "{238, 30}";
},
{
name = top;
position = "{238, 490}";
}
);
background = {
anchors = (
{
name = bottom;
position = "{238, 30}";
},
{
name = top;
position = "{238, 490}";
}
);
paths = (
{
closed = 1;
nodes = (
"302 -100 OFFCURVE",
"302 -98 OFFCURVE",
"302 -95 CURVE SMOOTH",
"297 -58 LINE",
"297 -3 OFFCURVE",
"335 86 OFFCURVE",
"411 208 CURVE",
"462 218 LINE",
"482 220 OFFCURVE",
"493 225 OFFCURVE",
"493 230 CURVE SMOOTH",
"493 233 OFFCURVE",
"490 234 OFFCURVE",
"483 234 CURVE SMOOTH",
"477 234 OFFCURVE",
"456 230 OFFCURVE",
"419 223 CURVE",
"461 289 OFFCURVE",
"486 332 OFFCURVE",
"495 352 CURVE SMOOTH",
"504 373 OFFCURVE",
"508 398 OFFCURVE",
"508 429 CURVE SMOOTH",
"508 497 OFFCURVE",
"470 531 OFFCURVE",
"394 531 CURVE SMOOTH",
"360 531 OFFCURVE",
"314 523 OFFCURVE",
"257 508 CURVE SMOOTH",
"200 493 OFFCURVE",
"147 473 OFFCURVE",
"99 448 CURVE SMOOTH",
"51 423 OFFCURVE",
"27 400 OFFCURVE",
"27 377 CURVE SMOOTH",
"27 358 OFFCURVE",
"32 349 OFFCURVE",
"41 349 CURVE SMOOTH",
"44 349 OFFCURVE",
"48 352 OFFCURVE",
"47 351 CURVE SMOOTH",
"88 392 OFFCURVE",
"144 429 OFFCURVE",
"215 463 CURVE SMOOTH",
"286 497 OFFCURVE",
"344 514 OFFCURVE",
"388 514 CURVE SMOOTH",
"439 514 OFFCURVE",
"465 491 OFFCURVE",
"465 445 CURVE SMOOTH",
"465 413 OFFCURVE",
"454 374 OFFCURVE",
"432 328 CURVE SMOOTH",
"379 218 LINE",
"294 209 OFFCURVE",
"232 205 OFFCURVE",
"186 205 CURVE SMOOTH",
"146 205 OFFCURVE",
"119 208 OFFCURVE",
"100 213 CURVE",
"99 212 OFFCURVE",
"98 211 OFFCURVE",
"98 210 CURVE SMOOTH",
"98 180 OFFCURVE",
"113 165 OFFCURVE",
"143 165 CURVE SMOOTH",
"175 165 OFFCURVE",
"215 171 OFFCURVE",
"297 187 CURVE SMOOTH",
"337 195 OFFCURVE",
"356 198 OFFCURVE",
"370 201 CURVE",
"311 82 OFFCURVE",
"281 1 OFFCURVE",
"281 -44 CURVE SMOOTH",
"281 -71 OFFCURVE",
"290 -100 OFFCURVE",
"301 -100 CURVE SMOOTH"
);
}
);
};
hints = (
{
horizontal = 1;
place = "{135, 40}";
type = Stem;
},
{
horizontal = 1;
place = "{484, 17}";
type = Stem;
},
{
place = "{281, 16}";
type = Stem;
},
{
place = "{465, 43}";
type = Stem;
}
);
layerId = "8B85D65B-9817-42FC-8CCD-19CD4C331E33";
paths = (
{
closed = 1;
nodes = (
"302 -100 OFFCURVE",
"302 -98 OFFCURVE",
"302 -95 CURVE SMOOTH",
"297 -58 LINE",
"297 -3 OFFCURVE",
"335 86 OFFCURVE",
"411 208 CURVE",
"462 218 LINE",
"482 220 OFFCURVE",
"493 225 OFFCURVE",
"493 230 CURVE SMOOTH",
"493 233 OFFCURVE",
"490 234 OFFCURVE",
"483 234 CURVE SMOOTH",
"477 234 OFFCURVE",
"456 230 OFFCURVE",
"419 223 CURVE",
"461 289 OFFCURVE",
"486 332 OFFCURVE",
"495 352 CURVE SMOOTH",
"504 373 OFFCURVE",
"508 398 OFFCURVE",
"508 429 CURVE SMOOTH",
"508 497 OFFCURVE",
"470 531 OFFCURVE",
"394 531 CURVE SMOOTH",
"360 531 OFFCURVE",
"314 523 OFFCURVE",
"257 508 CURVE SMOOTH",
"200 493 OFFCURVE",
"147 473 OFFCURVE",
"99 448 CURVE SMOOTH",
"51 423 OFFCURVE",
"27 400 OFFCURVE",
"27 377 CURVE SMOOTH",
"27 358 OFFCURVE",
"32 349 OFFCURVE",
"41 349 CURVE SMOOTH",
"44 349 OFFCURVE",
"48 352 OFFCURVE",
"47 351 CURVE SMOOTH",
"88 392 OFFCURVE",
"144 429 OFFCURVE",
"215 463 CURVE SMOOTH",
"286 497 OFFCURVE",
"344 514 OFFCURVE",
"388 514 CURVE SMOOTH",
"439 514 OFFCURVE",
"465 491 OFFCURVE",
"465 445 CURVE SMOOTH",
"465 413 OFFCURVE",
"454 374 OFFCURVE",
"432 328 CURVE SMOOTH",
"379 218 LINE",
"294 209 OFFCURVE",
"232 205 OFFCURVE",
"186 205 CURVE SMOOTH",
"146 205 OFFCURVE",
"119 208 OFFCURVE",
"100 213 CURVE",
"99 212 OFFCURVE",
"98 211 OFFCURVE",
"98 210 CURVE SMOOTH",
"98 180 OFFCURVE",
"113 165 OFFCURVE",
"143 165 CURVE SMOOTH",
"175 165 OFFCURVE",
"215 171 OFFCURVE",
"297 187 CURVE SMOOTH",
"337 195 OFFCURVE",
"356 198 OFFCURVE",
"370 201 CURVE",
"311 82 OFFCURVE",
"281 1 OFFCURVE",
"281 -44 CURVE SMOOTH",
"281 -71 OFFCURVE",
"290 -100 OFFCURVE",
"301 -100 CURVE SMOOTH"
);
}
);
width = 476;
}
);
note = F;
unicode = 0046;
},
{
glyphname = G;
lastChange = "2021-04-18 13:12:25 +0000";
layers = (
{
anchors = (
{
name = bottom;
position = "{182, -45}";
},
{
name = top;
position = "{303, 490}";
}
);
background = {
anchors = (
{
name = bottom;
position = "{303, 30}";
},
{
name = top;
position = "{303, 490}";
}
);
paths = (
{
closed = 1;
nodes = (
"312 -216 OFFCURVE",
"360 -174 OFFCURVE",
"419 -90 CURVE SMOOTH",
"478 -7 OFFCURVE",
"532 96 OFFCURVE",
"580 217 CURVE",
"602 221 OFFCURVE",
"613 225 OFFCURVE",
"613 228 CURVE SMOOTH",
"613 232 OFFCURVE",
"610 234 OFFCURVE",
"605 234 CURVE",
"575 229 LINE",
"561 237 OFFCURVE",
"552 242 OFFCURVE",
"546 242 CURVE SMOOTH",
"538 242 OFFCURVE",
"534 236 OFFCURVE",
"530 222 CURVE",
"490 218 OFFCURVE",
"432 216 OFFCURVE",
"356 216 CURVE",
"297 222 LINE SMOOTH",
"294 222 OFFCURVE",
"293 221 OFFCURVE",
"293 218 CURVE SMOOTH",
"293 193 OFFCURVE",
"309 175 OFFCURVE",
"325 175 CURVE SMOOTH",
"352 175 OFFCURVE",
"418 185 OFFCURVE",
"523 206 CURVE",
"513 177 LINE",
"508 168 OFFCURVE",
"496 154 OFFCURVE",
"479 135 CURVE SMOOTH",
"388 31 OFFCURVE",
"305 -20 OFFCURVE",
"228 -22 CURVE SMOOTH",
"126 -24 OFFCURVE",
"62 39 OFFCURVE",
"62 126 CURVE SMOOTH",
"62 172 OFFCURVE",
"80 225 OFFCURVE",
"120 282 CURVE SMOOTH",
"159 337 OFFCURVE",
"209 384 OFFCURVE",
"270 421 CURVE SMOOTH",
"331 459 OFFCURVE",
"392 478 OFFCURVE",
"452 478 CURVE SMOOTH",
"482 478 OFFCURVE",
"509 472 OFFCURVE",
"534 459 CURVE",
"515 420 OFFCURVE",
"506 382 OFFCURVE",
"506 345 CURVE SMOOTH",
"506 325 OFFCURVE",
"511 315 OFFCURVE",
"521 315 CURVE SMOOTH",
"524 315 OFFCURVE",
"526 317 OFFCURVE",
"526 320 CURVE",
"523 323 LINE",
"524 332 OFFCURVE",
"537 352 OFFCURVE",
"560 382 CURVE SMOOTH",
"577 404 OFFCURVE",
"600 431 OFFCURVE",
"600 432 CURVE SMOOTH",
"600 435 OFFCURVE",
"585 450 OFFCURVE",
"568 461 CURVE",
"578 472 OFFCURVE",
"582 476 OFFCURVE",
"600 493 CURVE SMOOTH",
"615 508 OFFCURVE",
"623 516 OFFCURVE",
"623 518 CURVE SMOOTH",
"623 525 OFFCURVE",
"615 528 OFFCURVE",
"600 528 CURVE SMOOTH",
"585 528 OFFCURVE",
"571 521 OFFCURVE",
"560 506 CURVE",
"542 475 LINE",
"518 486 OFFCURVE",
"485 493 OFFCURVE",
"446 493 CURVE SMOOTH",
"400 493 OFFCURVE",
"345 483 OFFCURVE",
"288 457 CURVE SMOOTH",
"184 410 OFFCURVE",
"107 334 OFFCURVE",
"59 245 CURVE SMOOTH",
"38 205 OFFCURVE",
"24 157 OFFCURVE",
"24 109 CURVE SMOOTH",
"24 63 OFFCURVE",
"40 26 OFFCURVE",
"71 -3 CURVE SMOOTH",
"103 -32 OFFCURVE",
"145 -46 OFFCURVE",
"198 -46 CURVE SMOOTH",
"296 -46 OFFCURVE",
"391 3 OFFCURVE",
"483 100 CURVE",
"428 -38 OFFCURVE",
"373 -130 OFFCURVE",
"320 -177 CURVE",
"315 -180 OFFCURVE",
"298 -188 OFFCURVE",
"268 -199 CURVE SMOOTH",
"259 -202 OFFCURVE",
"255 -205 OFFCURVE",
"255 -207 CURVE SMOOTH",
"255 -213 OFFCURVE",
"261 -216 OFFCURVE",
"273 -216 CURVE SMOOTH"
);
},
{
closed = 1;
nodes = (
"530 378 OFFCURVE",
"544 407 OFFCURVE",
"565 441 CURVE",
"576 431 LINE",
"551 392 OFFCURVE",
"533 366 OFFCURVE",
"523 353 CURVE"
);
}
);
};
hints = (
{
horizontal = 1;
place = "{-76, 25}";
type = Stem;
},
{
horizontal = 1;
place = "{176, 10}";
type = Stem;
},
{
horizontal = 1;
place = "{448, 15}";
type = Stem;
},
{
place = "{24, 38}";
type = Stem;
},
{
place = "{506, 17}";
type = Stem;
}
);
layerId = "8B85D65B-9817-42FC-8CCD-19CD4C331E33";
paths = (
{
closed = 1;
nodes = (
"312 -216 OFFCURVE",
"360 -174 OFFCURVE",
"419 -90 CURVE SMOOTH",
"478 -7 OFFCURVE",
"532 96 OFFCURVE",
"580 217 CURVE",
"602 221 OFFCURVE",
"613 225 OFFCURVE",
"613 228 CURVE SMOOTH",
"613 232 OFFCURVE",
"610 234 OFFCURVE",
"605 234 CURVE",
"575 229 LINE",
"561 237 OFFCURVE",
"552 242 OFFCURVE",
"546 242 CURVE SMOOTH",
"538 242 OFFCURVE",
"534 236 OFFCURVE",
"530 222 CURVE",
"490 218 OFFCURVE",
"432 216 OFFCURVE",
"356 216 CURVE",
"297 222 LINE SMOOTH",
"294 222 OFFCURVE",
"293 221 OFFCURVE",
"293 218 CURVE SMOOTH",
"293 193 OFFCURVE",
"309 175 OFFCURVE",
"325 175 CURVE SMOOTH",
"352 175 OFFCURVE",
"418 185 OFFCURVE",
"523 206 CURVE",
"513 177 LINE",
"508 168 OFFCURVE",
"496 154 OFFCURVE",
"479 135 CURVE SMOOTH",
"386 29 OFFCURVE",
"301 -22 OFFCURVE",
"223 -22 CURVE SMOOTH",
"124 -22 OFFCURVE",
"62 40 OFFCURVE",
"62 126 CURVE SMOOTH",
"62 172 OFFCURVE",
"80 225 OFFCURVE",
"120 282 CURVE SMOOTH",
"159 337 OFFCURVE",
"209 384 OFFCURVE",
"270 421 CURVE SMOOTH",
"331 459 OFFCURVE",
"392 478 OFFCURVE",
"452 478 CURVE SMOOTH",
"482 478 OFFCURVE",
"509 472 OFFCURVE",
"534 459 CURVE",
"515 420 OFFCURVE",
"506 382 OFFCURVE",
"506 345 CURVE SMOOTH",
"506 325 OFFCURVE",
"511 315 OFFCURVE",
"521 315 CURVE SMOOTH",
"524 315 OFFCURVE",
"526 317 OFFCURVE",
"526 320 CURVE",
"523 323 LINE",
"524 332 OFFCURVE",
"537 352 OFFCURVE",
"560 382 CURVE SMOOTH",
"577 404 OFFCURVE",
"600 431 OFFCURVE",
"600 432 CURVE SMOOTH",
"600 435 OFFCURVE",
"585 450 OFFCURVE",
"568 461 CURVE",
"578 472 OFFCURVE",
"582 476 OFFCURVE",
"600 493 CURVE SMOOTH",
"615 508 OFFCURVE",
"623 516 OFFCURVE",
"623 518 CURVE SMOOTH",
"623 525 OFFCURVE",
"615 528 OFFCURVE",
"600 528 CURVE SMOOTH",
"585 528 OFFCURVE",
"571 521 OFFCURVE",
"560 506 CURVE",
"542 475 LINE",
"518 486 OFFCURVE",
"485 493 OFFCURVE",
"446 493 CURVE SMOOTH",
"400 493 OFFCURVE",
"345 483 OFFCURVE",
"288 457 CURVE SMOOTH",
"184 410 OFFCURVE",
"107 334 OFFCURVE",
"59 245 CURVE SMOOTH",
"38 205 OFFCURVE",
"24 157 OFFCURVE",
"24 109 CURVE SMOOTH",
"24 63 OFFCURVE",
"40 26 OFFCURVE",
"71 -3 CURVE SMOOTH",
"103 -32 OFFCURVE",
"145 -46 OFFCURVE",
"198 -46 CURVE SMOOTH",
"296 -46 OFFCURVE",
"391 3 OFFCURVE",
"483 100 CURVE",
"428 -38 OFFCURVE",
"373 -130 OFFCURVE",
"320 -177 CURVE",
"315 -180 OFFCURVE",
"298 -188 OFFCURVE",
"268 -199 CURVE SMOOTH",
"259 -202 OFFCURVE",
"255 -205 OFFCURVE",
"255 -207 CURVE SMOOTH",
"255 -213 OFFCURVE",
"261 -216 OFFCURVE",
"273 -216 CURVE SMOOTH"
);
},
{
closed = 1;
nodes = (
"530 378 OFFCURVE",
"544 407 OFFCURVE",
"565 441 CURVE",
"576 431 LINE",
"551 392 OFFCURVE",
"533 366 OFFCURVE",
"523 353 CURVE"
);
}
);
width = 606;
}
);
note = G;
unicode = 0047;
},
{
glyphname = H;
lastChange = "2021-04-15 17:47:42 +0000";
layers = (
{
anchors = (
{
name = bottom;
position = "{274, 30}";
},
{
name = center;
position = "{274, 260}";
},
{
name = top;
position = "{274, 490}";
},
{
name = topleft;
position = "{20, 490}";
}
);
background = {
anchors = (
{
name = bottom;
position = "{274, 30}";
},
{
name = center;
position = "{274, 260}";
},
{
name = top;
position = "{274, 490}";
},
{
name = topleft;
position = "{20, 490}";
}
);
paths = (
{
closed = 1;
nodes = (
"139 -118 OFFCURVE",
"116 -118 OFFCURVE",
"116 -68 CURVE SMOOTH",
"116 -15 OFFCURVE",
"140 65 OFFCURVE",
"189 172 CURVE",
"267 172 OFFCURVE",
"360 185 OFFCURVE",
"468 211 CURVE",
"445 164 OFFCURVE",
"434 121 OFFCURVE",
"434 83 CURVE SMOOTH",
"434 43 OFFCURVE",
"455 13 OFFCURVE",
"486 13 CURVE SMOOTH",
"493 13 OFFCURVE",
"502 15 OFFCURVE",
"514 20 CURVE SMOOTH",
"526 24 OFFCURVE",
"532 28 OFFCURVE",
"532 31 CURVE SMOOTH",
"532 32 OFFCURVE",
"531 33 OFFCURVE",
"529 33 CURVE SMOOTH",
"495 28 LINE",
"471 28 OFFCURVE",
"459 43 OFFCURVE",
"459 73 CURVE SMOOTH",
"459 138 OFFCURVE",
"509 238 OFFCURVE",
"609 371 CURVE SMOOTH",
"632 401 OFFCURVE",
"646 423 OFFCURVE",
"661 443 CURVE",
"661 451 OFFCURVE",
"638 460 OFFCURVE",
"622 460 CURVE SMOOTH",
"614 460 OFFCURVE",
"595 435 OFFCURVE",
"564 386 CURVE SMOOTH",
"533 337 OFFCURVE",
"504 286 OFFCURVE",
"477 233 CURVE",
"432 226 OFFCURVE",
"398 222 OFFCURVE",
"373 221 CURVE SMOOTH",
"208 213 LINE",
"234 269 OFFCURVE",
"267 331 OFFCURVE",
"308 399 CURVE SMOOTH",
"355 476 LINE",
"355 485 OFFCURVE",
"346 489 OFFCURVE",
"328 489 CURVE SMOOTH",
"310 489 OFFCURVE",
"299 487 OFFCURVE",
"294 482 CURVE",
"239 388 OFFCURVE",
"193 298 OFFCURVE",
"156 211 CURVE",
"143 209 OFFCURVE",
"101 208 OFFCURVE",
"32 208 CURVE",
"13 213 LINE",
"10 213 OFFCURVE",
"9 212 OFFCURVE",
"9 210 CURVE SMOOTH",
"9 179 OFFCURVE",
"25 163 OFFCURVE",
"58 163 CURVE SMOOTH",
"73 163 OFFCURVE",
"100 164 OFFCURVE",
"139 167 CURVE",
"103 73 OFFCURVE",
"87 -1 OFFCURVE",
"87 -50 CURVE SMOOTH",
"87 -94 OFFCURVE",
"100 -118 OFFCURVE",
"123 -118 CURVE SMOOTH"
);
}
);
};
hints = (
{
horizontal = 1;
place = "{-17, 15}";
type = Stem;
},
{
horizontal = 1;
place = "{133, 45}";
type = Stem;
},
{
place = "{87, 29}";
type = Stem;
},
{
place = "{434, 25}";
type = Stem;
},
{
horizontal = 1;
place = "{142, 45}";
type = Stem;
}
);
layerId = "8B85D65B-9817-42FC-8CCD-19CD4C331E33";
paths = (
{
closed = 1;
nodes = (
"139 -118 OFFCURVE",
"116 -118 OFFCURVE",
"116 -68 CURVE SMOOTH",
"116 -15 OFFCURVE",
"140 65 OFFCURVE",
"189 172 CURVE",
"267 172 OFFCURVE",
"360 185 OFFCURVE",
"468 211 CURVE",
"445 164 OFFCURVE",
"434 121 OFFCURVE",
"434 83 CURVE SMOOTH",
"434 43 OFFCURVE",
"455 13 OFFCURVE",
"486 13 CURVE SMOOTH",
"493 13 OFFCURVE",
"502 15 OFFCURVE",
"514 20 CURVE SMOOTH",
"526 24 OFFCURVE",
"532 28 OFFCURVE",
"532 31 CURVE SMOOTH",
"532 32 OFFCURVE",
"531 33 OFFCURVE",
"529 33 CURVE SMOOTH",
"495 28 LINE",
"471 28 OFFCURVE",
"459 43 OFFCURVE",
"459 73 CURVE SMOOTH",
"459 138 OFFCURVE",
"509 238 OFFCURVE",
"609 371 CURVE SMOOTH",
"632 401 OFFCURVE",
"646 423 OFFCURVE",
"661 443 CURVE",
"661 451 OFFCURVE",
"638 460 OFFCURVE",
"622 460 CURVE SMOOTH",
"614 460 OFFCURVE",
"595 435 OFFCURVE",
"564 386 CURVE SMOOTH",
"533 337 OFFCURVE",
"504 286 OFFCURVE",
"477 233 CURVE",
"432 226 OFFCURVE",
"398 222 OFFCURVE",
"373 221 CURVE SMOOTH",
"208 213 LINE",
"234 269 OFFCURVE",
"267 331 OFFCURVE",
"308 399 CURVE SMOOTH",
"355 476 LINE",
"355 485 OFFCURVE",
"346 489 OFFCURVE",
"328 489 CURVE SMOOTH",
"310 489 OFFCURVE",
"299 487 OFFCURVE",
"294 482 CURVE",
"239 388 OFFCURVE",
"193 298 OFFCURVE",
"156 211 CURVE",
"143 209 OFFCURVE",
"101 208 OFFCURVE",
"32 208 CURVE",
"13 213 LINE",
"10 213 OFFCURVE",
"9 212 OFFCURVE",
"9 210 CURVE SMOOTH",
"9 179 OFFCURVE",
"25 163 OFFCURVE",
"58 163 CURVE SMOOTH",
"73 163 OFFCURVE",
"100 164 OFFCURVE",
"139 167 CURVE",
"103 73 OFFCURVE",
"87 -1 OFFCURVE",
"87 -50 CURVE SMOOTH",
"87 -94 OFFCURVE",
"100 -118 OFFCURVE",
"123 -118 CURVE SMOOTH"
);
}
);
width = 547;
}
);
note = H;
unicode = 0048;
},
{
glyphname = I;
lastChange = "2021-04-15 17:47:42 +0000";
layers = (
{
anchors = (
{
name = bottom;
position = "{137, -28}";
},
{
name = ogonek;
position = "{229, -26}";
},
{
name = top;
position = "{418, 511}";
},
{
name = topleft;
position = "{20, 490}";
}
);
background = {
anchors = (
{
name = bottom;
position = "{137, -28}";
},
{
name = ogonek;
position = "{229, -26}";
},
{
name = top;
position = "{418, 511}";
},
{
name = topleft;
position = "{20, 490}";
}
);
paths = (
{
closed = 1;
nodes = (
"159 -38 OFFCURVE",
"170 -36 OFFCURVE",
"184 -31 CURVE SMOOTH",
"198 -26 OFFCURVE",
"206 -22 OFFCURVE",
"208 -17 CURVE",
"208 -16 OFFCURVE",
"206 -15 OFFCURVE",
"203 -15 CURVE",
"165 -22 LINE",
"151 -22 OFFCURVE",
"141 -18 OFFCURVE",
"136 -11 CURVE",
"282 17 LINE SMOOTH",
"299 20 OFFCURVE",
"307 24 OFFCURVE",
"307 28 CURVE SMOOTH",
"307 31 OFFCURVE",
"303 32 OFFCURVE",
"300 32 CURVE SMOOTH",
"297 32 OFFCURVE",
"291 31 OFFCURVE",
"292 31 CURVE SMOOTH",
"255 22 OFFCURVE",
"202 16 OFFCURVE",
"132 15 CURVE",
"134 50 OFFCURVE",
"161 108 OFFCURVE",
"214 191 CURVE SMOOTH",
"267 274 OFFCURVE",
"336 363 OFFCURVE",
"423 460 CURVE",
"441 460 LINE SMOOTH",
"448 460 OFFCURVE",
"459 473 OFFCURVE",
"459 478 CURVE SMOOTH",
"459 479 OFFCURVE",
"453 480 OFFCURVE",
"441 481 CURVE",
"446 486 OFFCURVE",
"448 490 OFFCURVE",
"448 492 CURVE SMOOTH",
"448 501 OFFCURVE",
"418 511 OFFCURVE",
"401 511 CURVE SMOOTH",
"388 511 OFFCURVE",
"377 501 OFFCURVE",
"368 480 CURVE",
"191 473 OFFCURVE",
"103 430 OFFCURVE",
"103 353 CURVE SMOOTH",
"103 350 OFFCURVE",
"104 349 OFFCURVE",
"106 349 CURVE SMOOTH",
"113 349 OFFCURVE",
"116 356 OFFCURVE",
"120 370 CURVE SMOOTH",
"124 384 LINE",
"148 421 OFFCURVE",
"223 445 OFFCURVE",
"350 456 CURVE",
"187 235 OFFCURVE",
"106 91 OFFCURVE",
"106 22 CURVE SMOOTH",
"106 14 LINE",
"49 14 LINE",
"-10 19 LINE SMOOTH",
"-13 19 OFFCURVE",
"-15 18 OFFCURVE",
"-15 14 CURVE SMOOTH",
"-15 -18 OFFCURVE",
"-12 -27 OFFCURVE",
"17 -27 CURVE SMOOTH",
"32 -27 OFFCURVE",
"64 -23 OFFCURVE",
"113 -14 CURVE",
"121 -30 OFFCURVE",
"134 -38 OFFCURVE",
"152 -38 CURVE SMOOTH"
);
}
);
};
hints = (
{
horizontal = 1;
place = "{-57, 41}";
type = Stem;
},
{
horizontal = 1;
place = "{430, 21}";
type = Stem;
},
{
place = "{106, 26}";
type = Stem;
},
{
horizontal = 1;
place = "{-68, 16}";
type = Stem;
},
{
horizontal = 1;
place = "{-41, 26}";
type = Stem;
},
{
place = "{103, 19}";
type = Stem;
}
);
layerId = "8B85D65B-9817-42FC-8CCD-19CD4C331E33";
paths = (
{
closed = 1;
nodes = (
"159 -38 OFFCURVE",
"170 -36 OFFCURVE",
"184 -31 CURVE SMOOTH",
"198 -26 OFFCURVE",
"206 -22 OFFCURVE",
"208 -17 CURVE",
"208 -16 OFFCURVE",
"206 -15 OFFCURVE",
"203 -15 CURVE",
"165 -22 LINE",
"151 -22 OFFCURVE",
"141 -18 OFFCURVE",
"136 -11 CURVE",
"282 17 LINE SMOOTH",
"299 20 OFFCURVE",
"307 24 OFFCURVE",
"307 28 CURVE SMOOTH",
"307 31 OFFCURVE",
"303 32 OFFCURVE",
"300 32 CURVE SMOOTH",
"297 32 OFFCURVE",
"291 31 OFFCURVE",
"292 31 CURVE SMOOTH",
"255 22 OFFCURVE",
"202 16 OFFCURVE",
"132 15 CURVE",
"134 50 OFFCURVE",
"161 108 OFFCURVE",
"214 191 CURVE SMOOTH",
"267 274 OFFCURVE",
"336 363 OFFCURVE",
"423 460 CURVE",
"441 460 LINE SMOOTH",
"448 460 OFFCURVE",
"459 473 OFFCURVE",
"459 478 CURVE SMOOTH",
"459 479 OFFCURVE",
"453 480 OFFCURVE",
"441 481 CURVE",
"446 486 OFFCURVE",
"448 490 OFFCURVE",
"448 492 CURVE SMOOTH",
"448 501 OFFCURVE",
"418 511 OFFCURVE",
"401 511 CURVE SMOOTH",
"388 511 OFFCURVE",
"377 501 OFFCURVE",
"368 480 CURVE",
"191 473 OFFCURVE",
"103 430 OFFCURVE",
"103 353 CURVE SMOOTH",
"103 350 OFFCURVE",
"104 349 OFFCURVE",
"106 349 CURVE SMOOTH",
"113 349 OFFCURVE",
"116 356 OFFCURVE",
"120 370 CURVE SMOOTH",
"124 384 LINE",
"148 421 OFFCURVE",
"223 445 OFFCURVE",
"350 456 CURVE",
"187 235 OFFCURVE",
"106 91 OFFCURVE",
"106 22 CURVE SMOOTH",
"106 14 LINE",
"49 14 LINE",
"-10 19 LINE SMOOTH",
"-13 19 OFFCURVE",
"-15 18 OFFCURVE",
"-15 14 CURVE SMOOTH",
"-15 -18 OFFCURVE",
"-12 -27 OFFCURVE",
"17 -27 CURVE SMOOTH",
"32 -27 OFFCURVE",
"64 -23 OFFCURVE",
"113 -14 CURVE",
"121 -30 OFFCURVE",
"134 -38 OFFCURVE",
"152 -38 CURVE SMOOTH"
);
}
);
width = 351;
}
);
note = I;
unicode = 0049;
},
{
glyphname = J;
lastChange = "2021-04-15 17:47:42 +0000";
layers = (
{
anchors = (
{
name = bottom;
position = "{318, 30}";
},
{
name = top;
position = "{318, 490}";
}
);
background = {
anchors = (
{
name = bottom;
position = "{318, 30}";
},
{
name = top;
position = "{318, 490}";
}
);
paths = (
{
closed = 1;
nodes = (
"218 -110 OFFCURVE",
"268 -93 OFFCURVE",
"328 -59 CURVE SMOOTH",
"389 -25 OFFCURVE",
"446 17 OFFCURVE",
"500 66 CURVE SMOOTH",
"554 115 OFFCURVE",
"600 170 OFFCURVE",
"639 229 CURVE SMOOTH",
"678 288 OFFCURVE",
"697 341 OFFCURVE",
"697 387 CURVE SMOOTH",
"697 464 OFFCURVE",
"640 502 OFFCURVE",
"525 502 CURVE SMOOTH",
"473 502 OFFCURVE",
"406 486 OFFCURVE",
"323 453 CURVE SMOOTH",
"240 421 OFFCURVE",
"167 383 OFFCURVE",
"104 338 CURVE SMOOTH",
"41 293 OFFCURVE",
"9 255 OFFCURVE",
"9 223 CURVE SMOOTH",
"9 204 OFFCURVE",
"30 175 OFFCURVE",
"41 175 CURVE SMOOTH",
"48 175 OFFCURVE",
"49 177 OFFCURVE",
"49 178 CURVE SMOOTH",
"49 179 OFFCURVE",
"48 180 OFFCURVE",
"48 180 CURVE",
"32 190 OFFCURVE",
"24 202 OFFCURVE",
"24 216 CURVE SMOOTH",
"24 240 OFFCURVE",
"54 273 OFFCURVE",
"113 315 CURVE SMOOTH",
"170 355 OFFCURVE",
"238 394 OFFCURVE",
"309 425 CURVE SMOOTH",
"405 466 OFFCURVE",
"482 487 OFFCURVE",
"541 487 CURVE SMOOTH",
"614 487 OFFCURVE",
"651 461 OFFCURVE",
"651 410 CURVE SMOOTH",
"651 353 OFFCURVE",
"614 278 OFFCURVE",
"541 186 CURVE SMOOTH",
"468 95 OFFCURVE",
"387 18 OFFCURVE",
"296 -44 CURVE SMOOTH",
"243 -80 OFFCURVE",
"198 -98 OFFCURVE",
"159 -98 CURVE SMOOTH",
"132 -98 OFFCURVE",
"119 -84 OFFCURVE",
"119 -57 CURVE SMOOTH",
"119 18 OFFCURVE",
"260 130 OFFCURVE",
"541 279 CURVE SMOOTH",
"551 284 OFFCURVE",
"556 288 OFFCURVE",
"556 292 CURVE SMOOTH",
"556 296 OFFCURVE",
"552 292 OFFCURVE",
"547 292 CURVE",
"454 261 OFFCURVE",
"364 217 OFFCURVE",
"276 159 CURVE SMOOTH",
"157 82 OFFCURVE",
"97 10 OFFCURVE",
"97 -55 CURVE SMOOTH",
"97 -88 OFFCURVE",
"132 -110 OFFCURVE",
"177 -110 CURVE SMOOTH"
);
}
);
};
hints = (
{
horizontal = 1;
place = "{-140, 12}";
type = Stem;
},
{
horizontal = 1;
place = "{457, 15}";
type = Stem;
},
{
place = "{9, 15}";
type = Stem;
},
{
place = "{97, 22}";
type = Stem;
},
{
place = "{651, 46}";
type = Stem;
}
);
layerId = "8B85D65B-9817-42FC-8CCD-19CD4C331E33";
paths = (
{
closed = 1;
nodes = (
"218 -110 OFFCURVE",
"268 -93 OFFCURVE",
"328 -59 CURVE SMOOTH",
"389 -25 OFFCURVE",
"446 17 OFFCURVE",
"500 66 CURVE SMOOTH",
"554 115 OFFCURVE",
"600 170 OFFCURVE",
"639 229 CURVE SMOOTH",
"678 288 OFFCURVE",
"697 341 OFFCURVE",
"697 387 CURVE SMOOTH",
"697 464 OFFCURVE",
"640 502 OFFCURVE",
"525 502 CURVE SMOOTH",
"473 502 OFFCURVE",
"406 486 OFFCURVE",
"323 453 CURVE SMOOTH",
"240 421 OFFCURVE",
"167 383 OFFCURVE",
"104 338 CURVE SMOOTH",
"41 293 OFFCURVE",
"9 255 OFFCURVE",
"9 223 CURVE SMOOTH",
"9 204 OFFCURVE",
"30 175 OFFCURVE",
"41 175 CURVE SMOOTH",
"48 175 OFFCURVE",
"49 177 OFFCURVE",
"49 178 CURVE SMOOTH",
"49 179 OFFCURVE",
"48 180 OFFCURVE",
"48 180 CURVE",
"32 190 OFFCURVE",
"24 202 OFFCURVE",
"24 216 CURVE SMOOTH",
"24 240 OFFCURVE",
"54 273 OFFCURVE",
"113 315 CURVE SMOOTH",
"170 355 OFFCURVE",
"238 394 OFFCURVE",
"309 425 CURVE SMOOTH",
"405 466 OFFCURVE",
"482 487 OFFCURVE",
"541 487 CURVE SMOOTH",
"614 487 OFFCURVE",
"651 461 OFFCURVE",
"651 410 CURVE SMOOTH",
"651 353 OFFCURVE",
"614 278 OFFCURVE",
"541 186 CURVE SMOOTH",
"468 95 OFFCURVE",
"387 18 OFFCURVE",
"296 -44 CURVE SMOOTH",
"243 -80 OFFCURVE",
"198 -98 OFFCURVE",
"159 -98 CURVE SMOOTH",
"132 -98 OFFCURVE",
"119 -84 OFFCURVE",
"119 -57 CURVE SMOOTH",
"119 18 OFFCURVE",
"260 130 OFFCURVE",
"541 279 CURVE SMOOTH",
"551 284 OFFCURVE",
"556 288 OFFCURVE",
"556 292 CURVE SMOOTH",
"556 296 OFFCURVE",
"552 292 OFFCURVE",
"547 292 CURVE",
"454 261 OFFCURVE",
"364 217 OFFCURVE",
"276 159 CURVE SMOOTH",
"157 82 OFFCURVE",
"97 10 OFFCURVE",
"97 -55 CURVE SMOOTH",
"97 -88 OFFCURVE",
"132 -110 OFFCURVE",
"177 -110 CURVE SMOOTH"
);
}
);
width = 636;
}
);
note = J;
unicode = 004A;
},
{
glyphname = K;
lastChange = "2021-04-18 12:51:10 +0000";
layers = (
{
anchors = (
{
name = bottom;
position = "{179, -71}";
},
{
name = top;
position = "{228, 490}";
}
);
background = {
anchors = (
{
name = bottom;
position = "{228, 30}";
},
{
name = top;
position = "{228, 490}";
}
);
paths = (
{
closed = 1;
nodes = (
"440 -98 OFFCURVE",
"470 -76 OFFCURVE",
"470 -45 CURVE SMOOTH",
"470 -20 OFFCURVE",
"454 8 OFFCURVE",
"422 39 CURVE SMOOTH",
"412 49 OFFCURVE",
"405 54 OFFCURVE",
"401 54 CURVE",
"399 52 LINE",
"432 3 OFFCURVE",
"449 -30 OFFCURVE",
"449 -46 CURVE SMOOTH",
"449 -63 OFFCURVE",
"440 -71 OFFCURVE",
"422 -71 CURVE SMOOTH",
"387 -71 OFFCURVE",
"342 -47 OFFCURVE",
"287 2 CURVE SMOOTH",
"231 51 OFFCURVE",
"186 113 OFFCURVE",
"149 190 CURVE",
"272 284 LINE SMOOTH",
"339 335 OFFCURVE",
"390 372 OFFCURVE",
"438 404 CURVE SMOOTH",
"482 433 OFFCURVE",
"519 447 OFFCURVE",
"549 447 CURVE SMOOTH",
"554 447 OFFCURVE",
"566 445 OFFCURVE",
"583 440 CURVE",
"589 440 OFFCURVE",
"593 442 OFFCURVE",
"593 446 CURVE SMOOTH",
"593 450 OFFCURVE",
"587 456 OFFCURVE",
"571 461 CURVE SMOOTH",
"556 466 OFFCURVE",
"539 468 OFFCURVE",
"520 468 CURVE SMOOTH",
"481 468 OFFCURVE",
"434 452 OFFCURVE",
"350 384 CURVE",
"261 303 LINE SMOOTH",
"207 254 OFFCURVE",
"179 232 OFFCURVE",
"142 206 CURVE",
"142 210 OFFCURVE",
"140 213 OFFCURVE",
"137 213 CURVE SMOOTH",
"134 213 OFFCURVE",
"130 210 OFFCURVE",
"124 203 CURVE SMOOTH",
"119 196 OFFCURVE",
"117 192 OFFCURVE",
"117 190 CURVE SMOOTH",
"117 189 OFFCURVE",
"129 163 OFFCURVE",
"153 112 CURVE",
"222 -15 OFFCURVE",
"313 -98 OFFCURVE",
"397 -98 CURVE SMOOTH"
);
},
{
closed = 1;
nodes = (
"46 -73 OFFCURVE",
"44 -65 OFFCURVE",
"39 -52 CURVE SMOOTH",
"34 -40 OFFCURVE",
"32 -30 OFFCURVE",
"32 -22 CURVE SMOOTH",
"32 43 OFFCURVE",
"83 163 OFFCURVE",
"185 340 CURVE SMOOTH",
"198 363 OFFCURVE",
"212 384 OFFCURVE",
"220 397 CURVE SMOOTH",
"240 428 LINE",
"240 433 OFFCURVE",
"216 445 OFFCURVE",
"201 445 CURVE SMOOTH",
"192 445 OFFCURVE",
"174 420 OFFCURVE",
"149 369 CURVE",
"54 203 OFFCURVE",
"7 80 OFFCURVE",
"7 -1 CURVE SMOOTH",
"7 -50 OFFCURVE",
"24 -73 OFFCURVE",
"44 -73 CURVE SMOOTH"
);
}
);
};
hints = (
{
horizontal = 1;
place = "{-128, 27}";
type = Stem;
},
{
horizontal = 1;
place = "{160, 23}";
type = Stem;
},
{
horizontal = 1;
place = "{417, 21}";
type = Stem;
},
{
place = "{7, 25}";
type = Stem;
},
{
place = "{449, 21}";
type = Stem;
}
);
layerId = "8B85D65B-9817-42FC-8CCD-19CD4C331E33";
paths = (
{
closed = 1;
nodes = (
"440 -98 OFFCURVE",
"470 -76 OFFCURVE",
"470 -45 CURVE SMOOTH",
"470 -20 OFFCURVE",
"454 8 OFFCURVE",
"422 39 CURVE SMOOTH",
"412 49 OFFCURVE",
"405 54 OFFCURVE",
"401 54 CURVE",
"399 52 LINE",
"432 3 OFFCURVE",
"449 -30 OFFCURVE",
"449 -46 CURVE SMOOTH",
"449 -63 OFFCURVE",
"440 -71 OFFCURVE",
"422 -71 CURVE SMOOTH",
"387 -71 OFFCURVE",
"342 -47 OFFCURVE",
"287 2 CURVE SMOOTH",
"231 51 OFFCURVE",
"186 113 OFFCURVE",
"149 190 CURVE",
"272 284 LINE SMOOTH",
"339 335 OFFCURVE",
"390 372 OFFCURVE",
"438 404 CURVE SMOOTH",
"482 433 OFFCURVE",
"519 447 OFFCURVE",
"549 447 CURVE SMOOTH",
"554 447 OFFCURVE",
"566 445 OFFCURVE",
"583 440 CURVE",
"589 440 OFFCURVE",
"593 442 OFFCURVE",
"593 446 CURVE SMOOTH",
"593 450 OFFCURVE",
"587 456 OFFCURVE",
"571 461 CURVE SMOOTH",
"556 466 OFFCURVE",
"539 468 OFFCURVE",
"520 468 CURVE SMOOTH",
"481 468 OFFCURVE",
"434 452 OFFCURVE",
"350 384 CURVE",
"261 303 LINE SMOOTH",
"207 254 OFFCURVE",
"179 232 OFFCURVE",
"142 206 CURVE",
"142 210 OFFCURVE",
"140 213 OFFCURVE",
"137 213 CURVE SMOOTH",
"134 213 OFFCURVE",
"130 210 OFFCURVE",
"124 203 CURVE SMOOTH",
"119 196 OFFCURVE",
"117 192 OFFCURVE",
"117 190 CURVE SMOOTH",
"117 189 OFFCURVE",
"129 163 OFFCURVE",
"153 112 CURVE",
"222 -15 OFFCURVE",
"313 -98 OFFCURVE",
"397 -98 CURVE SMOOTH"
);
},
{
closed = 1;
nodes = (
"46 -73 OFFCURVE",
"44 -65 OFFCURVE",
"39 -52 CURVE SMOOTH",
"34 -40 OFFCURVE",
"32 -30 OFFCURVE",
"32 -22 CURVE SMOOTH",
"32 43 OFFCURVE",
"83 163 OFFCURVE",
"185 340 CURVE SMOOTH",
"198 363 OFFCURVE",
"212 384 OFFCURVE",
"220 397 CURVE SMOOTH",
"240 428 LINE",
"240 433 OFFCURVE",
"216 445 OFFCURVE",
"201 445 CURVE SMOOTH",
"192 445 OFFCURVE",
"174 420 OFFCURVE",
"149 369 CURVE",
"54 203 OFFCURVE",
"7 80 OFFCURVE",
"7 -1 CURVE SMOOTH",
"7 -50 OFFCURVE",
"24 -73 OFFCURVE",
"44 -73 CURVE SMOOTH"
);
}
);
width = 455;
}
);
note = K;
unicode = 004B;
},
{
glyphname = L;
lastChange = "2021-04-18 12:56:31 +0000";
layers = (
{
anchors = (
{
name = bottom;
position = "{234, -42}";
},
{
name = center;
position = "{234, 260}";
},
{
name = top;
position = "{357, 558}";
},
{
name = topright;
position = "{448, 547}";
}
);
background = {
anchors = (
{
name = bottom;
position = "{234, 30}";
},
{
name = center;
position = "{234, 260}";
},
{
name = top;
position = "{357, 558}";
},
{
name = topright;
position = "{448, 490}";
}
);
paths = (
{
closed = 1;
nodes = (
"107 -84 OFFCURVE",
"106 -82 OFFCURVE",
"98 -55 CURVE SMOOTH",
"93 -38 OFFCURVE",
"91 -23 OFFCURVE",
"91 -11 CURVE",
"186 18 OFFCURVE",
"261 32 OFFCURVE",
"316 32 CURVE SMOOTH",
"399 32 OFFCURVE",
"440 16 OFFCURVE",
"440 -15 CURVE SMOOTH",
"440 -22 OFFCURVE",
"432 -44 OFFCURVE",
"411 -65 CURVE",
"411 -66 OFFCURVE",
"412 -67 OFFCURVE",
"413 -68 CURVE",
"424 -68 OFFCURVE",
"434 -60 OFFCURVE",
"443 -43 CURVE SMOOTH",
"452 -26 OFFCURVE",
"457 -15 OFFCURVE",
"457 -9 CURVE SMOOTH",
"457 37 OFFCURVE",
"407 60 OFFCURVE",
"308 60 CURVE SMOOTH",
"246 60 OFFCURVE",
"177 52 OFFCURVE",
"100 36 CURVE",
"113 91 OFFCURVE",
"142 162 OFFCURVE",
"185 249 CURVE SMOOTH",
"226 331 OFFCURVE",
"277 418 OFFCURVE",
"328 490 CURVE SMOOTH",
"344 512 OFFCURVE",
"358 524 OFFCURVE",
"369 524 CURVE SMOOTH",
"378 524 OFFCURVE",
"382 517 OFFCURVE",
"382 504 CURVE SMOOTH",
"382 459 OFFCURVE",
"330 370 OFFCURVE",
"226 236 CURVE SMOOTH",
"189 189 OFFCURVE",
"171 165 OFFCURVE",
"171 162 CURVE",
"174 160 LINE",
"178 160 OFFCURVE",
"186 167 OFFCURVE",
"198 182 CURVE SMOOTH",
"199 184 OFFCURVE",
"218 205 OFFCURVE",
"220 212 CURVE",
"275 276 OFFCURVE",
"321 336 OFFCURVE",
"358 393 CURVE SMOOTH",
"395 450 OFFCURVE",
"414 489 OFFCURVE",
"414 511 CURVE SMOOTH",
"414 522 OFFCURVE",
"406 533 OFFCURVE",
"389 543 CURVE SMOOTH",
"373 553 OFFCURVE",
"357 558 OFFCURVE",
"341 558 CURVE SMOOTH",
"316 558 OFFCURVE",
"283 526 OFFCURVE",
"242 463 CURVE SMOOTH",
"201 400 OFFCURVE",
"164 326 OFFCURVE",
"131 242 CURVE SMOOTH",
"98 158 OFFCURVE",
"77 87 OFFCURVE",
"70 30 CURVE",
"35 23 OFFCURVE",
"15 17 OFFCURVE",
"9 13 CURVE",
"4 8 OFFCURVE",
"1 -4 OFFCURVE",
"1 -23 CURVE SMOOTH",
"1 -32 OFFCURVE",
"4 -36 OFFCURVE",
"10 -36 CURVE",
"36 -27 OFFCURVE",
"54 -21 OFFCURVE",
"65 -18 CURVE",
"67 -63 OFFCURVE",
"81 -84 OFFCURVE",
"106 -84 CURVE SMOOTH"
);
}
);
};
hints = (
{
horizontal = 1;
place = "{2, 28}";
type = Stem;
},
{
horizontal = 1;
place = "{528, -20}";
target = down;
type = TopGhost;
},
{
place = "{65, 26}";
type = Stem;
},
{
place = "{440, 17}";
type = Stem;
},
{
horizontal = 1;
place = "{494, 34}";
type = Stem;
},
{
place = "{382, 32}";
type = Stem;
}
);
layerId = "8B85D65B-9817-42FC-8CCD-19CD4C331E33";
paths = (
{
closed = 1;
nodes = (
"107 -84 OFFCURVE",
"106 -82 OFFCURVE",
"98 -55 CURVE SMOOTH",
"93 -38 OFFCURVE",
"91 -23 OFFCURVE",
"91 -11 CURVE",
"186 18 OFFCURVE",
"261 32 OFFCURVE",
"316 32 CURVE SMOOTH",
"399 32 OFFCURVE",
"440 16 OFFCURVE",
"440 -15 CURVE SMOOTH",
"440 -22 OFFCURVE",
"432 -44 OFFCURVE",
"411 -65 CURVE",
"411 -66 OFFCURVE",
"412 -67 OFFCURVE",
"413 -68 CURVE",
"424 -68 OFFCURVE",
"434 -60 OFFCURVE",
"443 -43 CURVE SMOOTH",
"452 -26 OFFCURVE",
"457 -15 OFFCURVE",
"457 -9 CURVE SMOOTH",
"457 37 OFFCURVE",
"407 60 OFFCURVE",
"308 60 CURVE SMOOTH",
"246 60 OFFCURVE",
"177 52 OFFCURVE",
"100 36 CURVE",
"113 91 OFFCURVE",
"142 162 OFFCURVE",
"185 249 CURVE SMOOTH",
"226 331 OFFCURVE",
"277 418 OFFCURVE",
"328 490 CURVE SMOOTH",
"344 512 OFFCURVE",
"358 524 OFFCURVE",
"369 524 CURVE SMOOTH",
"378 524 OFFCURVE",
"382 517 OFFCURVE",
"382 504 CURVE SMOOTH",
"382 459 OFFCURVE",
"330 370 OFFCURVE",
"226 236 CURVE SMOOTH",
"189 189 OFFCURVE",
"171 165 OFFCURVE",
"171 162 CURVE",
"174 160 LINE",
"178 160 OFFCURVE",
"186 167 OFFCURVE",
"198 182 CURVE SMOOTH",
"199 184 OFFCURVE",
"218 205 OFFCURVE",
"220 212 CURVE",
"275 276 OFFCURVE",
"321 336 OFFCURVE",
"358 393 CURVE SMOOTH",
"395 450 OFFCURVE",
"414 489 OFFCURVE",
"414 511 CURVE SMOOTH",
"414 522 OFFCURVE",
"406 533 OFFCURVE",
"389 543 CURVE SMOOTH",
"373 553 OFFCURVE",
"357 558 OFFCURVE",
"341 558 CURVE SMOOTH",
"316 558 OFFCURVE",
"283 526 OFFCURVE",
"242 463 CURVE SMOOTH",
"201 400 OFFCURVE",
"164 326 OFFCURVE",
"131 242 CURVE SMOOTH",
"98 158 OFFCURVE",
"77 87 OFFCURVE",
"70 30 CURVE",
"35 23 OFFCURVE",
"15 17 OFFCURVE",
"9 13 CURVE",
"4 8 OFFCURVE",
"1 -4 OFFCURVE",
"1 -23 CURVE SMOOTH",
"1 -32 OFFCURVE",
"4 -36 OFFCURVE",
"10 -36 CURVE",
"36 -27 OFFCURVE",
"54 -21 OFFCURVE",
"65 -18 CURVE",
"67 -63 OFFCURVE",
"81 -84 OFFCURVE",
"106 -84 CURVE SMOOTH"
);
}
);
width = 468;
}
);
note = L;
unicode = 004C;
},
{
glyphname = M;
lastChange = "2021-04-15 17:47:42 +0000";
layers = (
{
anchors = (
{
name = bottom;
position = "{347, 30}";
},
{
name = top;
position = "{347, 490}";
}
);
background = {
anchors = (
{
name = bottom;
position = "{347, 30}";
},
{
name = top;
position = "{347, 490}";
}
);
paths = (
{
closed = 1;
nodes = (
"69 -87 OFFCURVE",
"69 -82 OFFCURVE",
"62 -75 CURVE SMOOTH",
"59 -72 OFFCURVE",
"52 -56 OFFCURVE",
"52 -25 CURVE SMOOTH",
"52 39 OFFCURVE",
"77 111 OFFCURVE",
"132 193 CURVE SMOOTH",
"174 256 OFFCURVE",
"218 311 OFFCURVE",
"264 354 CURVE SMOOTH",
"310 397 OFFCURVE",
"352 419 OFFCURVE",
"389 419 CURVE SMOOTH",
"404 419 OFFCURVE",
"411 410 OFFCURVE",
"411 391 CURVE SMOOTH",
"411 357 OFFCURVE",
"385 289 OFFCURVE",
"334 187 CURVE SMOOTH",
"283 85 OFFCURVE",
"258 34 OFFCURVE",
"259 34 CURVE",
"259 25 OFFCURVE",
"267 20 OFFCURVE",
"284 20 CURVE SMOOTH",
"301 20 OFFCURVE",
"311 23 OFFCURVE",
"316 30 CURVE",
"335 70 LINE",
"389 117 OFFCURVE",
"491 223 OFFCURVE",
"641 388 CURVE",
"641 390 OFFCURVE",
"640 391 OFFCURVE",
"638 391 CURVE SMOOTH",
"629 391 OFFCURVE",
"611 377 OFFCURVE",
"585 350 CURVE SMOOTH",
"566 329 OFFCURVE",
"544 305 OFFCURVE",
"538 296 CURVE",
"455 211 OFFCURVE",
"396 152 OFFCURVE",
"361 120 CURVE",
"423 246 OFFCURVE",
"454 335 OFFCURVE",
"454 386 CURVE SMOOTH",
"454 427 OFFCURVE",
"436 447 OFFCURVE",
"401 447 CURVE SMOOTH",
"328 447 OFFCURVE",
"243 379 OFFCURVE",
"146 244 CURVE",
"167 287 OFFCURVE",
"215 370 OFFCURVE",
"289 491 CURVE",
"289 502 OFFCURVE",
"262 511 OFFCURVE",
"245 511 CURVE SMOOTH",
"237 511 OFFCURVE",
"223 495 OFFCURVE",
"212 476 CURVE SMOOTH",
"199 453 OFFCURVE",
"190 437 OFFCURVE",
"185 426 CURVE",
"76 237 OFFCURVE",
"21 96 OFFCURVE",
"21 3 CURVE SMOOTH",
"21 -44 OFFCURVE",
"42 -87 OFFCURVE",
"62 -87 CURVE SMOOTH"
);
},
{
closed = 1;
nodes = (
"639 -42 OFFCURVE",
"669 -4 OFFCURVE",
"688 73 CURVE SMOOTH",
"689 77 OFFCURVE",
"690 89 OFFCURVE",
"686 89 CURVE SMOOTH",
"684 89 OFFCURVE",
"680 86 OFFCURVE",
"675 76 CURVE",
"645 6 OFFCURVE",
"622 -29 OFFCURVE",
"606 -29 CURVE SMOOTH",
"589 -29 OFFCURVE",
"580 -3 OFFCURVE",
"580 49 CURVE SMOOTH",
"580 128 OFFCURVE",
"612 226 OFFCURVE",
"676 342 CURVE SMOOTH",
"700 385 OFFCURVE",
"712 408 OFFCURVE",
"712 411 CURVE SMOOTH",
"712 415 OFFCURVE",
"707 417 OFFCURVE",
"697 417 CURVE SMOOTH",
"675 417 OFFCURVE",
"654 402 OFFCURVE",
"633 372 CURVE SMOOTH",
"612 343 OFFCURVE",
"595 307 OFFCURVE",
"582 266 CURVE SMOOTH",
"569 225 OFFCURVE",
"558 185 OFFCURVE",
"550 146 CURVE SMOOTH",
"543 110 OFFCURVE",
"539 80 OFFCURVE",
"539 55 CURVE SMOOTH",
"539 27 OFFCURVE",
"544 5 OFFCURVE",
"555 -14 CURVE SMOOTH",
"566 -33 OFFCURVE",
"581 -42 OFFCURVE",
"600 -42 CURVE SMOOTH"
);
}
);
};
hints = (
{
horizontal = 1;
place = "{-72, 13}";
type = Stem;
},
{
horizontal = 1;
place = "{389, 28}";
type = Stem;
},
{
place = "{21, 31}";
type = Stem;
},
{
place = "{411, 43}";
type = Stem;
},
{
place = "{539, 41}";
type = Stem;
}
);
layerId = "8B85D65B-9817-42FC-8CCD-19CD4C331E33";
paths = (
{
closed = 1;
nodes = (
"69 -87 OFFCURVE",
"69 -82 OFFCURVE",
"62 -75 CURVE SMOOTH",
"59 -72 OFFCURVE",
"52 -56 OFFCURVE",
"52 -25 CURVE SMOOTH",
"52 39 OFFCURVE",
"77 111 OFFCURVE",
"132 193 CURVE SMOOTH",
"174 256 OFFCURVE",
"218 311 OFFCURVE",
"264 354 CURVE SMOOTH",
"310 397 OFFCURVE",
"352 419 OFFCURVE",
"389 419 CURVE SMOOTH",
"404 419 OFFCURVE",
"411 410 OFFCURVE",
"411 391 CURVE SMOOTH",
"411 357 OFFCURVE",
"385 289 OFFCURVE",
"334 187 CURVE SMOOTH",
"283 85 OFFCURVE",
"258 34 OFFCURVE",
"259 34 CURVE",
"259 25 OFFCURVE",
"267 20 OFFCURVE",
"284 20 CURVE SMOOTH",
"301 20 OFFCURVE",
"311 23 OFFCURVE",
"316 30 CURVE",
"335 70 LINE",
"389 117 OFFCURVE",
"491 223 OFFCURVE",
"641 388 CURVE",
"641 390 OFFCURVE",
"640 391 OFFCURVE",
"638 391 CURVE SMOOTH",
"629 391 OFFCURVE",
"611 377 OFFCURVE",
"585 350 CURVE SMOOTH",
"566 329 OFFCURVE",
"544 305 OFFCURVE",
"538 296 CURVE",
"455 211 OFFCURVE",
"396 152 OFFCURVE",
"361 120 CURVE",
"423 246 OFFCURVE",
"454 335 OFFCURVE",
"454 386 CURVE SMOOTH",
"454 427 OFFCURVE",
"436 447 OFFCURVE",
"401 447 CURVE SMOOTH",
"328 447 OFFCURVE",
"243 379 OFFCURVE",
"146 244 CURVE",
"167 287 OFFCURVE",
"215 370 OFFCURVE",
"289 491 CURVE",
"289 502 OFFCURVE",
"262 511 OFFCURVE",
"245 511 CURVE SMOOTH",
"237 511 OFFCURVE",
"223 495 OFFCURVE",
"212 476 CURVE SMOOTH",
"199 453 OFFCURVE",
"190 437 OFFCURVE",
"185 426 CURVE",
"76 237 OFFCURVE",
"21 96 OFFCURVE",
"21 3 CURVE SMOOTH",
"21 -44 OFFCURVE",
"42 -87 OFFCURVE",
"62 -87 CURVE SMOOTH"
);
},
{
closed = 1;
nodes = (
"639 -42 OFFCURVE",
"669 -4 OFFCURVE",
"688 73 CURVE SMOOTH",
"689 77 OFFCURVE",
"690 89 OFFCURVE",
"686 89 CURVE SMOOTH",
"684 89 OFFCURVE",
"680 86 OFFCURVE",
"675 76 CURVE",
"645 6 OFFCURVE",
"622 -29 OFFCURVE",
"606 -29 CURVE SMOOTH",
"589 -29 OFFCURVE",
"580 -3 OFFCURVE",
"580 49 CURVE SMOOTH",
"580 128 OFFCURVE",
"612 226 OFFCURVE",
"676 342 CURVE SMOOTH",
"700 385 OFFCURVE",
"712 408 OFFCURVE",
"712 411 CURVE SMOOTH",
"712 415 OFFCURVE",
"707 417 OFFCURVE",
"697 417 CURVE SMOOTH",
"675 417 OFFCURVE",
"654 402 OFFCURVE",
"633 372 CURVE SMOOTH",
"612 343 OFFCURVE",
"595 307 OFFCURVE",
"582 266 CURVE SMOOTH",
"569 225 OFFCURVE",
"558 185 OFFCURVE",
"550 146 CURVE SMOOTH",
"543 110 OFFCURVE",
"539 80 OFFCURVE",
"539 55 CURVE SMOOTH",
"539 27 OFFCURVE",
"544 5 OFFCURVE",
"555 -14 CURVE SMOOTH",
"566 -33 OFFCURVE",
"581 -42 OFFCURVE",
"600 -42 CURVE SMOOTH"
);
}
);
width = 694;
}
);
note = M;
unicode = 004D;
},
{
glyphname = N;
lastChange = "2021-04-15 17:47:42 +0000";
layers = (
{
anchors = (
{
name = bottom;
position = "{193, -42}";
},
{
name = top;
position = "{383, 490}";
}
);
background = {
anchors = (
{
name = bottom;
position = "{193, -42}";
},
{
name = top;
position = "{383, 490}";
}
);
paths = (
{
closed = 1;
nodes = (
"73 -59 OFFCURVE",
"75 -58 OFFCURVE",
"75 -55 CURVE",
"67 -43 OFFCURVE",
"63 -30 OFFCURVE",
"63 -17 CURVE SMOOTH",
"63 32 OFFCURVE",
"109 103 OFFCURVE",
"202 197 CURVE",
"407 382 LINE",
"384 330 OFFCURVE",
"363 271 OFFCURVE",
"346 206 CURVE SMOOTH",
"329 141 OFFCURVE",
"321 93 OFFCURVE",
"321 60 CURVE SMOOTH",
"321 -4 OFFCURVE",
"347 -42 OFFCURVE",
"383 -42 CURVE SMOOTH",
"420 -42 OFFCURVE",
"449 -4 OFFCURVE",
"470 73 CURVE SMOOTH",
"471 77 OFFCURVE",
"471 79 OFFCURVE",
"471 82 CURVE SMOOTH",
"471 86 OFFCURVE",
"470 90 OFFCURVE",
"468 90 CURVE SMOOTH",
"466 90 OFFCURVE",
"463 86 OFFCURVE",
"457 76 CURVE",
"428 6 OFFCURVE",
"405 -29 OFFCURVE",
"388 -29 CURVE SMOOTH",
"371 -29 OFFCURVE",
"362 -5 OFFCURVE",
"362 44 CURVE SMOOTH",
"362 135 OFFCURVE",
"411 278 OFFCURVE",
"509 472 CURVE",
"510 476 LINE",
"510 481 OFFCURVE",
"506 483 OFFCURVE",
"498 483 CURVE SMOOTH",
"481 483 OFFCURVE",
"467 477 OFFCURVE",
"457 468 CURVE SMOOTH",
"379 397 LINE SMOOTH",
"220 252 OFFCURVE",
"117 148 OFFCURVE",
"73 76 CURVE",
"91 134 OFFCURVE",
"123 205 OFFCURVE",
"169 288 CURVE SMOOTH",
"180 308 OFFCURVE",
"202 344 OFFCURVE",
"233 397 CURVE SMOOTH",
"289 491 LINE",
"289 502 OFFCURVE",
"262 511 OFFCURVE",
"246 511 CURVE SMOOTH",
"233 511 OFFCURVE",
"213 484 OFFCURVE",
"186 429 CURVE",
"81 254 OFFCURVE",
"29 121 OFFCURVE",
"29 32 CURVE SMOOTH",
"29 -13 OFFCURVE",
"46 -59 OFFCURVE",
"70 -59 CURVE SMOOTH"
);
}
);
};
hints = (
{
horizontal = 1;
place = "{-72, 13}";
type = Stem;
},
{
place = "{29, 34}";
type = Stem;
},
{
place = "{321, 41}";
type = Stem;
}
);
layerId = "8B85D65B-9817-42FC-8CCD-19CD4C331E33";
paths = (
{
closed = 1;
nodes = (
"73 -59 OFFCURVE",
"75 -58 OFFCURVE",
"75 -55 CURVE",
"67 -43 OFFCURVE",
"63 -30 OFFCURVE",
"63 -17 CURVE SMOOTH",
"63 32 OFFCURVE",
"109 103 OFFCURVE",
"202 197 CURVE",
"407 382 LINE",
"384 330 OFFCURVE",
"363 271 OFFCURVE",
"346 206 CURVE SMOOTH",
"329 141 OFFCURVE",
"321 93 OFFCURVE",
"321 60 CURVE SMOOTH",
"321 -4 OFFCURVE",
"347 -42 OFFCURVE",
"383 -42 CURVE SMOOTH",
"420 -42 OFFCURVE",
"449 -4 OFFCURVE",
"470 73 CURVE SMOOTH",
"471 77 OFFCURVE",
"471 79 OFFCURVE",
"471 82 CURVE SMOOTH",
"471 86 OFFCURVE",
"470 90 OFFCURVE",
"468 90 CURVE SMOOTH",
"466 90 OFFCURVE",
"463 86 OFFCURVE",
"457 76 CURVE",
"428 6 OFFCURVE",
"405 -29 OFFCURVE",
"388 -29 CURVE SMOOTH",
"371 -29 OFFCURVE",
"362 -5 OFFCURVE",
"362 44 CURVE SMOOTH",
"362 135 OFFCURVE",
"411 278 OFFCURVE",
"509 472 CURVE",
"510 476 LINE",
"510 481 OFFCURVE",
"506 483 OFFCURVE",
"498 483 CURVE SMOOTH",
"481 483 OFFCURVE",
"467 477 OFFCURVE",
"457 468 CURVE SMOOTH",
"379 397 LINE SMOOTH",
"220 252 OFFCURVE",
"117 148 OFFCURVE",
"73 76 CURVE",
"91 134 OFFCURVE",
"123 205 OFFCURVE",
"169 288 CURVE SMOOTH",
"180 308 OFFCURVE",
"202 344 OFFCURVE",
"233 397 CURVE SMOOTH",
"289 491 LINE",
"289 502 OFFCURVE",
"262 511 OFFCURVE",
"246 511 CURVE SMOOTH",
"233 511 OFFCURVE",
"213 484 OFFCURVE",
"186 429 CURVE",
"81 254 OFFCURVE",
"29 121 OFFCURVE",
"29 32 CURVE SMOOTH",
"29 -13 OFFCURVE",
"46 -59 OFFCURVE",
"70 -59 CURVE SMOOTH"
);
}
);
width = 473;
}
);
note = N;
unicode = 004E;
},
{
glyphname = O;
lastChange = "2021-04-15 17:47:42 +0000";
layers = (
{
anchors = (
{
name = bottom;
position = "{149, -44}";
},
{
name = center;
position = "{296, 260}";
},
{
name = ogonek;
position = "{237, -30}";
},
{
name = top;
position = "{484, 490}";
},
{
name = topleft;
position = "{20, 490}";
},
{
name = topright;
position = "{624, 403}";
}
);
background = {
anchors = (
{
name = bottom;
position = "{149, -44}";
},
{
name = center;
position = "{296, 260}";
},
{
name = ogonek;
position = "{237, -30}";
},
{
name = top;
position = "{484, 490}";
},
{
name = topleft;
position = "{20, 490}";
},
{
name = topright;
position = "{624, 403}";
}
);
paths = (
{
closed = 1;
nodes = (
"240 -45 OFFCURVE",
"297 -35 OFFCURVE",
"346 -15 CURVE SMOOTH",
"395 4 OFFCURVE",
"447 38 OFFCURVE",
"502 86 CURVE SMOOTH",
"574 150 OFFCURVE",
"610 214 OFFCURVE",
"610 279 CURVE SMOOTH",
"610 293 OFFCURVE",
"609 304 OFFCURVE",
"606 312 CURVE",
"620 341 OFFCURVE",
"627 363 OFFCURVE",
"627 380 CURVE SMOOTH",
"627 443 OFFCURVE",
"566 482 OFFCURVE",
"473 482 CURVE SMOOTH",
"406 482 OFFCURVE",
"338 464 OFFCURVE",
"267 428 CURVE SMOOTH",
"197 392 OFFCURVE",
"139 345 OFFCURVE",
"92 286 CURVE SMOOTH",
"45 228 OFFCURVE",
"22 169 OFFCURVE",
"22 110 CURVE SMOOTH",
"22 65 OFFCURVE",
"36 28 OFFCURVE",
"65 -1 CURVE SMOOTH",
"94 -30 OFFCURVE",
"131 -45 OFFCURVE",
"175 -45 CURVE SMOOTH"
);
},
{
closed = 1;
nodes = (
"132 -19 OFFCURVE",
"77 31 OFFCURVE",
"77 119 CURVE SMOOTH",
"77 176 OFFCURVE",
"97 232 OFFCURVE",
"138 287 CURVE SMOOTH",
"179 342 OFFCURVE",
"230 385 OFFCURVE",
"291 417 CURVE SMOOTH",
"352 450 OFFCURVE",
"413 466 OFFCURVE",
"473 466 CURVE SMOOTH",
"552 466 OFFCURVE",
"603 429 OFFCURVE",
"603 372 CURVE SMOOTH",
"603 360 OFFCURVE",
"601 348 OFFCURVE",
"596 336 CURVE",
"581 362 OFFCURVE",
"557 383 OFFCURVE",
"524 398 CURVE SMOOTH",
"491 414 OFFCURVE",
"458 422 OFFCURVE",
"427 422 CURVE SMOOTH",
"396 422 OFFCURVE",
"369 418 OFFCURVE",
"346 411 CURVE",
"343 409 LINE",
"350 407 OFFCURVE",
"370 406 OFFCURVE",
"391 404 CURVE SMOOTH",
"421 402 OFFCURVE",
"440 402 OFFCURVE",
"453 398 CURVE SMOOTH",
"513 381 OFFCURVE",
"557 339 OFFCURVE",
"566 287 CURVE",
"541 256 OFFCURVE",
"503 219 OFFCURVE",
"452 176 CURVE SMOOTH",
"435 162 OFFCURVE",
"424 153 OFFCURVE",
"424 154 CURVE",
"424 153 OFFCURVE",
"425 152 OFFCURVE",
"431 155 CURVE SMOOTH",
"488 185 OFFCURVE",
"533 219 OFFCURVE",
"567 257 CURVE",
"562 206 OFFCURVE",
"539 159 OFFCURVE",
"500 115 CURVE SMOOTH",
"461 72 OFFCURVE",
"416 39 OFFCURVE",
"365 16 CURVE SMOOTH",
"314 -7 OFFCURVE",
"266 -19 OFFCURVE",
"221 -19 CURVE SMOOTH"
);
}
);
};
hints = (
{
horizontal = 1;
place = "{-75, 26}";
type = Stem;
},
{
horizontal = 1;
place = "{374, 18}";
type = Stem;
},
{
horizontal = 1;
place = "{436, 16}";
type = Stem;
},
{
place = "{22, 55}";
type = Stem;
},
{
place = "{603, 24}";
type = Stem;
},
{
place = "{567, 43}";
type = Stem;
}
);
layerId = "8B85D65B-9817-42FC-8CCD-19CD4C331E33";
paths = (
{
closed = 1;
nodes = (
"240 -45 OFFCURVE",
"297 -35 OFFCURVE",
"346 -15 CURVE SMOOTH",
"395 4 OFFCURVE",
"447 38 OFFCURVE",
"502 86 CURVE SMOOTH",
"574 150 OFFCURVE",
"610 214 OFFCURVE",
"610 279 CURVE SMOOTH",
"610 293 OFFCURVE",
"609 304 OFFCURVE",
"606 312 CURVE",
"620 341 OFFCURVE",
"627 363 OFFCURVE",
"627 380 CURVE SMOOTH",
"627 443 OFFCURVE",
"566 482 OFFCURVE",
"473 482 CURVE SMOOTH",
"406 482 OFFCURVE",
"338 464 OFFCURVE",
"267 428 CURVE SMOOTH",
"197 392 OFFCURVE",
"139 345 OFFCURVE",
"92 286 CURVE SMOOTH",
"45 228 OFFCURVE",
"22 169 OFFCURVE",
"22 110 CURVE SMOOTH",
"22 65 OFFCURVE",
"36 28 OFFCURVE",
"65 -1 CURVE SMOOTH",
"94 -30 OFFCURVE",
"131 -45 OFFCURVE",
"175 -45 CURVE SMOOTH"
);
},
{
closed = 1;
nodes = (
"132 -19 OFFCURVE",
"77 31 OFFCURVE",
"77 119 CURVE SMOOTH",
"77 176 OFFCURVE",
"97 232 OFFCURVE",
"138 287 CURVE SMOOTH",
"179 342 OFFCURVE",
"230 385 OFFCURVE",
"291 417 CURVE SMOOTH",
"352 450 OFFCURVE",
"413 466 OFFCURVE",
"473 466 CURVE SMOOTH",
"552 466 OFFCURVE",
"603 429 OFFCURVE",
"603 372 CURVE SMOOTH",
"603 360 OFFCURVE",
"601 348 OFFCURVE",
"596 336 CURVE",
"581 362 OFFCURVE",
"557 383 OFFCURVE",
"524 398 CURVE SMOOTH",
"491 414 OFFCURVE",
"458 422 OFFCURVE",
"427 422 CURVE SMOOTH",
"396 422 OFFCURVE",
"369 418 OFFCURVE",
"346 411 CURVE",
"343 409 LINE",
"350 407 OFFCURVE",
"370 406 OFFCURVE",
"391 404 CURVE SMOOTH",
"421 402 OFFCURVE",
"440 402 OFFCURVE",
"453 398 CURVE SMOOTH",
"513 381 OFFCURVE",
"557 339 OFFCURVE",
"566 287 CURVE",
"541 256 OFFCURVE",
"503 219 OFFCURVE",
"452 176 CURVE SMOOTH",
"435 162 OFFCURVE",
"424 153 OFFCURVE",
"424 154 CURVE",
"424 153 OFFCURVE",
"425 152 OFFCURVE",
"431 155 CURVE SMOOTH",
"488 185 OFFCURVE",
"533 219 OFFCURVE",
"567 257 CURVE",
"562 206 OFFCURVE",
"539 159 OFFCURVE",
"500 115 CURVE SMOOTH",
"461 72 OFFCURVE",
"416 39 OFFCURVE",
"365 16 CURVE SMOOTH",
"314 -7 OFFCURVE",
"266 -19 OFFCURVE",
"221 -19 CURVE SMOOTH"
);
}
);
width = 591;
}
);
note = O;
unicode = 004F;
},
{
glyphname = P;
lastChange = "2021-04-18 13:12:16 +0000";
layers = (
{
anchors = (
{
name = bottom;
position = "{313, 30}";
},
{
name = top;
position = "{313, 490}";
}
);
background = {
anchors = (
{
name = bottom;
position = "{313, 30}";
},
{
name = top;
position = "{313, 490}";
}
);
paths = (
{
closed = 1;
nodes = (
"190 -68 OFFCURVE",
"190 -66 OFFCURVE",
"190 -64 CURVE SMOOTH",
"188 -52 LINE",
"188 -27 OFFCURVE",
"199 13 OFFCURVE",
"221 68 CURVE SMOOTH",
"243 124 OFFCURVE",
"265 167 OFFCURVE",
"286 197 CURVE",
"323 184 OFFCURVE",
"359 177 OFFCURVE",
"396 177 CURVE SMOOTH",
"463 177 OFFCURVE",
"528 195 OFFCURVE",
"592 232 CURVE SMOOTH",
"657 269 OFFCURVE",
"689 309 OFFCURVE",
"689 354 CURVE SMOOTH",
"689 443 OFFCURVE",
"587 495 OFFCURVE",
"418 495 CURVE SMOOTH",
"285 495 OFFCURVE",
"161 468 OFFCURVE",
"46 413 CURVE SMOOTH",
"19 400 OFFCURVE",
"5 385 OFFCURVE",
"5 368 CURVE SMOOTH",
"5 351 OFFCURVE",
"10 343 OFFCURVE",
"21 343 CURVE SMOOTH",
"24 343 OFFCURVE",
"28 346 OFFCURVE",
"27 345 CURVE SMOOTH",
"115 409 OFFCURVE",
"240 448 OFFCURVE",
"402 461 CURVE",
"402 460 LINE",
"332 378 OFFCURVE",
"274 291 OFFCURVE",
"227 200 CURVE SMOOTH",
"181 109 OFFCURVE",
"158 35 OFFCURVE",
"158 -23 CURVE SMOOTH",
"158 -53 OFFCURVE",
"167 -68 OFFCURVE",
"186 -68 CURVE SMOOTH"
);
},
{
closed = 1;
nodes = (
"292 222 OFFCURVE",
"343 300 OFFCURVE",
"445 443 CURVE",
"445 444 OFFCURVE",
"436 450 OFFCURVE",
"419 461 CURVE",
"585 461 OFFCURVE",
"668 434 OFFCURVE",
"668 379 CURVE SMOOTH",
"668 352 OFFCURVE",
"650 325 OFFCURVE",
"613 297 CURVE SMOOTH",
"579 272 OFFCURVE",
"533 247 OFFCURVE",
"482 230 CURVE SMOOTH",
"423 211 OFFCURVE",
"378 205 OFFCURVE",
"344 205 CURVE SMOOTH",
"321 205 OFFCURVE",
"303 208 OFFCURVE",
"292 211 CURVE"
);
}
);
};
hints = (
{
horizontal = 1;
place = "{147, 28}";
type = Stem;
},
{
horizontal = 1;
place = "{431, 34}";
type = Stem;
},
{
place = "{158, 30}";
type = Stem;
},
{
place = "{668, 21}";
type = Stem;
}
);
layerId = "8B85D65B-9817-42FC-8CCD-19CD4C331E33";
paths = (
{
closed = 1;
nodes = (
"190 -68 OFFCURVE",
"190 -66 OFFCURVE",
"190 -64 CURVE SMOOTH",
"188 -52 LINE",
"188 -27 OFFCURVE",
"199 13 OFFCURVE",
"221 68 CURVE SMOOTH",
"243 124 OFFCURVE",
"265 167 OFFCURVE",
"286 197 CURVE",
"323 184 OFFCURVE",
"359 177 OFFCURVE",
"396 177 CURVE SMOOTH",
"463 177 OFFCURVE",
"528 195 OFFCURVE",
"592 232 CURVE SMOOTH",
"657 269 OFFCURVE",
"689 309 OFFCURVE",
"689 354 CURVE SMOOTH",
"689 443 OFFCURVE",
"587 495 OFFCURVE",
"418 495 CURVE SMOOTH",
"285 495 OFFCURVE",
"161 468 OFFCURVE",
"46 413 CURVE SMOOTH",
"19 400 OFFCURVE",
"5 385 OFFCURVE",
"5 368 CURVE SMOOTH",
"5 351 OFFCURVE",
"10 343 OFFCURVE",
"21 343 CURVE SMOOTH",
"24 343 OFFCURVE",
"28 346 OFFCURVE",
"27 345 CURVE SMOOTH",
"115 409 OFFCURVE",
"240 448 OFFCURVE",
"402 461 CURVE",
"402 460 LINE",
"332 378 OFFCURVE",
"274 291 OFFCURVE",
"227 200 CURVE SMOOTH",
"181 109 OFFCURVE",
"158 35 OFFCURVE",
"158 -23 CURVE SMOOTH",
"158 -53 OFFCURVE",
"167 -68 OFFCURVE",
"186 -68 CURVE SMOOTH"
);
},
{
closed = 1;
nodes = (
"321 205 OFFCURVE",
"303 208 OFFCURVE",
"292 211 CURVE",
"292 222 OFFCURVE",
"343 300 OFFCURVE",
"445 443 CURVE",
"445 444 OFFCURVE",
"436 450 OFFCURVE",
"419 461 CURVE",
"585 461 OFFCURVE",
"668 434 OFFCURVE",
"668 379 CURVE SMOOTH",
"668 352 OFFCURVE",
"650 325 OFFCURVE",
"613 297 CURVE SMOOTH",
"579 272 OFFCURVE",
"533 247 OFFCURVE",
"482 230 CURVE SMOOTH",
"423 211 OFFCURVE",
"378 205 OFFCURVE",
"344 205 CURVE SMOOTH"
);
}
);
width = 625;
}
);
note = P;
unicode = 0050;
},
{
glyphname = Q;
lastChange = "2021-04-15 17:47:42 +0000";
layers = (
{
anchors = (
{
name = bottom;
position = "{300, 30}";
},
{
name = top;
position = "{300, 490}";
}
);
background = {
anchors = (
{
name = bottom;
position = "{300, 30}";
},
{
name = top;
position = "{300, 490}";
}
);
paths = (
{
closed = 1;
nodes = (
"753 -199 OFFCURVE",
"776 -178 OFFCURVE",
"776 -136 CURVE SMOOTH",
"776 -89 OFFCURVE",
"756 -47 OFFCURVE",
"717 -12 CURVE SMOOTH",
"678 23 OFFCURVE",
"625 40 OFFCURVE",
"556 40 CURVE SMOOTH",
"549 40 OFFCURVE",
"545 39 OFFCURVE",
"545 38 CURVE",
"545 39 OFFCURVE",
"558 35 OFFCURVE",
"596 23 CURVE SMOOTH",
"631 12 OFFCURVE",
"659 -1 OFFCURVE",
"682 -15 CURVE SMOOTH",
"731 -45 OFFCURVE",
"755 -77 OFFCURVE",
"755 -110 CURVE SMOOTH",
"755 -141 OFFCURVE",
"734 -156 OFFCURVE",
"693 -156 CURVE SMOOTH",
"652 -156 OFFCURVE",
"611 -146 OFFCURVE",
"568 -126 CURVE SMOOTH",
"526 -106 OFFCURVE",
"464 -66 OFFCURVE",
"381 -7 CURVE",
"449 29 OFFCURVE",
"506 76 OFFCURVE",
"553 135 CURVE SMOOTH",
"600 194 OFFCURVE",
"624 247 OFFCURVE",
"624 296 CURVE SMOOTH",
"624 345 OFFCURVE",
"602 390 OFFCURVE",
"557 429 CURVE SMOOTH",
"512 469 OFFCURVE",
"465 489 OFFCURVE",
"414 489 CURVE SMOOTH",
"351 489 OFFCURVE",
"288 473 OFFCURVE",
"225 440 CURVE SMOOTH",
"162 407 OFFCURVE",
"108 365 OFFCURVE",
"62 313 CURVE SMOOTH",
"42 290 OFFCURVE",
"32 276 OFFCURVE",
"32 270 CURVE SMOOTH",
"32 265 OFFCURVE",
"34 262 OFFCURVE",
"37 262 CURVE",
"64 313 OFFCURVE",
"119 360 OFFCURVE",
"201 402 CURVE SMOOTH",
"283 444 OFFCURVE",
"358 465 OFFCURVE",
"425 465 CURVE SMOOTH",
"524 465 OFFCURVE",
"585 416 OFFCURVE",
"585 328 CURVE SMOOTH",
"585 272 OFFCURVE",
"562 215 OFFCURVE",
"515 156 CURVE SMOOTH",
"468 97 OFFCURVE",
"411 52 OFFCURVE",
"342 21 CURVE",
"267 74 OFFCURVE",
"208 101 OFFCURVE",
"167 101 CURVE SMOOTH",
"154 101 OFFCURVE",
"139 97 OFFCURVE",
"121 90 CURVE SMOOTH",
"104 83 OFFCURVE",
"95 74 OFFCURVE",
"95 65 CURVE SMOOTH",
"95 64 OFFCURVE",
"96 63 OFFCURVE",
"98 63 CURVE",
"113 76 OFFCURVE",
"132 82 OFFCURVE",
"157 82 CURVE SMOOTH",
"202 82 OFFCURVE",
"256 59 OFFCURVE",
"321 12 CURVE",
"278 -5 OFFCURVE",
"240 -13 OFFCURVE",
"205 -13 CURVE SMOOTH",
"118 -13 OFFCURVE",
"75 23 OFFCURVE",
"75 96 CURVE SMOOTH",
"75 129 OFFCURVE",
"93 168 OFFCURVE",
"129 214 CURVE SMOOTH",
"166 261 OFFCURVE",
"208 301 OFFCURVE",
"257 334 CURVE SMOOTH",
"306 368 OFFCURVE",
"346 385 OFFCURVE",
"379 385 CURVE SMOOTH",
"397 385 OFFCURVE",
"410 383 OFFCURVE",
"417 379 CURVE",
"415 391 OFFCURVE",
"399 397 OFFCURVE",
"370 397 CURVE SMOOTH",
"293 397 OFFCURVE",
"221 367 OFFCURVE",
"156 307 CURVE SMOOTH",
"91 248 OFFCURVE",
"59 182 OFFCURVE",
"59 111 CURVE SMOOTH",
"59 62 OFFCURVE",
"74 23 OFFCURVE",
"105 -7 CURVE SMOOTH",
"136 -37 OFFCURVE",
"175 -52 OFFCURVE",
"221 -52 CURVE SMOOTH",
"267 -52 OFFCURVE",
"314 -40 OFFCURVE",
"361 -17 CURVE",
"448 -84 OFFCURVE",
"501 -123 OFFCURVE",
"522 -136 CURVE SMOOTH",
"591 -178 OFFCURVE",
"653 -199 OFFCURVE",
"707 -199 CURVE SMOOTH"
);
}
);
};
hints = (
{
horizontal = 1;
place = "{-229, 43}";
type = Stem;
},
{
horizontal = 1;
place = "{-82, 39}";
type = Stem;
},
{
horizontal = 1;
place = "{52, 19}";
type = Stem;
},
{
horizontal = 1;
place = "{355, 12}";
type = Stem;
},
{
horizontal = 1;
place = "{435, 24}";
type = Stem;
},
{
place = "{59, 16}";
type = Stem;
},
{
place = "{585, 39}";
type = Stem;
},
{
place = "{755, 21}";
type = Stem;
}
);
layerId = "8B85D65B-9817-42FC-8CCD-19CD4C331E33";
paths = (
{
closed = 1;
nodes = (
"753 -199 OFFCURVE",
"776 -178 OFFCURVE",
"776 -136 CURVE SMOOTH",
"776 -89 OFFCURVE",
"756 -47 OFFCURVE",
"717 -12 CURVE SMOOTH",
"678 23 OFFCURVE",
"625 40 OFFCURVE",
"556 40 CURVE SMOOTH",
"549 40 OFFCURVE",
"545 39 OFFCURVE",
"545 38 CURVE",
"545 39 OFFCURVE",
"558 35 OFFCURVE",
"596 23 CURVE SMOOTH",
"631 12 OFFCURVE",
"659 -1 OFFCURVE",
"682 -15 CURVE SMOOTH",
"731 -45 OFFCURVE",
"755 -77 OFFCURVE",
"755 -110 CURVE SMOOTH",
"755 -141 OFFCURVE",
"734 -156 OFFCURVE",
"693 -156 CURVE SMOOTH",
"652 -156 OFFCURVE",
"611 -146 OFFCURVE",
"568 -126 CURVE SMOOTH",
"526 -106 OFFCURVE",
"464 -66 OFFCURVE",
"381 -7 CURVE",
"449 29 OFFCURVE",
"506 76 OFFCURVE",
"553 135 CURVE SMOOTH",
"600 194 OFFCURVE",
"624 247 OFFCURVE",
"624 296 CURVE SMOOTH",
"624 345 OFFCURVE",
"602 390 OFFCURVE",
"557 429 CURVE SMOOTH",
"512 469 OFFCURVE",
"465 489 OFFCURVE",
"414 489 CURVE SMOOTH",
"351 489 OFFCURVE",
"288 473 OFFCURVE",
"225 440 CURVE SMOOTH",
"162 407 OFFCURVE",
"108 365 OFFCURVE",
"62 313 CURVE SMOOTH",
"42 290 OFFCURVE",
"32 276 OFFCURVE",
"32 270 CURVE SMOOTH",
"32 265 OFFCURVE",
"34 262 OFFCURVE",
"37 262 CURVE",
"64 313 OFFCURVE",
"119 360 OFFCURVE",
"201 402 CURVE SMOOTH",
"283 444 OFFCURVE",
"358 465 OFFCURVE",
"425 465 CURVE SMOOTH",
"524 465 OFFCURVE",
"585 416 OFFCURVE",
"585 328 CURVE SMOOTH",
"585 272 OFFCURVE",
"562 215 OFFCURVE",
"515 156 CURVE SMOOTH",
"468 97 OFFCURVE",
"411 52 OFFCURVE",
"342 21 CURVE",
"267 74 OFFCURVE",
"208 101 OFFCURVE",
"167 101 CURVE SMOOTH",
"154 101 OFFCURVE",
"139 97 OFFCURVE",
"121 90 CURVE SMOOTH",
"104 83 OFFCURVE",
"95 74 OFFCURVE",
"95 65 CURVE SMOOTH",
"95 64 OFFCURVE",
"96 63 OFFCURVE",
"98 63 CURVE",
"113 76 OFFCURVE",
"132 82 OFFCURVE",
"157 82 CURVE SMOOTH",
"202 82 OFFCURVE",
"256 59 OFFCURVE",
"321 12 CURVE",
"278 -5 OFFCURVE",
"240 -13 OFFCURVE",
"205 -13 CURVE SMOOTH",
"118 -13 OFFCURVE",
"75 23 OFFCURVE",
"75 96 CURVE SMOOTH",
"75 129 OFFCURVE",
"93 168 OFFCURVE",
"129 214 CURVE SMOOTH",
"166 261 OFFCURVE",
"208 301 OFFCURVE",
"257 334 CURVE SMOOTH",
"306 368 OFFCURVE",
"346 385 OFFCURVE",
"379 385 CURVE SMOOTH",
"397 385 OFFCURVE",
"410 383 OFFCURVE",
"417 379 CURVE",
"415 391 OFFCURVE",
"399 397 OFFCURVE",
"370 397 CURVE SMOOTH",
"293 397 OFFCURVE",
"221 367 OFFCURVE",
"156 307 CURVE SMOOTH",
"91 248 OFFCURVE",
"59 182 OFFCURVE",
"59 111 CURVE SMOOTH",
"59 62 OFFCURVE",
"74 23 OFFCURVE",
"105 -7 CURVE SMOOTH",
"136 -37 OFFCURVE",
"175 -52 OFFCURVE",
"221 -52 CURVE SMOOTH",
"267 -52 OFFCURVE",
"314 -40 OFFCURVE",
"361 -17 CURVE",
"448 -84 OFFCURVE",
"501 -123 OFFCURVE",
"522 -136 CURVE SMOOTH",
"591 -178 OFFCURVE",
"653 -199 OFFCURVE",
"707 -199 CURVE SMOOTH"
);
}
);
width = 600;
}
);
note = Q;
unicode = 0051;
},
{
glyphname = R;
lastChange = "2021-04-18 13:12:25 +0000";
layers = (
{
anchors = (
{
name = bottom;
position = "{292, -21}";
},
{
name = top;
position = "{456, 490}";
}
);
background = {
anchors = (
{
name = bottom;
position = "{292, -21}";
},
{
name = top;
position = "{456, 490}";
}
);
paths = (
{
closed = 1;
nodes = (
"178 -31 OFFCURVE",
"180 -30 OFFCURVE",
"180 -28 CURVE",
"172 -23 OFFCURVE",
"168 -15 OFFCURVE",
"168 -3 CURVE SMOOTH",
"168 41 OFFCURVE",
"195 108 OFFCURVE",
"248 199 CURVE",
"290 132 OFFCURVE",
"331 78 OFFCURVE",
"372 35 CURVE SMOOTH",
"413 -7 OFFCURVE",
"444 -28 OFFCURVE",
"465 -28 CURVE SMOOTH",
"486 -28 OFFCURVE",
"502 -21 OFFCURVE",
"514 -8 CURVE SMOOTH",
"528 7 OFFCURVE",
"533 23 OFFCURVE",
"533 36 CURVE SMOOTH",
"533 47 OFFCURVE",
"529 56 OFFCURVE",
"523 60 CURVE",
"515 18 LINE SMOOTH",
"512 1 OFFCURVE",
"500 -7 OFFCURVE",
"486 -7 CURVE SMOOTH",
"447 -7 OFFCURVE",
"387 57 OFFCURVE",
"308 185 CURVE",
"325 183 OFFCURVE",
"343 182 OFFCURVE",
"364 182 CURVE SMOOTH",
"511 182 OFFCURVE",
"698 269 OFFCURVE",
"694 374 CURVE SMOOTH",
"693 407 OFFCURVE",
"673 435 OFFCURVE",
"617 458 CURVE SMOOTH",
"566 479 OFFCURVE",
"498 490 OFFCURVE",
"415 490 CURVE SMOOTH",
"402 490 LINE SMOOTH",
"347 490 OFFCURVE",
"288 484 OFFCURVE",
"227 473 CURVE SMOOTH",
"166 462 OFFCURVE",
"113 447 OFFCURVE",
"68 427 CURVE SMOOTH",
"23 408 OFFCURVE",
"1 387 OFFCURVE",
"1 364 CURVE SMOOTH",
"1 353 OFFCURVE",
"6 348 OFFCURVE",
"17 348 CURVE SMOOTH",
"22 348 OFFCURVE",
"28 351 OFFCURVE",
"37 356 CURVE",
"142 429 OFFCURVE",
"281 466 OFFCURVE",
"452 466 CURVE SMOOTH",
"583 466 OFFCURVE",
"670 434 OFFCURVE",
"670 382 CURVE SMOOTH",
"670 356 OFFCURVE",
"652 329 OFFCURVE",
"617 300 CURVE SMOOTH",
"582 271 OFFCURVE",
"538 247 OFFCURVE",
"486 228 CURVE SMOOTH",
"434 209 OFFCURVE",
"385 199 OFFCURVE",
"340 199 CURVE SMOOTH",
"321 199 OFFCURVE",
"307 201 OFFCURVE",
"300 205 CURVE SMOOTH",
"293 210 OFFCURVE",
"285 221 OFFCURVE",
"275 239 CURVE",
"322 298 OFFCURVE",
"364 347 OFFCURVE",
"403 386 CURVE SMOOTH",
"449 432 LINE",
"453 432 OFFCURVE",
"455 439 OFFCURVE",
"443 446 CURVE SMOOTH",
"436 450 OFFCURVE",
"432 451 OFFCURVE",
"428 451 CURVE SMOOTH",
"426 451 OFFCURVE",
"424 450 OFFCURVE",
"422 450 CURVE",
"364 422 OFFCURVE",
"307 366 OFFCURVE",
"251 282 CURVE",
"248 290 OFFCURVE",
"242 294 OFFCURVE",
"235 294 CURVE SMOOTH",
"218 294 OFFCURVE",
"209 288 OFFCURVE",
"209 275 CURVE SMOOTH",
"209 270 OFFCURVE",
"214 257 OFFCURVE",
"225 238 CURVE",
"178 157 OFFCURVE",
"154 86 OFFCURVE",
"154 27 CURVE SMOOTH",
"154 -12 OFFCURVE",
"161 -31 OFFCURVE",
"175 -31 CURVE SMOOTH"
);
}
);
};
hints = (
{
horizontal = 1;
place = "{-58, 21}";
type = Stem;
},
{
horizontal = 1;
place = "{152, 17}";
type = Stem;
},
{
horizontal = 1;
place = "{436, 24}";
type = Stem;
},
{
place = "{154, 14}";
type = Stem;
},
{
place = "{523, 10}";
type = Stem;
},
{
place = "{670, 24}";
type = Stem;
},
{
horizontal = 1;
place = "{402, 14}";
type = Stem;
},
{
place = "{209, 42}";
type = Stem;
}
);
layerId = "8B85D65B-9817-42FC-8CCD-19CD4C331E33";
paths = (
{
closed = 1;
nodes = (
"178 -31 OFFCURVE",
"180 -30 OFFCURVE",
"180 -28 CURVE",
"172 -23 OFFCURVE",
"168 -15 OFFCURVE",
"168 -3 CURVE SMOOTH",
"168 41 OFFCURVE",
"195 108 OFFCURVE",
"248 199 CURVE",
"290 132 OFFCURVE",
"331 78 OFFCURVE",
"372 35 CURVE SMOOTH",
"413 -7 OFFCURVE",
"444 -28 OFFCURVE",
"465 -28 CURVE SMOOTH",
"486 -28 OFFCURVE",
"502 -21 OFFCURVE",
"514 -8 CURVE SMOOTH",
"528 7 OFFCURVE",
"533 23 OFFCURVE",
"533 36 CURVE SMOOTH",
"533 47 OFFCURVE",
"529 56 OFFCURVE",
"523 60 CURVE",
"515 18 LINE SMOOTH",
"512 1 OFFCURVE",
"500 -7 OFFCURVE",
"486 -7 CURVE SMOOTH",
"447 -7 OFFCURVE",
"387 57 OFFCURVE",
"308 185 CURVE",
"325 183 OFFCURVE",
"343 182 OFFCURVE",
"364 182 CURVE SMOOTH",
"509 182 OFFCURVE",
"694 267 OFFCURVE",
"694 371 CURVE SMOOTH",
"694 405 OFFCURVE",
"675 434 OFFCURVE",
"617 458 CURVE SMOOTH",
"566 479 OFFCURVE",
"498 490 OFFCURVE",
"415 490 CURVE SMOOTH",
"402 490 LINE SMOOTH",
"347 490 OFFCURVE",
"288 484 OFFCURVE",
"227 473 CURVE SMOOTH",
"166 462 OFFCURVE",
"113 447 OFFCURVE",
"68 427 CURVE SMOOTH",
"23 408 OFFCURVE",
"1 387 OFFCURVE",
"1 364 CURVE SMOOTH",
"1 353 OFFCURVE",
"6 348 OFFCURVE",
"17 348 CURVE SMOOTH",
"22 348 OFFCURVE",
"28 351 OFFCURVE",
"37 356 CURVE",
"142 429 OFFCURVE",
"281 466 OFFCURVE",
"452 466 CURVE SMOOTH",
"583 466 OFFCURVE",
"670 434 OFFCURVE",
"670 382 CURVE SMOOTH",
"670 356 OFFCURVE",
"652 329 OFFCURVE",
"617 300 CURVE SMOOTH",
"582 271 OFFCURVE",
"538 247 OFFCURVE",
"486 228 CURVE SMOOTH",
"434 209 OFFCURVE",
"385 199 OFFCURVE",
"340 199 CURVE SMOOTH",
"321 199 OFFCURVE",
"307 201 OFFCURVE",
"300 205 CURVE SMOOTH",
"293 210 OFFCURVE",
"285 221 OFFCURVE",
"275 239 CURVE",
"322 298 OFFCURVE",
"364 347 OFFCURVE",
"403 386 CURVE SMOOTH",
"449 432 LINE",
"453 432 OFFCURVE",
"455 439 OFFCURVE",
"443 446 CURVE SMOOTH",
"436 450 OFFCURVE",
"432 451 OFFCURVE",
"428 451 CURVE SMOOTH",
"426 451 OFFCURVE",
"424 450 OFFCURVE",
"422 450 CURVE",
"364 422 OFFCURVE",
"307 366 OFFCURVE",
"251 282 CURVE",
"248 290 OFFCURVE",
"242 294 OFFCURVE",
"235 294 CURVE SMOOTH",
"218 294 OFFCURVE",
"209 288 OFFCURVE",
"209 275 CURVE SMOOTH",
"209 270 OFFCURVE",
"214 257 OFFCURVE",
"225 238 CURVE",
"178 157 OFFCURVE",
"154 86 OFFCURVE",
"154 27 CURVE SMOOTH",
"154 -12 OFFCURVE",
"161 -31 OFFCURVE",
"175 -31 CURVE SMOOTH"
);
}
);
width = 583;
}
);
note = R;
unicode = 0052;
},
{
glyphname = S;
lastChange = "2021-04-15 17:47:42 +0000";
layers = (
{
anchors = (
{
name = bottom;
position = "{150, -26}";
},
{
name = top;
position = "{302, 522}";
}
);
background = {
anchors = (
{
name = bottom;
position = "{150, -26}";
},
{
name = top;
position = "{302, 522}";
}
);
paths = (
{
closed = 1;
nodes = (
"175 -26 LINE SMOOTH",
"236 -26 OFFCURVE",
"287 7 OFFCURVE",
"287 51 CURVE SMOOTH",
"287 82 OFFCURVE",
"258 127 OFFCURVE",
"200 188 CURVE SMOOTH",
"142 249 OFFCURVE",
"113 291 OFFCURVE",
"113 316 CURVE SMOOTH",
"113 341 OFFCURVE",
"129 367 OFFCURVE",
"162 392 CURVE SMOOTH",
"195 417 OFFCURVE",
"235 437 OFFCURVE",
"281 451 CURVE SMOOTH",
"327 466 OFFCURVE",
"370 473 OFFCURVE",
"410 473 CURVE SMOOTH",
"427 473 OFFCURVE",
"435 470 OFFCURVE",
"435 464 CURVE SMOOTH",
"435 455 OFFCURVE",
"425 443 OFFCURVE",
"399 425 CURVE SMOOTH",
"348 390 LINE",
"349 385 LINE",
"357 385 OFFCURVE",
"379 394 OFFCURVE",
"414 413 CURVE SMOOTH",
"450 432 OFFCURVE",
"468 449 OFFCURVE",
"468 463 CURVE SMOOTH",
"468 471 OFFCURVE",
"461 481 OFFCURVE",
"450 493 CURVE SMOOTH",
"425 519 LINE",
"418 521 OFFCURVE",
"410 522 OFFCURVE",
"401 522 CURVE SMOOTH",
"392 522 OFFCURVE",
"354 515 OFFCURVE",
"294 500 CURVE SMOOTH",
"163 467 OFFCURVE",
"89 412 OFFCURVE",
"89 336 CURVE SMOOTH",
"89 307 OFFCURVE",
"96 283 OFFCURVE",
"109 262 CURVE SMOOTH",
"124 239 OFFCURVE",
"167 193 OFFCURVE",
"213 144 CURVE SMOOTH",
"242 113 OFFCURVE",
"256 93 OFFCURVE",
"256 83 CURVE SMOOTH",
"256 66 OFFCURVE",
"240 51 OFFCURVE",
"207 38 CURVE SMOOTH",
"175 25 OFFCURVE",
"143 19 OFFCURVE",
"110 19 CURVE SMOOTH",
"77 19 OFFCURVE",
"47 26 OFFCURVE",
"18 39 CURVE",
"16 33 LINE",
"41 -6 OFFCURVE",
"86 -26 OFFCURVE",
"150 -26 CURVE SMOOTH"
);
}
);
};
hints = (
{
horizontal = 1;
place = "{-56, 45}";
type = Stem;
},
{
horizontal = 1;
place = "{443, 49}";
type = Stem;
},
{
place = "{89, 24}";
type = Stem;
},
{
place = "{256, 31}";
type = Stem;
},
{
place = "{435, 33}";
type = Stem;
}
);
layerId = "8B85D65B-9817-42FC-8CCD-19CD4C331E33";
paths = (
{
closed = 1;
nodes = (
"175 -26 LINE SMOOTH",
"236 -26 OFFCURVE",
"287 7 OFFCURVE",
"287 51 CURVE SMOOTH",
"287 82 OFFCURVE",
"258 127 OFFCURVE",
"200 188 CURVE SMOOTH",
"142 249 OFFCURVE",
"113 291 OFFCURVE",
"113 316 CURVE SMOOTH",
"113 341 OFFCURVE",
"129 367 OFFCURVE",
"162 392 CURVE SMOOTH",
"195 417 OFFCURVE",
"235 437 OFFCURVE",
"281 451 CURVE SMOOTH",
"327 466 OFFCURVE",
"370 473 OFFCURVE",
"410 473 CURVE SMOOTH",
"427 473 OFFCURVE",
"435 470 OFFCURVE",
"435 464 CURVE SMOOTH",
"435 455 OFFCURVE",
"425 443 OFFCURVE",
"399 425 CURVE SMOOTH",
"348 390 LINE",
"349 385 LINE",
"357 385 OFFCURVE",
"379 394 OFFCURVE",
"414 413 CURVE SMOOTH",
"450 432 OFFCURVE",
"468 449 OFFCURVE",
"468 463 CURVE SMOOTH",
"468 471 OFFCURVE",
"461 481 OFFCURVE",
"450 493 CURVE SMOOTH",
"425 519 LINE",
"418 521 OFFCURVE",
"410 522 OFFCURVE",
"401 522 CURVE SMOOTH",
"392 522 OFFCURVE",
"354 515 OFFCURVE",
"294 500 CURVE SMOOTH",
"163 467 OFFCURVE",
"89 412 OFFCURVE",
"89 336 CURVE SMOOTH",
"89 307 OFFCURVE",
"96 283 OFFCURVE",
"109 262 CURVE SMOOTH",
"124 239 OFFCURVE",
"167 193 OFFCURVE",
"213 144 CURVE SMOOTH",
"242 113 OFFCURVE",
"256 93 OFFCURVE",
"256 83 CURVE SMOOTH",
"256 66 OFFCURVE",
"240 51 OFFCURVE",
"207 38 CURVE SMOOTH",
"175 25 OFFCURVE",
"143 19 OFFCURVE",
"110 19 CURVE SMOOTH",
"77 19 OFFCURVE",
"47 26 OFFCURVE",
"18 39 CURVE",
"16 33 LINE",
"41 -6 OFFCURVE",
"86 -26 OFFCURVE",
"150 -26 CURVE SMOOTH"
);
}
);
width = 318;
}
);
note = S;
unicode = 0053;
},
{
glyphname = T;
lastChange = "2021-04-15 17:47:42 +0000";
layers = (
{
anchors = (
{
name = bottom;
position = "{269, -49}";
},
{
name = center;
position = "{249, 260}";
},
{
name = top;
position = "{480, 490}";
}
);
background = {
anchors = (
{
name = bottom;
position = "{269, -49}";
},
{
name = center;
position = "{249, 260}";
},
{
name = top;
position = "{480, 490}";
}
);
paths = (
{
closed = 1;
nodes = (
"227 353 OFFCURVE",
"235 356 OFFCURVE",
"235 363 CURVE SMOOTH",
"235 367 OFFCURVE",
"233 367 OFFCURVE",
"228 367 CURVE SMOOTH",
"209 366 LINE SMOOTH",
"186 365 OFFCURVE",
"154 372 OFFCURVE",
"98 403 CURVE SMOOTH",
"53 428 OFFCURVE",
"31 452 OFFCURVE",
"31 477 CURVE SMOOTH",
"31 491 OFFCURVE",
"44 498 OFFCURVE",
"70 498 CURVE SMOOTH",
"96 498 OFFCURVE",
"124 496 OFFCURVE",
"153 491 CURVE SMOOTH",
"186 486 OFFCURVE",
"200 482 OFFCURVE",
"235 475 CURVE SMOOTH",
"453 431 LINE SMOOTH",
"499 422 OFFCURVE",
"556 413 OFFCURVE",
"624 413 CURVE SMOOTH",
"628 413 LINE SMOOTH",
"679 413 OFFCURVE",
"704 426 OFFCURVE",
"704 452 CURVE SMOOTH",
"704 475 OFFCURVE",
"689 497 OFFCURVE",
"660 520 CURVE SMOOTH",
"631 543 OFFCURVE",
"603 555 OFFCURVE",
"577 555 CURVE SMOOTH",
"568 555 OFFCURVE",
"564 553 OFFCURVE",
"564 550 CURVE",
"618 529 LINE SMOOTH",
"654 515 OFFCURVE",
"674 502 OFFCURVE",
"674 484 CURVE SMOOTH",
"674 458 OFFCURVE",
"644 445 OFFCURVE",
"585 445 CURVE SMOOTH",
"484 445 OFFCURVE",
"321 476 OFFCURVE",
"100 532 CURVE SMOOTH",
"92 534 OFFCURVE",
"78 535 OFFCURVE",
"70 535 CURVE SMOOTH",
"31 535 OFFCURVE",
"12 516 OFFCURVE",
"12 477 CURVE SMOOTH",
"12 448 OFFCURVE",
"35 420 OFFCURVE",
"81 393 CURVE SMOOTH",
"127 366 OFFCURVE",
"170 353 OFFCURVE",
"211 353 CURVE SMOOTH"
);
},
{
closed = 1;
nodes = (
"294 -49 OFFCURVE",
"309 -45 OFFCURVE",
"330 -36 CURVE SMOOTH",
"351 -28 OFFCURVE",
"362 -20 OFFCURVE",
"362 -12 CURVE SMOOTH",
"362 -11 OFFCURVE",
"361 -10 OFFCURVE",
"358 -10 CURVE",
"333 -24 LINE SMOOTH",
"315 -34 OFFCURVE",
"299 -38 OFFCURVE",
"285 -38 CURVE SMOOTH",
"266 -38 OFFCURVE",
"256 -29 OFFCURVE",
"256 -10 CURVE SMOOTH",
"256 88 OFFCURVE",
"313 201 OFFCURVE",
"427 328 CURVE",
"490 391 LINE",
"493 398 OFFCURVE",
"495 402 OFFCURVE",
"495 404 CURVE SMOOTH",
"495 414 OFFCURVE",
"487 419 OFFCURVE",
"472 419 CURVE SMOOTH",
"444 419 OFFCURVE",
"410 392 OFFCURVE",
"370 338 CURVE SMOOTH",
"331 284 OFFCURVE",
"297 225 OFFCURVE",
"270 161 CURVE SMOOTH",
"243 97 OFFCURVE",
"230 52 OFFCURVE",
"230 27 CURVE SMOOTH",
"230 -25 OFFCURVE",
"251 -49 OFFCURVE",
"287 -49 CURVE SMOOTH"
);
}
);
};
hints = (
{
horizontal = 1;
place = "{-79, 11}";
type = Stem;
},
{
horizontal = 1;
place = "{323, 13}";
type = Stem;
},
{
horizontal = 1;
place = "{383, 32}";
type = Stem;
},
{
horizontal = 1;
place = "{468, 37}";
type = Stem;
},
{
place = "{12, 19}";
type = Stem;
},
{
place = "{230, 26}";
type = Stem;
},
{
place = "{674, 30}";
type = Stem;
}
);
layerId = "8B85D65B-9817-42FC-8CCD-19CD4C331E33";
paths = (
{
closed = 1;
nodes = (
"227 353 OFFCURVE",
"235 356 OFFCURVE",
"235 363 CURVE SMOOTH",
"235 367 OFFCURVE",
"233 367 OFFCURVE",
"228 367 CURVE SMOOTH",
"209 366 LINE SMOOTH",
"186 365 OFFCURVE",
"154 372 OFFCURVE",
"98 403 CURVE SMOOTH",
"53 428 OFFCURVE",
"31 452 OFFCURVE",
"31 477 CURVE SMOOTH",
"31 491 OFFCURVE",
"44 498 OFFCURVE",
"70 498 CURVE SMOOTH",
"96 498 OFFCURVE",
"124 496 OFFCURVE",
"153 491 CURVE SMOOTH",
"186 486 OFFCURVE",
"200 482 OFFCURVE",
"235 475 CURVE SMOOTH",
"453 431 LINE SMOOTH",
"499 422 OFFCURVE",
"556 413 OFFCURVE",
"624 413 CURVE SMOOTH",
"628 413 LINE SMOOTH",
"679 413 OFFCURVE",
"704 426 OFFCURVE",
"704 452 CURVE SMOOTH",
"704 475 OFFCURVE",
"689 497 OFFCURVE",
"660 520 CURVE SMOOTH",
"631 543 OFFCURVE",
"603 555 OFFCURVE",
"577 555 CURVE SMOOTH",
"568 555 OFFCURVE",
"564 553 OFFCURVE",
"564 550 CURVE",
"618 529 LINE SMOOTH",
"654 515 OFFCURVE",
"674 502 OFFCURVE",
"674 484 CURVE SMOOTH",
"674 458 OFFCURVE",
"644 445 OFFCURVE",
"585 445 CURVE SMOOTH",
"484 445 OFFCURVE",
"321 476 OFFCURVE",
"100 532 CURVE SMOOTH",
"92 534 OFFCURVE",
"78 535 OFFCURVE",
"70 535 CURVE SMOOTH",
"31 535 OFFCURVE",
"12 516 OFFCURVE",
"12 477 CURVE SMOOTH",
"12 448 OFFCURVE",
"35 420 OFFCURVE",
"81 393 CURVE SMOOTH",
"127 366 OFFCURVE",
"170 353 OFFCURVE",
"211 353 CURVE SMOOTH"
);
},
{
closed = 1;
nodes = (
"294 -49 OFFCURVE",
"309 -45 OFFCURVE",
"330 -36 CURVE SMOOTH",
"351 -28 OFFCURVE",
"362 -20 OFFCURVE",
"362 -12 CURVE SMOOTH",
"362 -11 OFFCURVE",
"361 -10 OFFCURVE",
"358 -10 CURVE",
"333 -24 LINE SMOOTH",
"315 -34 OFFCURVE",
"299 -38 OFFCURVE",
"285 -38 CURVE SMOOTH",
"266 -38 OFFCURVE",
"256 -29 OFFCURVE",
"256 -10 CURVE SMOOTH",
"256 88 OFFCURVE",
"313 201 OFFCURVE",
"427 328 CURVE",
"490 391 LINE",
"493 398 OFFCURVE",
"495 402 OFFCURVE",
"495 404 CURVE SMOOTH",
"495 414 OFFCURVE",
"487 419 OFFCURVE",
"472 419 CURVE SMOOTH",
"444 419 OFFCURVE",
"410 392 OFFCURVE",
"370 338 CURVE SMOOTH",
"331 284 OFFCURVE",
"297 225 OFFCURVE",
"270 161 CURVE SMOOTH",
"243 97 OFFCURVE",
"230 52 OFFCURVE",
"230 27 CURVE SMOOTH",
"230 -25 OFFCURVE",
"251 -49 OFFCURVE",
"287 -49 CURVE SMOOTH"
);
}
);
width = 498;
}
);
note = T;
unicode = 0054;
},
{
glyphname = U;
lastChange = "2021-04-18 12:35:40 +0000";
layers = (
{
anchors = (
{
name = bottom;
position = "{124, -10}";
},
{
name = ogonek;
position = "{388, -165}";
},
{
name = top;
position = "{377, 468}";
},
{
name = topright;
position = "{595, 473}";
}
);
background = {
anchors = (
{
name = bottom;
position = "{113, -9}";
},
{
name = ogonek;
position = "{201, 15}";
},
{
name = top;
position = "{377, 468}";
},
{
name = topright;
position = "{595, 473}";
}
);
paths = (
{
closed = 1;
nodes = (
"340 -198 OFFCURVE",
"340 -195 OFFCURVE",
"339 -195 CURVE",
"311 -165 OFFCURVE",
"297 -110 OFFCURVE",
"297 -29 CURVE SMOOTH",
"297 -6 OFFCURVE",
"303 29 OFFCURVE",
"314 76 CURVE SMOOTH",
"325 120 OFFCURVE",
"337 157 OFFCURVE",
"348 174 CURVE",
"355 182 OFFCURVE",
"455 294 OFFCURVE",
"500 341 CURVE SMOOTH",
"519 361 OFFCURVE",
"530 375 OFFCURVE",
"546 393 CURVE SMOOTH",
"572 424 OFFCURVE",
"585 450 OFFCURVE",
"585 471 CURVE SMOOTH",
"585 484 OFFCURVE",
"578 491 OFFCURVE",
"563 491 CURVE SMOOTH",
"497 491 OFFCURVE",
"409 394 OFFCURVE",
"332 236 CURVE SMOOTH",
"312 196 OFFCURVE",
"275 155 OFFCURVE",
"218 104 CURVE SMOOTH",
"161 53 OFFCURVE",
"124 28 OFFCURVE",
"107 28 CURVE SMOOTH",
"98 28 OFFCURVE",
"93 34 OFFCURVE",
"93 45 CURVE SMOOTH",
"93 76 OFFCURVE",
"100 107 OFFCURVE",
"115 138 CURVE SMOOTH",
"130 169 OFFCURVE",
"159 218 OFFCURVE",
"201 285 CURVE SMOOTH",
"243 352 OFFCURVE",
"264 390 OFFCURVE",
"264 400 CURVE SMOOTH",
"264 420 OFFCURVE",
"242 440 OFFCURVE",
"221 440 CURVE SMOOTH",
"202 440 OFFCURVE",
"166 422 OFFCURVE",
"114 386 CURVE SMOOTH",
"63 351 OFFCURVE",
"27 320 OFFCURVE",
"7 295 CURVE",
"5 291 LINE",
"6 290 LINE",
"7 290 OFFCURVE",
"42 315 OFFCURVE",
"114 364 CURVE SMOOTH",
"147 387 OFFCURVE",
"191 409 OFFCURVE",
"224 420 CURVE",
"121 253 LINE SMOOTH",
"77 181 OFFCURVE",
"57 123 OFFCURVE",
"57 77 CURVE SMOOTH",
"57 59 OFFCURVE",
"65 40 OFFCURVE",
"80 21 CURVE SMOOTH",
"96 1 OFFCURVE",
"113 -9 OFFCURVE",
"131 -9 CURVE SMOOTH",
"168 -9 OFFCURVE",
"217 29 OFFCURVE",
"280 106 CURVE",
"270 74 OFFCURVE",
"264 42 OFFCURVE",
"264 6 CURVE SMOOTH",
"264 -33 OFFCURVE",
"271 -76 OFFCURVE",
"288 -126 CURVE SMOOTH",
"304 -175 OFFCURVE",
"320 -199 OFFCURVE",
"337 -199 CURVE"
);
},
{
closed = 1;
nodes = (
"360 229 OFFCURVE",
"360 230 OFFCURVE",
"360 231 CURVE SMOOTH",
"360 233 LINE",
"388 290 OFFCURVE",
"424 345 OFFCURVE",
"467 397 CURVE SMOOTH",
"511 450 OFFCURVE",
"543 476 OFFCURVE",
"562 476 CURVE SMOOTH",
"566 476 OFFCURVE",
"568 474 OFFCURVE",
"568 471 CURVE SMOOTH",
"568 460 OFFCURVE",
"546 429 OFFCURVE",
"501 377 CURVE SMOOTH",
"456 325 OFFCURVE",
"410 275 OFFCURVE",
"361 228 CURVE"
);
}
);
};
hints = (
{
horizontal = 1;
place = "{-39, 37}";
type = Stem;
},
{
horizontal = 1;
place = "{390, 20}";
type = Stem;
},
{
horizontal = 1;
place = "{446, 15}";
type = Stem;
},
{
place = "{57, 36}";
type = Stem;
},
{
place = "{264, 33}";
type = Stem;
},
{
place = "{568, 17}";
type = Stem;
}
);
layerId = "8B85D65B-9817-42FC-8CCD-19CD4C331E33";
paths = (
{
closed = 1;
nodes = (
"340 -198 OFFCURVE",
"340 -195 OFFCURVE",
"339 -195 CURVE",
"311 -165 OFFCURVE",
"297 -110 OFFCURVE",
"297 -29 CURVE SMOOTH",
"297 -6 OFFCURVE",
"303 29 OFFCURVE",
"314 76 CURVE SMOOTH",
"325 120 OFFCURVE",
"337 157 OFFCURVE",
"348 174 CURVE",
"355 182 OFFCURVE",
"455 294 OFFCURVE",
"500 341 CURVE SMOOTH",
"519 361 OFFCURVE",
"530 375 OFFCURVE",
"546 393 CURVE SMOOTH",
"572 424 OFFCURVE",
"585 450 OFFCURVE",
"585 471 CURVE SMOOTH",
"585 484 OFFCURVE",
"578 491 OFFCURVE",
"563 491 CURVE SMOOTH",
"497 491 OFFCURVE",
"409 394 OFFCURVE",
"332 236 CURVE SMOOTH",
"312 196 OFFCURVE",
"275 155 OFFCURVE",
"218 104 CURVE SMOOTH",
"161 53 OFFCURVE",
"124 28 OFFCURVE",
"107 28 CURVE SMOOTH",
"98 28 OFFCURVE",
"93 34 OFFCURVE",
"93 45 CURVE SMOOTH",
"93 76 OFFCURVE",
"100 107 OFFCURVE",
"115 138 CURVE SMOOTH",
"130 169 OFFCURVE",
"159 218 OFFCURVE",
"201 285 CURVE SMOOTH",
"243 352 OFFCURVE",
"264 390 OFFCURVE",
"264 400 CURVE SMOOTH",
"264 420 OFFCURVE",
"242 440 OFFCURVE",
"221 440 CURVE SMOOTH",
"202 440 OFFCURVE",
"166 422 OFFCURVE",
"114 386 CURVE SMOOTH",
"63 351 OFFCURVE",
"27 320 OFFCURVE",
"7 295 CURVE",
"5 291 LINE",
"6 290 LINE",
"7 290 OFFCURVE",
"42 315 OFFCURVE",
"114 364 CURVE SMOOTH",
"147 387 OFFCURVE",
"191 409 OFFCURVE",
"224 420 CURVE",
"121 253 LINE SMOOTH",
"77 181 OFFCURVE",
"57 123 OFFCURVE",
"57 77 CURVE SMOOTH",
"57 59 OFFCURVE",
"65 40 OFFCURVE",
"80 21 CURVE SMOOTH",
"96 1 OFFCURVE",
"113 -9 OFFCURVE",
"131 -9 CURVE SMOOTH",
"168 -9 OFFCURVE",
"217 29 OFFCURVE",
"280 106 CURVE",
"270 74 OFFCURVE",
"264 42 OFFCURVE",
"264 6 CURVE SMOOTH",
"264 -33 OFFCURVE",
"271 -76 OFFCURVE",
"288 -126 CURVE SMOOTH",
"304 -175 OFFCURVE",
"320 -199 OFFCURVE",
"337 -199 CURVE"
);
},
{
closed = 1;
nodes = (
"360 229 OFFCURVE",
"360 230 OFFCURVE",
"360 231 CURVE SMOOTH",
"360 233 LINE",
"388 290 OFFCURVE",
"424 345 OFFCURVE",
"467 397 CURVE SMOOTH",
"511 450 OFFCURVE",
"543 476 OFFCURVE",
"562 476 CURVE SMOOTH",
"566 476 OFFCURVE",
"568 474 OFFCURVE",
"568 471 CURVE SMOOTH",
"568 460 OFFCURVE",
"546 429 OFFCURVE",
"501 377 CURVE SMOOTH",
"456 325 OFFCURVE",
"410 275 OFFCURVE",
"361 228 CURVE"
);
}
);
width = 381;
}
);
note = U;
unicode = 0055;
},
{
glyphname = V;
lastChange = "2021-04-15 17:47:42 +0000";
layers = (
{
anchors = (
{
name = bottom;
position = "{251, 30}";
},
{
name = top;
position = "{251, 490}";
}
);
background = {
anchors = (
{
name = bottom;
position = "{251, 30}";
},
{
name = top;
position = "{251, 490}";
}
);
paths = (
{
closed = 1;
nodes = (
"257 -34 OFFCURVE",
"281 4 OFFCURVE",
"319 79 CURVE",
"350 127 OFFCURVE",
"391 181 OFFCURVE",
"440 242 CURVE SMOOTH",
"490 303 OFFCURVE",
"545 361 OFFCURVE",
"605 416 CURVE SMOOTH",
"665 471 OFFCURVE",
"711 498 OFFCURVE",
"744 498 CURVE SMOOTH",
"759 498 OFFCURVE",
"771 492 OFFCURVE",
"778 481 CURVE SMOOTH",
"789 463 LINE",
"790 463 OFFCURVE",
"791 465 OFFCURVE",
"791 470 CURVE SMOOTH",
"791 497 OFFCURVE",
"761 513 OFFCURVE",
"724 513 CURVE SMOOTH",
"668 513 OFFCURVE",
"605 480 OFFCURVE",
"536 415 CURVE SMOOTH",
"467 350 OFFCURVE",
"382 242 OFFCURVE",
"281 93 CURVE",
"304 165 OFFCURVE",
"319 220 OFFCURVE",
"328 257 CURVE SMOOTH",
"337 294 OFFCURVE",
"342 329 OFFCURVE",
"342 361 CURVE SMOOTH",
"342 458 OFFCURVE",
"308 507 OFFCURVE",
"240 507 CURVE SMOOTH",
"209 507 OFFCURVE",
"174 489 OFFCURVE",
"134 454 CURVE SMOOTH",
"94 419 OFFCURVE",
"59 376 OFFCURVE",
"30 325 CURVE SMOOTH",
"27 320 OFFCURVE",
"26 315 OFFCURVE",
"26 313 CURVE SMOOTH",
"26 310 OFFCURVE",
"27 309 OFFCURVE",
"28 309 CURVE SMOOTH",
"33 309 OFFCURVE",
"42 317 OFFCURVE",
"53 332 CURVE SMOOTH",
"63 346 OFFCURVE",
"73 362 OFFCURVE",
"76 368 CURVE",
"105 402 OFFCURVE",
"137 431 OFFCURVE",
"170 454 CURVE SMOOTH",
"203 478 OFFCURVE",
"230 490 OFFCURVE",
"251 490 CURVE SMOOTH",
"287 490 OFFCURVE",
"305 459 OFFCURVE",
"305 396 CURVE SMOOTH",
"305 319 OFFCURVE",
"282 216 OFFCURVE",
"242 89 CURVE SMOOTH",
"210 -13 LINE",
"210 -22 OFFCURVE",
"233 -34 OFFCURVE",
"246 -34 CURVE SMOOTH"
);
}
);
};
hints = (
{
horizontal = 1;
place = "{460, 17}";
type = Stem;
},
{
place = "{305, 37}";
type = Stem;
},
{
horizontal = 1;
place = "{468, 15}";
type = Stem;
}
);
layerId = "8B85D65B-9817-42FC-8CCD-19CD4C331E33";
paths = (
{
closed = 1;
nodes = (
"257 -34 OFFCURVE",
"281 4 OFFCURVE",
"319 79 CURVE",
"350 127 OFFCURVE",
"391 181 OFFCURVE",
"440 242 CURVE SMOOTH",
"490 303 OFFCURVE",
"545 361 OFFCURVE",
"605 416 CURVE SMOOTH",
"665 471 OFFCURVE",
"711 498 OFFCURVE",
"744 498 CURVE SMOOTH",
"759 498 OFFCURVE",
"771 492 OFFCURVE",
"778 481 CURVE SMOOTH",
"789 463 LINE",
"790 463 OFFCURVE",
"791 465 OFFCURVE",
"791 470 CURVE SMOOTH",
"791 497 OFFCURVE",
"761 513 OFFCURVE",
"724 513 CURVE SMOOTH",
"668 513 OFFCURVE",
"605 480 OFFCURVE",
"536 415 CURVE SMOOTH",
"467 350 OFFCURVE",
"382 242 OFFCURVE",
"281 93 CURVE",
"304 165 OFFCURVE",
"319 220 OFFCURVE",
"328 257 CURVE SMOOTH",
"337 294 OFFCURVE",
"342 329 OFFCURVE",
"342 361 CURVE SMOOTH",
"342 458 OFFCURVE",
"308 507 OFFCURVE",
"240 507 CURVE SMOOTH",
"209 507 OFFCURVE",
"174 489 OFFCURVE",
"134 454 CURVE SMOOTH",
"94 419 OFFCURVE",
"59 376 OFFCURVE",
"30 325 CURVE SMOOTH",
"27 320 OFFCURVE",
"26 315 OFFCURVE",
"26 313 CURVE SMOOTH",
"26 310 OFFCURVE",
"27 309 OFFCURVE",
"28 309 CURVE SMOOTH",
"33 309 OFFCURVE",
"42 317 OFFCURVE",
"53 332 CURVE SMOOTH",
"63 346 OFFCURVE",
"73 362 OFFCURVE",
"76 368 CURVE",
"105 402 OFFCURVE",
"137 431 OFFCURVE",
"170 454 CURVE SMOOTH",
"203 478 OFFCURVE",
"230 490 OFFCURVE",
"251 490 CURVE SMOOTH",
"287 490 OFFCURVE",
"305 459 OFFCURVE",
"305 396 CURVE SMOOTH",
"305 319 OFFCURVE",
"282 216 OFFCURVE",
"242 89 CURVE SMOOTH",
"210 -13 LINE",
"210 -22 OFFCURVE",
"233 -34 OFFCURVE",
"246 -34 CURVE SMOOTH"
);
}
);
width = 501;
}
);
note = V;
unicode = 0056;
},
{
glyphname = W;
lastChange = "2021-04-18 12:29:26 +0000";
layers = (
{
anchors = (
{
name = bottom;
position = "{376, 30}";
},
{
name = top;
position = "{562, 473}";
}
);
background = {
anchors = (
{
name = bottom;
position = "{376, 30}";
},
{
name = top;
position = "{376, 490}";
}
);
paths = (
{
closed = 1;
nodes = (
"117 -74 OFFCURVE",
"156 -57 OFFCURVE",
"199 -22 CURVE SMOOTH",
"242 12 OFFCURVE",
"297 70 OFFCURVE",
"365 151 CURVE SMOOTH",
"435 234 OFFCURVE",
"477 284 OFFCURVE",
"496 303 CURVE",
"488 244 OFFCURVE",
"484 193 OFFCURVE",
"484 150 CURVE SMOOTH",
"484 38 OFFCURVE",
"511 -18 OFFCURVE",
"566 -18 CURVE SMOOTH",
"612 -18 OFFCURVE",
"650 9 OFFCURVE",
"680 64 CURVE SMOOTH",
"710 119 OFFCURVE",
"725 183 OFFCURVE",
"725 258 CURVE SMOOTH",
"725 351 OFFCURVE",
"696 411 OFFCURVE",
"653 411 CURVE SMOOTH",
"632 411 OFFCURVE",
"621 408 OFFCURVE",
"621 401 CURVE SMOOTH",
"621 400 OFFCURVE",
"622 399 OFFCURVE",
"624 398 CURVE SMOOTH",
"665 385 OFFCURVE",
"686 338 OFFCURVE",
"686 257 CURVE SMOOTH",
"686 204 OFFCURVE",
"674 147 OFFCURVE",
"651 88 CURVE SMOOTH",
"628 29 OFFCURVE",
"601 -1 OFFCURVE",
"571 -1 CURVE SMOOTH",
"541 -1 OFFCURVE",
"526 63 OFFCURVE",
"526 192 CURVE SMOOTH",
"526 221 OFFCURVE",
"528 267 OFFCURVE",
"532 328 CURVE SMOOTH",
"532 336 OFFCURVE",
"527 340 OFFCURVE",
"517 340 CURVE SMOOTH",
"508 340 OFFCURVE",
"461 295 OFFCURVE",
"378 204 CURVE SMOOTH",
"295 113 OFFCURVE",
"234 51 OFFCURVE",
"196 18 CURVE SMOOTH",
"159 -15 OFFCURVE",
"133 -35 OFFCURVE",
"119 -40 CURVE SMOOTH",
"102 -47 OFFCURVE",
"90 -49 OFFCURVE",
"71 -49 CURVE SMOOTH",
"51 -49 OFFCURVE",
"40 -36 OFFCURVE",
"40 -11 CURVE SMOOTH",
"40 16 OFFCURVE",
"53 55 OFFCURVE",
"80 105 CURVE SMOOTH",
"107 154 OFFCURVE",
"145 206 OFFCURVE",
"194 261 CURVE SMOOTH",
"243 316 OFFCURVE",
"285 360 OFFCURVE",
"322 392 CURVE SMOOTH",
"359 424 OFFCURVE",
"399 451 OFFCURVE",
"440 472 CURVE",
"443 473 OFFCURVE",
"445 475 OFFCURVE",
"445 478 CURVE SMOOTH",
"445 485 OFFCURVE",
"439 489 OFFCURVE",
"427 489 CURVE SMOOTH",
"391 489 OFFCURVE",
"340 461 OFFCURVE",
"273 405 CURVE SMOOTH",
"206 349 OFFCURVE",
"146 282 OFFCURVE",
"92 205 CURVE SMOOTH",
"38 128 OFFCURVE",
"11 64 OFFCURVE",
"11 13 CURVE SMOOTH",
"11 -34 OFFCURVE",
"42 -74 OFFCURVE",
"82 -74 CURVE SMOOTH"
);
}
);
};
hints = (
{
horizontal = 1;
place = "{-104, 25}";
type = Stem;
},
{
horizontal = 1;
place = "{-48, 17}";
type = Stem;
},
{
horizontal = 1;
place = "{310, -20}";
target = down;
type = TopGhost;
},
{
place = "{11, 29}";
type = Stem;
},
{
place = "{484, 42}";
type = Stem;
},
{
place = "{686, 39}";
type = Stem;
}
);
layerId = "8B85D65B-9817-42FC-8CCD-19CD4C331E33";
paths = (
{
closed = 1;
nodes = (
"117 -74 OFFCURVE",
"156 -57 OFFCURVE",
"199 -22 CURVE SMOOTH",
"242 12 OFFCURVE",
"297 70 OFFCURVE",
"365 151 CURVE SMOOTH",
"435 234 OFFCURVE",
"477 284 OFFCURVE",
"496 303 CURVE",
"488 244 OFFCURVE",
"484 193 OFFCURVE",
"484 150 CURVE SMOOTH",
"484 38 OFFCURVE",
"511 -18 OFFCURVE",
"566 -18 CURVE SMOOTH",
"612 -18 OFFCURVE",
"650 9 OFFCURVE",
"680 64 CURVE SMOOTH",
"710 119 OFFCURVE",
"725 183 OFFCURVE",
"725 258 CURVE SMOOTH",
"725 351 OFFCURVE",
"696 411 OFFCURVE",
"653 411 CURVE SMOOTH",
"632 411 OFFCURVE",
"621 408 OFFCURVE",
"621 401 CURVE SMOOTH",
"621 400 OFFCURVE",
"622 399 OFFCURVE",
"624 398 CURVE SMOOTH",
"665 385 OFFCURVE",
"686 338 OFFCURVE",
"686 257 CURVE SMOOTH",
"686 204 OFFCURVE",
"674 147 OFFCURVE",
"651 88 CURVE SMOOTH",
"628 29 OFFCURVE",
"601 -1 OFFCURVE",
"571 -1 CURVE SMOOTH",
"541 -1 OFFCURVE",
"526 63 OFFCURVE",
"526 192 CURVE SMOOTH",
"526 221 OFFCURVE",
"528 267 OFFCURVE",
"532 328 CURVE SMOOTH",
"532 336 OFFCURVE",
"527 340 OFFCURVE",
"517 340 CURVE SMOOTH",
"508 340 OFFCURVE",
"461 295 OFFCURVE",
"378 204 CURVE SMOOTH",
"295 113 OFFCURVE",
"234 51 OFFCURVE",
"196 18 CURVE SMOOTH",
"159 -15 OFFCURVE",
"133 -35 OFFCURVE",
"119 -40 CURVE SMOOTH",
"102 -47 OFFCURVE",
"90 -49 OFFCURVE",
"71 -49 CURVE SMOOTH",
"51 -49 OFFCURVE",
"40 -36 OFFCURVE",
"40 -11 CURVE SMOOTH",
"40 16 OFFCURVE",
"53 55 OFFCURVE",
"80 105 CURVE SMOOTH",
"107 154 OFFCURVE",
"145 206 OFFCURVE",
"194 261 CURVE SMOOTH",
"243 316 OFFCURVE",
"285 360 OFFCURVE",
"322 392 CURVE SMOOTH",
"359 424 OFFCURVE",
"399 451 OFFCURVE",
"440 472 CURVE",
"443 473 OFFCURVE",
"445 475 OFFCURVE",
"445 478 CURVE SMOOTH",
"445 485 OFFCURVE",
"439 489 OFFCURVE",
"427 489 CURVE SMOOTH",
"391 489 OFFCURVE",
"340 461 OFFCURVE",
"273 405 CURVE SMOOTH",
"206 349 OFFCURVE",
"146 282 OFFCURVE",
"92 205 CURVE SMOOTH",
"38 128 OFFCURVE",
"11 64 OFFCURVE",
"11 13 CURVE SMOOTH",
"11 -34 OFFCURVE",
"42 -74 OFFCURVE",
"82 -74 CURVE SMOOTH"
);
}
);
width = 752;
}
);
note = W;
unicode = 0057;
},
